<svg width="64" height="64" viewBox="0 0 64 64" fill="none" xmlns="http://www.w3.org/2000/svg">
<rect x="0.000976562" y="0.000488281" width="64" height="64" rx="32" fill="#E69600"/>
<mask id="mask0_68_3128" style="mask-type:luminance" maskUnits="userSpaceOnUse" x="12" y="12" width="41" height="41">
<path d="M52.001 12.0005H12.001V52.0005H52.001V12.0005Z" fill="white"/>
</mask>
<g mask="url(#mask0_68_3128)">
<path d="M42.8057 43.5177L33.251 27.5958V19.5005H33.876C34.3733 19.5005 34.8502 19.3029 35.2018 18.9513C35.5535 18.5997 35.751 18.1228 35.751 17.6255C35.751 17.1282 35.5535 16.6513 35.2018 16.2997C34.8502 15.948 34.3733 15.7505 33.876 15.7505H21.376C20.8787 15.7505 20.4018 15.948 20.0502 16.2997C19.6986 16.6513 19.501 17.1282 19.501 17.6255C19.501 18.1228 19.6986 18.5997 20.0502 18.9513C20.4018 19.3029 20.8787 19.5005 21.376 19.5005H22.001V27.5958L12.4463 43.5177C12.1618 43.9919 12.0082 44.5331 12.0012 45.0861C11.9942 45.6391 12.1341 46.1839 12.4066 46.6652C12.6791 47.1464 13.0744 47.5467 13.5521 47.8252C14.0299 48.1038 14.573 48.2505 15.126 48.2505H40.126C40.6789 48.2505 41.2221 48.1038 41.6999 47.8252C42.1777 47.5467 42.573 47.1464 42.8454 46.6652C43.1179 46.1839 43.2577 45.6391 43.2508 45.0861C43.2438 44.5331 43.0902 43.9919 42.8057 43.5177ZM29.501 19.5005V28.1161C29.5011 28.4558 29.5935 28.7889 29.7682 29.0802L35.2572 38.2271C33.5713 38.3614 31.3275 38.0224 28.4729 36.577C26.2854 35.4708 24.1823 34.8067 22.1807 34.5833L25.4838 29.0802C25.6586 28.7889 25.7509 28.4558 25.751 28.1161V19.5005H29.501Z" fill="#231F20"/>
<path d="M42.1198 32.0003V30.4441H38.0898V29.2166L40.9914 23.0723H42.4733L39.5717 29.2166H42.1198V26.7985H43.4342V29.2166H44.3209V30.4441H43.4342V32.0003H42.1198ZM48.308 32.1677C47.8658 32.1677 47.4503 32.085 47.0619 31.9197C46.6733 31.7503 46.3364 31.5105 46.0513 31.2005C45.7702 30.8905 45.5655 30.5247 45.4373 30.1032L46.6898 29.756C46.8097 30.1403 47.0184 30.4358 47.3159 30.6425C47.6136 30.845 47.9442 30.9442 48.308 30.9402C48.6345 30.936 48.9219 30.8596 49.1698 30.7107C49.4178 30.5619 49.612 30.3614 49.7527 30.1093C49.8931 29.853 49.9634 29.5596 49.9634 29.2289C49.9634 28.7328 49.8084 28.3238 49.4984 28.0013C49.1925 27.6789 48.7916 27.5177 48.2956 27.5177C48.1552 27.5177 48.0105 27.5384 47.8616 27.5797C47.7169 27.621 47.5806 27.6747 47.4523 27.741L46.8448 26.7179L49.9944 23.9341L50.1308 24.3061H45.7908V23.0723H51.16V24.3061L48.5436 26.8233L48.5312 26.4017C49.0934 26.4017 49.5811 26.5278 49.9944 26.7799C50.4078 27.0279 50.7261 27.3668 50.9492 27.7968C51.1766 28.2224 51.2903 28.6999 51.2903 29.2289C51.2903 29.7993 51.1559 30.3057 50.8872 30.748C50.6227 31.1902 50.2652 31.5374 49.8147 31.7896C49.3683 32.0418 48.8661 32.1677 48.308 32.1677Z" fill="#231F20"/>
</g>
</svg>
