<svg width="32" height="32" viewBox="0 0 32 32" fill="none" xmlns="http://www.w3.org/2000/svg">
<path d="M17.3715 2.66699C18.8715 2.67099 19.6328 2.67899 20.2902 2.69766L20.5488 2.70699C20.8475 2.71766 21.1422 2.73099 21.4982 2.74699C22.9168 2.81366 23.8848 3.03766 24.7342 3.36699C25.6142 3.70566 26.3555 4.16433 27.0968 4.90433C27.7751 5.57064 28.2998 6.37696 28.6342 7.26699C28.9635 8.11633 29.1875 9.08433 29.2542 10.5043C29.2702 10.859 29.2835 11.1537 29.2942 11.4537L29.3022 11.7123C29.3222 12.3683 29.3302 13.1297 29.3328 14.6297L29.3342 15.6243V17.371C29.3374 18.3435 29.3272 19.3161 29.3035 20.2883L29.2955 20.547C29.2848 20.847 29.2715 21.1417 29.2555 21.4963C29.1888 22.9163 28.9622 23.883 28.6342 24.7337C28.2998 25.6237 27.7751 26.43 27.0968 27.0963C26.4305 27.7746 25.6242 28.2992 24.7342 28.6337C23.8848 28.963 22.9168 29.187 21.4982 29.2537L20.5488 29.2937L20.2902 29.3017C19.6328 29.3203 18.8715 29.3297 17.3715 29.3323L16.3768 29.3337H14.6315C13.6585 29.3371 12.6855 29.3269 11.7128 29.303L11.4542 29.295C11.1377 29.283 10.8212 29.2692 10.5048 29.2537C9.08617 29.187 8.11817 28.963 7.26751 28.6337C6.37795 28.2991 5.5721 27.7744 4.90617 27.0963C4.22743 26.4301 3.70232 25.6238 3.36751 24.7337C3.03817 23.8843 2.81417 22.9163 2.74751 21.4963L2.70751 20.547L2.70084 20.2883C2.67626 19.3161 2.66515 18.3435 2.66751 17.371V14.6297C2.66382 13.6571 2.67359 12.6846 2.69684 11.7123L2.70617 11.4537C2.71684 11.1537 2.73017 10.859 2.74617 10.5043C2.81284 9.08433 3.03684 8.11766 3.36617 7.26699C3.70177 6.37659 4.2278 5.57024 4.90751 4.90433C5.57304 4.22639 6.37842 3.70176 7.26751 3.36699C8.11817 3.03766 9.08484 2.81366 10.5048 2.74699C10.8595 2.73099 11.1555 2.71766 11.4542 2.70699L11.7128 2.69899C12.6851 2.6753 13.6576 2.66508 14.6302 2.66833L17.3715 2.66699ZM16.0008 9.33366C14.2327 9.33366 12.537 10.036 11.2868 11.2863C10.0366 12.5365 9.33417 14.2322 9.33417 16.0003C9.33417 17.7684 10.0366 19.4641 11.2868 20.7144C12.537 21.9646 14.2327 22.667 16.0008 22.667C17.7689 22.667 19.4646 21.9646 20.7149 20.7144C21.9651 19.4641 22.6675 17.7684 22.6675 16.0003C22.6675 14.2322 21.9651 12.5365 20.7149 11.2863C19.4646 10.036 17.7689 9.33366 16.0008 9.33366ZM16.0008 12.0003C16.5261 12.0002 17.0463 12.1036 17.5316 12.3046C18.017 12.5055 18.458 12.8001 18.8295 13.1714C19.201 13.5428 19.4957 13.9837 19.6968 14.469C19.8979 14.9542 20.0014 15.4744 20.0015 15.9997C20.0016 16.5249 19.8982 17.0451 19.6973 17.5304C19.4963 18.0158 19.2018 18.4568 18.8304 18.8283C18.459 19.1998 18.0181 19.4945 17.5329 19.6956C17.0476 19.8967 16.5275 20.0002 16.0022 20.0003C14.9413 20.0003 13.9239 19.5789 13.1737 18.8288C12.4236 18.0786 12.0022 17.0612 12.0022 16.0003C12.0022 14.9395 12.4236 13.922 13.1737 13.1719C13.9239 12.4218 14.9413 12.0003 16.0022 12.0003M23.0022 7.33366C22.5601 7.33366 22.1362 7.50925 21.8237 7.82181C21.5111 8.13438 21.3355 8.5583 21.3355 9.00033C21.3355 9.44235 21.5111 9.86628 21.8237 10.1788C22.1362 10.4914 22.5601 10.667 23.0022 10.667C23.4442 10.667 23.8681 10.4914 24.1807 10.1788C24.4932 9.86628 24.6688 9.44235 24.6688 9.00033C24.6688 8.5583 24.4932 8.13438 24.1807 7.82181C23.8681 7.50925 23.4442 7.33366 23.0022 7.33366Z" fill="#ECBA5D"/>
</svg>
