<svg width="32" height="32" viewBox="0 0 32 32" fill="none" xmlns="http://www.w3.org/2000/svg">
<path d="M17.3713 2.66699C18.8713 2.67099 19.6326 2.67899 20.2899 2.69766L20.5486 2.70699C20.8473 2.71766 21.1419 2.73099 21.4979 2.74699C22.9166 2.81366 23.8846 3.03766 24.7339 3.36699C25.6139 3.70566 26.3553 4.16433 27.0966 4.90433C27.7749 5.57064 28.2995 6.37696 28.6339 7.26699C28.9633 8.11633 29.1873 9.08433 29.2539 10.5043C29.2699 10.859 29.2833 11.1537 29.2939 11.4537L29.3019 11.7123C29.3219 12.3683 29.3299 13.1297 29.3326 14.6297L29.3339 15.6243V17.371C29.3372 18.3435 29.327 19.3161 29.3033 20.2883L29.2953 20.547C29.2846 20.847 29.2713 21.1417 29.2553 21.4963C29.1886 22.9163 28.9619 23.883 28.6339 24.7337C28.2995 25.6237 27.7749 26.43 27.0966 27.0963C26.4303 27.7746 25.624 28.2992 24.7339 28.6337C23.8846 28.963 22.9166 29.187 21.4979 29.2537L20.5486 29.2937L20.2899 29.3017C19.6326 29.3203 18.8713 29.3297 17.3713 29.3323L16.3766 29.3337H14.6313C13.6583 29.3371 12.6853 29.3269 11.7126 29.303L11.4539 29.295C11.1374 29.283 10.821 29.2692 10.5046 29.2537C9.08593 29.187 8.11793 28.963 7.26726 28.6337C6.3777 28.2991 5.57185 27.7744 4.90593 27.0963C4.22719 26.4301 3.70207 25.6238 3.36726 24.7337C3.03793 23.8843 2.81393 22.9163 2.74726 21.4963L2.70726 20.547L2.7006 20.2883C2.67602 19.3161 2.6649 18.3435 2.66726 17.371V14.6297C2.66357 13.6571 2.67335 12.6846 2.6966 11.7123L2.70593 11.4537C2.7166 11.1537 2.72993 10.859 2.74593 10.5043C2.8126 9.08433 3.0366 8.11766 3.36593 7.26699C3.70152 6.37659 4.22756 5.57024 4.90726 4.90433C5.5728 4.22639 6.37818 3.70176 7.26726 3.36699C8.11793 3.03766 9.0846 2.81366 10.5046 2.74699C10.8593 2.73099 11.1553 2.71766 11.4539 2.70699L11.7126 2.69899C12.6849 2.6753 13.6574 2.66508 14.6299 2.66833L17.3713 2.66699ZM16.0006 9.33366C14.2325 9.33366 12.5368 10.036 11.2866 11.2863C10.0363 12.5365 9.33393 14.2322 9.33393 16.0003C9.33393 17.7684 10.0363 19.4641 11.2866 20.7144C12.5368 21.9646 14.2325 22.667 16.0006 22.667C17.7687 22.667 19.4644 21.9646 20.7146 20.7144C21.9649 19.4641 22.6673 17.7684 22.6673 16.0003C22.6673 14.2322 21.9649 12.5365 20.7146 11.2863C19.4644 10.036 17.7687 9.33366 16.0006 9.33366ZM16.0006 12.0003C16.5259 12.0002 17.046 12.1036 17.5314 12.3046C18.0167 12.5055 18.4577 12.8001 18.8292 13.1714C19.2007 13.5428 19.4954 13.9837 19.6965 14.469C19.8976 14.9542 20.0012 15.4744 20.0013 15.9997C20.0014 16.5249 19.898 17.0451 19.697 17.5304C19.4961 18.0158 19.2015 18.4568 18.8302 18.8283C18.4588 19.1998 18.0179 19.4945 17.5326 19.6956C17.0473 19.8967 16.5272 20.0002 16.0019 20.0003C14.9411 20.0003 13.9236 19.5789 13.1735 18.8288C12.4234 18.0786 12.0019 17.0612 12.0019 16.0003C12.0019 14.9395 12.4234 13.922 13.1735 13.1719C13.9236 12.4218 14.9411 12.0003 16.0019 12.0003M23.0019 7.33366C22.5599 7.33366 22.136 7.50925 21.8234 7.82181C21.5109 8.13438 21.3353 8.5583 21.3353 9.00033C21.3353 9.44235 21.5109 9.86628 21.8234 10.1788C22.136 10.4914 22.5599 10.667 23.0019 10.667C23.444 10.667 23.8679 10.4914 24.1804 10.1788C24.493 9.86628 24.6686 9.44235 24.6686 9.00033C24.6686 8.5583 24.493 8.13438 24.1804 7.82181C23.8679 7.50925 23.444 7.33366 23.0019 7.33366Z" fill="#FFF5E0" />
</svg>
