<svg width="32" height="32" viewBox="0 0 32 32" fill="none" xmlns="http://www.w3.org/2000/svg">
<path d="M24.4478 24.452H20.8944V18.8827C20.8944 17.5547 20.8678 15.8453 19.0411 15.8453C17.1891 15.8453 16.9064 17.2907 16.9064 18.7853V24.452H13.3518V13H16.7651V14.56H16.8118C17.2891 13.6613 18.4491 12.7107 20.1824 12.7107C23.7824 12.7107 24.4491 15.0813 24.4491 18.1667L24.4478 24.452ZM9.33842 11.4333C9.06716 11.4337 8.7985 11.3805 8.54784 11.2768C8.29718 11.1731 8.06945 11.021 7.8777 10.8291C7.68595 10.6372 7.53396 10.4094 7.43044 10.1587C7.32691 9.90795 7.2739 9.63926 7.27442 9.368C7.27469 8.95978 7.396 8.5608 7.62301 8.22153C7.85002 7.88225 8.17255 7.61791 8.5498 7.46194C8.92704 7.30596 9.34207 7.26536 9.7424 7.34525C10.1427 7.42515 10.5104 7.62197 10.7988 7.91081C11.0873 8.19965 11.2836 8.56755 11.363 8.96798C11.4424 9.3684 11.4013 9.78338 11.2448 10.1604C11.0883 10.5375 10.8236 10.8597 10.484 11.0862C10.1444 11.3128 9.74531 11.4336 9.33709 11.4333M11.1184 24.452H7.55576V13H11.1198L11.1184 24.452ZM26.2264 4H5.77309C4.79176 4 3.99976 4.77333 3.99976 5.72933V26.2707C3.99976 27.2267 4.79176 28 5.77042 28H26.2224C27.1998 28 27.9998 27.2267 27.9998 26.2707V5.72933C27.9998 4.77467 27.1998 4 26.2211 4H26.2264Z" fill="#ECBA5D"/>
</svg>
