<svg width="271" height="93" viewBox="0 0 271 93" fill="none" xmlns="http://www.w3.org/2000/svg">
<path d="M1.27816 36.2535L0 34.1398C0.882538 33.5272 1.53683 32.7001 1.96289 31.6586C2.41937 30.5865 2.83021 28.7638 3.1954 26.1907L3.28669 25.3636V25.1798L3.37799 22.6527L3.42364 21.5959L3.51494 19.9417L3.56059 17.7821V17.2307C3.56059 16.6487 3.54537 16.0973 3.51494 15.5766C3.51494 15.0252 3.51494 14.4891 3.51494 13.9684C3.51494 11.1196 3.24105 8.99061 2.69326 7.58152C2.17591 6.17243 1.30859 4.93182 0.0912971 3.85969L1.64335 1.65415C2.13026 2.11364 2.66283 2.45059 3.24105 2.66502C3.84969 2.87945 4.64093 3.04793 5.61477 3.17045C6.5886 3.29298 7.2429 3.35425 7.57766 3.35425C8.30803 3.35425 9.61662 3.23172 11.5034 2.98666L12.8272 2.75692L14.2423 2.52717L15.7487 2.20554C16.5096 2.08301 17.0573 2.00642 17.3921 1.97579C17.7268 1.94516 18.1377 1.92984 18.6246 1.92984H19.7658C23.9046 1.92984 27.1304 2.64971 29.4433 4.08943C31.7562 5.52915 33.1561 7.15267 33.643 8.95998C34.1299 10.7673 34.3733 12.1611 34.3733 13.1413C34.3733 14.7955 33.9929 16.3271 33.2321 17.7362C32.4713 19.1453 31.5127 20.2327 30.3563 20.9985C29.1998 21.7643 27.876 22.3004 26.3848 22.6067C24.8937 22.913 23.5394 23.0968 22.3221 23.1581C21.1048 23.2194 19.4615 23.25 17.3921 23.25L15.6118 23.2041L14.151 23.1581V24.4906L14.3793 27.4313C14.5923 29.3918 14.8662 30.7243 15.201 31.4289C15.5661 32.1334 16.327 32.8839 17.4834 33.6803L17.9399 34.002L17.1638 36.2075L15.2923 35.7021C13.162 35.1813 11.1687 34.921 9.3123 34.921C8.91668 34.921 8.52106 34.921 8.12544 34.921C7.76025 34.9822 7.50157 35.0128 7.34941 35.0128C6.19298 35.0128 5.14307 35.1201 4.19967 35.3345C3.28669 35.5489 2.31286 35.8552 1.27816 36.2535ZM13.9685 19.1146C14.3641 19.2065 14.8662 19.2984 15.4749 19.3903C16.0835 19.4822 16.5704 19.5282 16.9356 19.5282C19.2789 19.5282 20.9222 18.9461 21.8656 17.7821C22.809 16.5875 23.2808 14.4279 23.2808 11.3034C23.2808 9.46542 23.0221 8.07164 22.5047 7.12204C21.9874 6.1418 21.3331 5.51383 20.5418 5.23814C19.7506 4.93182 19.1267 4.77866 18.6702 4.77866C16.9965 4.77866 15.84 5.39131 15.201 6.6166C14.5923 7.8419 14.2271 8.76087 14.1054 9.37352C14.0141 9.98617 13.9685 10.9051 13.9685 12.1304L13.8315 15.2549V15.6225L13.9685 19.1146Z" fill="#F8EBCB"/>
<path d="M60.0107 16.4496C60.4976 17.246 60.8476 18.0272 61.0606 18.793C61.3041 19.5588 61.4258 20.4012 61.4258 21.3202L58.1391 22.0094L54.8981 22.7446L51.7483 23.4797L49.5572 23.9852L48.5529 24.2149L47.0009 24.5825L45.1749 24.996V26.3745C45.1749 28.9783 45.601 30.8468 46.4531 31.9802C47.3052 33.083 48.4008 33.6344 49.7398 33.6344C50.8658 33.6344 51.7635 33.2209 52.433 32.3938C53.1026 31.5667 53.4373 30.4486 53.4373 29.0395C53.4373 27.5692 53.0113 26.4205 52.1591 25.5934C53.0721 24.7663 54.1677 24.3528 55.4458 24.3528C56.4805 24.3528 57.7739 24.7204 59.326 25.4555C60.878 26.1601 61.654 27.4007 61.654 29.1774C61.654 29.8513 61.4867 30.5711 61.1519 31.337C60.8476 32.0721 60.3607 32.8073 59.6912 33.5425C59.0216 34.247 58.1543 34.8137 57.0892 35.2426C56.0545 35.6408 55.0046 35.8859 53.9394 35.9778C52.8743 36.1003 52.2352 36.1616 52.0222 36.1616C51.8396 36.1616 51.7027 36.1616 51.6114 36.1616C51.2766 36.1616 50.9419 36.1462 50.6071 36.1156C50.3028 36.1156 49.9832 36.1156 49.6485 36.1156C45.4184 36.1156 42.0252 34.9975 39.4689 32.7614C36.9125 30.4946 35.6344 27.6917 35.6344 24.3528C35.6344 21.9634 35.9539 19.9111 36.593 18.1957C37.2321 16.4496 38.5255 14.7036 40.4731 12.9575C42.4208 11.2115 45.0836 10.3384 48.4616 10.3384C49.5572 10.3384 50.9114 10.5375 52.5243 10.9358C54.1373 11.3034 55.5676 11.9313 56.8153 12.8197C58.063 13.6774 59.1282 14.8874 60.0107 16.4496ZM45.0836 22.1932L50.8353 20.8607C51.87 20.6462 52.3874 19.6507 52.3874 17.874C52.3874 17.6902 52.3722 17.4758 52.3417 17.2307C52.3113 16.9857 52.2657 16.5415 52.2048 15.8982C52.1439 15.2243 51.8548 14.5504 51.3375 13.8765C50.8506 13.1719 50.2267 12.8197 49.4659 12.8197C48.6138 12.8197 47.8378 13.2638 47.1378 14.1522C46.4683 15.0405 45.9814 16.373 45.6771 18.1497L45.3575 20.2174L45.0836 22.1932Z" fill="#F8EBCB"/>
<path d="M64.4365 36.2535L63.5691 34.4615C64.543 33.3587 65.2125 32.21 65.5777 31.0153C65.9733 29.79 66.1711 27.9214 66.1711 25.4096C66.1711 24.9195 66.1559 24.3987 66.1255 23.8473C66.1255 23.2959 66.1255 22.7139 66.1255 22.1013V21.5499C66.1255 18.7624 65.9124 16.6947 65.4864 15.3468C65.0908 13.9684 64.4517 12.8043 63.5691 11.8547L64.3908 10.3384L65.3951 10.6601C66.8558 11.0583 68.0731 11.2574 69.047 11.2574C69.7773 11.2574 71.1012 11.1043 73.0184 10.7979C74.9356 10.461 76.3507 10.2925 77.2637 10.2925C78.5723 10.2925 79.6222 10.3691 80.4135 10.5222C81.2351 10.6754 82.1177 11.043 83.0611 11.625C84.0045 12.207 84.7501 12.9269 85.2978 13.7846C85.8456 14.6423 86.1195 15.7451 86.1195 17.0929C86.1195 18.0119 85.9674 18.8542 85.663 19.6201C85.3587 20.3552 84.7957 21.167 83.974 22.0553C83.1524 22.9437 82.7415 23.7095 82.7415 24.3528C82.7415 24.7816 82.9546 25.2411 83.3806 25.7312C82.772 26.0988 82.1329 26.2826 81.4634 26.2826C80.6721 26.2826 79.9113 26.0682 79.1809 25.6393C78.4506 25.1798 77.8571 24.4753 77.4007 23.5257C76.9442 22.5761 76.7159 21.7643 76.7159 21.0904C76.7159 19.9264 77.1115 18.8083 77.9028 17.7362C78.7245 16.6334 79.1809 15.7451 79.2722 15.0711V14.3819C79.2722 13.7999 79.0744 13.3251 78.6788 12.9575C78.2832 12.5899 77.8571 12.4061 77.4007 12.4061C76.792 12.4061 76.2899 12.6512 75.8942 13.1413C75.5291 13.6008 75.2704 14.0603 75.1182 14.5198C74.9661 14.9792 74.7987 15.7757 74.6161 16.9091L74.4791 18.1497C74.4183 18.7317 74.3726 19.4516 74.3422 20.3093C74.3118 21.167 74.2965 21.7643 74.2965 22.1013C74.2965 25.8384 74.5552 28.58 75.0726 30.3261C75.5899 32.0721 76.4877 33.6038 77.7658 34.921L76.3507 36.2075C75.4986 35.9012 74.6009 35.6714 73.6575 35.5183C72.7445 35.3345 71.8163 35.2426 70.8729 35.2426C68.8035 35.2426 67.4188 35.3039 66.7189 35.4264C66.019 35.5183 65.2581 35.794 64.4365 36.2535Z" fill="#F8EBCB"/>
<path d="M108.022 11.7169C108.418 11.7782 108.798 11.8394 109.163 11.9007C109.559 11.9313 109.985 11.9466 110.442 11.9466C111.659 11.9466 112.663 11.6556 113.454 11.0736L113.409 12.4061C113.409 12.9881 113.378 13.4323 113.317 13.7386C113.287 14.045 113.059 15.1018 112.633 16.9091C112.237 18.7164 110.929 19.6201 108.707 19.6201C108.403 19.6201 108.174 19.6047 108.022 19.5741C106.379 19.5741 105.177 18.747 104.416 17.0929C103.655 15.4387 103.138 14.4432 102.864 14.1062C102.621 13.7386 102.301 13.4476 101.905 13.2332C101.51 12.9881 101.084 12.8656 100.627 12.8656C99.9881 12.8656 99.4555 13.1873 99.0295 13.8305C98.6034 14.4738 98.223 15.5306 97.8883 17.001L97.5231 19.4363C97.4622 19.8345 97.4166 20.3399 97.3861 20.9526C97.3557 21.5652 97.3405 22.1625 97.3405 22.7446C97.3405 24.0618 97.4622 25.7006 97.7057 27.6611C97.9491 29.6215 98.3296 31.1072 98.8469 32.1181C99.3643 33.0983 100.308 33.6497 101.677 33.7722C102.894 33.7722 103.883 33.4353 104.644 32.7614C105.436 32.0875 105.892 31.0613 106.014 29.6828C106.135 28.6413 105.755 27.4466 104.872 26.0988L104.279 25.3177C105.07 24.6438 105.816 24.2456 106.516 24.123C107.246 23.9699 107.703 23.878 107.885 23.8473C108.068 23.8167 108.235 23.8014 108.387 23.8014C109.453 23.8014 110.411 24.0464 111.263 24.5366C112.146 25.0267 112.861 25.7312 113.409 26.6502C113.987 27.5692 114.276 28.5035 114.276 29.4531C114.276 30.6171 113.941 31.6739 113.272 32.6235C112.602 33.5425 111.887 34.2164 111.126 34.6453C110.396 35.0435 109.3 35.4264 107.84 35.794L106.379 36.1156C105.77 36.2381 105.192 36.3147 104.644 36.3454C104.127 36.376 103.168 36.3913 101.768 36.3913C100.095 36.2381 98.8165 36.0544 97.9339 35.8399C97.0818 35.6561 95.8645 35.2273 94.282 34.5534C92.73 33.8488 91.3453 32.792 90.128 31.3829C88.9107 29.9738 88.1499 28.5188 87.8456 27.0178C87.5413 25.5168 87.3891 24.3221 87.3891 23.4338C87.3891 22.3004 87.5261 21.1976 87.7999 20.1255C88.0738 19.0534 88.5912 17.7668 89.352 16.2658C90.1128 14.7342 91.254 13.4476 92.7756 12.4061C94.2973 11.3646 95.8797 10.752 97.5231 10.5682C99.1969 10.3844 100.308 10.2925 100.855 10.2925C101.312 10.2925 101.784 10.3384 102.271 10.4303C102.757 10.4916 103.442 10.6141 104.325 10.7979L105.192 11.0277L106.972 11.4872L108.022 11.7169Z" fill="#F8EBCB"/>
<path d="M141.322 16.4496C141.809 17.246 142.159 18.0272 142.372 18.793C142.616 19.5588 142.737 20.4012 142.737 21.3202L139.451 22.0094L136.21 22.7446L133.06 23.4797L130.869 23.9852L129.864 24.2149L128.312 24.5825L126.486 24.996V26.3745C126.486 28.9783 126.912 30.8468 127.765 31.9802C128.617 33.083 129.712 33.6344 131.051 33.6344C132.177 33.6344 133.075 33.2209 133.744 32.3938C134.414 31.5667 134.749 30.4486 134.749 29.0395C134.749 27.5692 134.323 26.4205 133.471 25.5934C134.384 24.7663 135.479 24.3528 136.757 24.3528C137.792 24.3528 139.085 24.7204 140.637 25.4555C142.189 26.1601 142.965 27.4007 142.965 29.1774C142.965 29.8513 142.798 30.5711 142.463 31.337C142.159 32.0721 141.672 32.8073 141.003 33.5425C140.333 34.247 139.466 34.8137 138.401 35.2426C137.366 35.6408 136.316 35.8859 135.251 35.9778C134.186 36.1003 133.547 36.1616 133.334 36.1616C133.151 36.1616 133.014 36.1616 132.923 36.1616C132.588 36.1616 132.253 36.1462 131.919 36.1156C131.614 36.1156 131.295 36.1156 130.96 36.1156C126.73 36.1156 123.337 34.9975 120.78 32.7614C118.224 30.4946 116.946 27.6917 116.946 24.3528C116.946 21.9634 117.265 19.9111 117.904 18.1957C118.544 16.4496 119.837 14.7036 121.785 12.9575C123.732 11.2115 126.395 10.3384 129.773 10.3384C130.869 10.3384 132.223 10.5375 133.836 10.9358C135.449 11.3034 136.879 11.9313 138.127 12.8197C139.374 13.6774 140.44 14.8874 141.322 16.4496ZM126.395 22.1932L132.147 20.8607C133.181 20.6462 133.699 19.6507 133.699 17.874C133.699 17.6902 133.684 17.4758 133.653 17.2307C133.623 16.9857 133.577 16.5415 133.516 15.8982C133.455 15.2243 133.166 14.5504 132.649 13.8765C132.162 13.1719 131.538 12.8197 130.777 12.8197C129.925 12.8197 129.149 13.2638 128.449 14.1522C127.78 15.0405 127.293 16.373 126.989 18.1497L126.669 20.2174L126.395 22.1932Z" fill="#F8EBCB"/>
<path d="M145.702 44.9837L144.561 42.962C145.322 42.3799 145.87 41.706 146.204 40.9402C146.57 40.205 146.859 39.1789 147.072 37.8617C147.285 36.5445 147.437 35.457 147.528 34.5993C147.619 33.711 147.665 32.7767 147.665 31.7964V28.3962L147.619 26.8799L147.574 24.996C147.574 23.7095 147.559 22.7905 147.528 22.2391C147.498 21.6877 147.391 20.4931 147.209 18.6551C147.057 16.8172 146.798 15.3468 146.433 14.2441C146.098 13.1413 145.52 12.253 144.698 11.5791L145.748 10.0168C146.813 10.4457 147.741 10.752 148.532 10.9358C149.324 11.0889 150.298 11.1655 151.454 11.1655C152.793 11.1655 154.817 11.0277 157.525 10.752L159.351 10.5682C159.534 10.5376 159.732 10.5222 159.945 10.5222C160.158 10.5222 160.325 10.5222 160.447 10.5222H161.497C162.288 10.5222 163.049 10.6141 163.779 10.7979C164.509 10.9511 165.818 11.4412 167.705 12.2683C169.622 13.0647 171.083 14.5963 172.087 16.8631C173.091 19.1299 173.594 21.2129 173.594 23.1122C173.594 25.2258 173.35 27.0025 172.863 28.4422C172.376 29.8819 171.555 31.2604 170.398 32.5776C169.272 33.8641 167.933 34.7218 166.381 35.1507C164.829 35.5489 163.566 35.748 162.592 35.748C160.249 35.748 158.164 35.0128 156.338 33.5425L156.11 35.2426C156.11 37.1418 156.323 38.7347 156.749 40.0212C157.206 41.3078 157.936 42.4106 158.94 43.3295L158.027 44.9837C157.175 44.5548 156.156 44.2638 154.969 44.1107C153.812 43.9881 152.23 43.9269 150.221 43.9269C148.669 44.08 147.163 44.4323 145.702 44.9837ZM156.293 21.8256L156.43 25.6393C156.582 27.4466 156.749 28.7026 156.932 29.4071C157.145 30.081 157.525 30.7549 158.073 31.4289C158.651 32.0721 159.397 32.3938 160.31 32.3938C160.827 32.3938 161.284 32.2253 161.679 31.8883C162.105 31.5514 162.44 31.0459 162.684 30.372C162.957 29.6981 163.186 28.8557 163.368 27.8449C163.551 26.8034 163.657 25.7159 163.688 24.5825C163.718 23.4491 163.733 22.8058 163.733 22.6527V22.1472L163.688 21.1364C163.688 20.248 163.657 19.6201 163.596 19.2525C163.566 18.8542 163.475 18.211 163.323 17.3226C163.17 16.4343 163.003 15.7144 162.82 15.163C162.638 14.6117 162.349 14.0909 161.953 13.6008C161.558 13.1107 160.964 12.8656 160.173 12.8656C159.686 12.8656 159.229 12.9728 158.803 13.1873C158.408 13.371 158.058 13.6927 157.753 14.1522C157.449 14.581 157.221 15.0252 157.069 15.4847C156.947 15.9442 156.795 16.7712 156.612 17.9659L156.475 19.1146L156.293 21.8256Z" fill="#F8EBCB"/>
<path d="M175.186 17.2307L174.273 15.6225C175.186 14.7955 176.175 14.2288 177.24 13.9224L178.381 13.6927C178.411 13.3864 178.427 13.126 178.427 12.9116C178.457 12.6665 178.472 12.4827 178.472 12.3602C178.472 11.8701 178.381 11.1502 178.198 10.2006C178.016 9.22036 177.803 8.46986 177.559 7.94911C177.346 7.42836 177.011 6.99951 176.555 6.66255L177.103 4.82461C177.833 4.94714 178.655 5.0084 179.568 5.0084C181.394 5.0084 183.676 4.56423 186.415 3.67589L187.921 3.07856L189.428 3.95158L188.469 5.55978C188.195 6.11117 187.967 6.73913 187.785 7.44368C187.632 8.11759 187.511 8.94466 187.419 9.9249L187.282 11.4412L187.237 12.2223C187.815 12.3449 188.454 12.4061 189.154 12.4061C190.676 12.4061 192.091 12.0692 193.399 11.3953L194.586 10.6601C195.103 11.5484 195.362 12.4674 195.362 13.417C195.362 15.6532 194.875 17.1235 193.901 17.8281C192.928 18.5326 192.06 18.8849 191.299 18.8849C190.904 18.8849 190.25 18.8083 189.337 18.6551L186.963 18.2416V28.5341L187.328 30.9694C187.48 32.1028 187.708 32.8533 188.013 33.2209C188.317 33.5884 188.85 33.7722 189.61 33.7722C190.158 33.7722 190.63 33.6191 191.026 33.3127C191.421 33.0064 191.665 32.5776 191.756 32.0262C191.847 31.4748 191.893 31.1072 191.893 30.9234C191.893 29.8819 191.482 29.3305 190.66 29.2693C189.869 29.1774 189.397 29.0855 189.245 28.9936C189.093 28.871 188.91 28.5647 188.697 28.0746C188.515 27.5845 188.424 27.125 188.424 26.6961C188.424 25.9303 188.697 25.2717 189.245 24.7204C189.823 24.1383 190.493 23.7861 191.254 23.6635C192.045 23.541 192.562 23.4797 192.806 23.4797C194.693 23.4797 196.153 24.3528 197.188 26.0988L197.599 26.9718C197.812 27.5845 197.918 28.2431 197.918 28.9476C197.918 29.6215 197.721 30.5405 197.325 31.7045C196.96 32.8686 196.26 33.8335 195.225 34.5993C194.221 35.3345 193.019 35.8093 191.619 36.0237C190.25 36.2381 189.063 36.3454 188.058 36.3454C186.172 36.3454 184.528 36.0697 183.128 35.5183C181.759 34.9363 180.374 34.0326 178.974 32.8073L177.514 31.3829L176.874 30.6018C177.422 29.9585 177.803 29.2999 178.016 28.626C178.259 27.9521 178.457 27.0944 178.609 26.0529C178.761 25.0114 178.837 24.1383 178.837 23.4338C178.837 22.7293 178.853 22.1166 178.883 21.5959V19.9876L178.837 19.1146L178.792 16.6334C178.305 16.5721 177.727 16.6181 177.057 16.7712C176.418 16.8938 175.794 17.0469 175.186 17.2307Z" fill="#F8EBCB"/>
<path d="M198.941 6.93824C198.667 6.2337 198.53 5.59042 198.53 5.0084C198.53 4.82461 198.606 4.28854 198.758 3.4002C198.941 2.48123 199.565 1.68478 200.63 1.01087C201.725 0.336957 202.745 0 203.688 0C204.693 0 205.606 0.24506 206.427 0.735179C207.279 1.19467 207.934 1.83795 208.39 2.66502C208.847 3.46146 209.075 4.31917 209.075 5.23814C209.075 6.21838 208.831 7.12204 208.345 7.94911C207.858 8.77619 207.173 9.41947 206.29 9.87895C205.438 10.3078 204.601 10.5222 203.78 10.5222C202.715 10.5222 201.756 10.2159 200.904 9.60326C200.052 8.95998 199.397 8.07164 198.941 6.93824ZM198.256 13.1873C198.104 12.9422 197.921 12.6971 197.708 12.4521C197.495 12.207 197.252 11.9466 196.978 11.6709L197.891 10.2465C198.834 10.6754 199.808 10.997 200.813 11.2115C201.847 11.3953 202.988 11.4872 204.236 11.4872C206.701 11.4872 208.801 11.0736 210.536 10.2465L211.357 11.8088C210.201 12.9728 209.394 14.2134 208.938 15.5306C208.481 16.8172 208.253 18.793 208.253 21.458V24.123C208.253 27.4313 208.436 29.6675 208.801 30.8315C209.166 31.9649 209.988 33.083 211.266 34.1858L210.764 36.2075L210.262 36.0697L209.44 35.9318L208.299 35.748C205.651 35.3192 203.78 35.1047 202.684 35.1047C201.832 35.1047 201.102 35.1966 200.493 35.3804C199.884 35.5336 199.154 35.8246 198.302 36.2535L197.206 34.5993C197.998 33.9867 198.591 33.2668 198.987 32.4397C199.382 31.582 199.687 30.372 199.9 28.8098L200.173 26.0988V22.1932C200.173 21.0598 200.113 20.1408 199.991 19.4363L199.945 19.0687L199.489 16.9091C199.276 15.7451 199.108 14.9793 198.987 14.6117C198.865 14.2441 198.621 13.7693 198.256 13.1873Z" fill="#F8EBCB"/>
<path d="M216.117 31.5667C214.93 30.1576 214.108 28.7638 213.652 27.3854C213.226 26.0069 213.013 24.4293 213.013 22.6527C213.013 21.4274 213.18 20.3399 213.515 19.3903C213.85 18.4101 214.489 17.1542 215.432 15.6225C216.406 14.0909 217.852 12.8043 219.769 11.7628C221.716 10.7213 223.908 10.2006 226.342 10.2006C227.62 10.2006 229.248 10.4457 231.227 10.9358C233.205 11.3953 234.939 12.4521 236.43 14.1062C237.922 15.7297 238.911 17.3073 239.398 18.8389C239.915 20.3399 240.174 22.1166 240.174 24.169C240.174 24.7204 240.098 25.333 239.945 26.0069C239.793 26.6502 239.413 27.7683 238.804 29.3612C238.196 30.9541 236.857 32.5163 234.787 34.0479C232.748 35.5489 230.344 36.2994 227.575 36.2994C225.079 36.2994 222.919 35.9318 221.093 35.1966C219.267 34.4615 217.608 33.2515 216.117 31.5667ZM222.782 22.2391C222.782 22.8824 222.782 23.4185 222.782 23.8473C222.782 24.2456 222.842 25.1798 222.964 26.6502C223.116 28.1206 223.269 29.2233 223.421 29.9585C223.573 30.6937 223.877 31.5054 224.334 32.3938C224.821 33.2515 225.612 33.6803 226.707 33.6803C227.499 33.6803 228.138 33.42 228.625 32.8992C229.142 32.3478 229.522 31.7199 229.766 31.0153C230.04 30.2801 230.177 29.4071 230.177 28.3962L230.314 25.915L230.359 24.7663V20.6309L230.131 18.4254L229.994 17.3686C229.811 15.8676 229.568 14.8108 229.264 14.1981C228.959 13.5855 228.488 13.1413 227.849 12.8656C227.24 12.5899 226.692 12.4521 226.205 12.4521C224.775 12.4521 223.908 13.1413 223.603 14.5198C223.329 15.8676 223.162 16.8172 223.101 17.3686C223.04 17.8893 223.01 18.5479 223.01 19.3444L222.827 22.0094L222.782 22.2391Z" fill="#F8EBCB"/>
<path d="M244.752 20.539C244.417 17.6902 244.098 15.791 243.793 14.8414C243.489 13.8612 242.911 12.8962 242.059 11.9466L242.515 10.2006L243.565 10.4763C244.478 10.6907 245.452 10.8439 246.487 10.9358C247.521 11.0277 249.271 11.0736 251.736 11.0736L256.392 10.4763L257.671 10.3384C260.836 10.3384 263.361 10.706 265.248 11.4412C267.135 12.1764 268.505 13.2945 269.357 14.7955C270.239 16.2964 270.68 17.7974 270.68 19.2984C270.68 21.749 269.433 24.0771 266.937 26.2826L265.842 27.1556C264.777 27.9521 264.031 28.58 263.605 29.0395C263.209 29.4684 262.935 29.9279 262.783 30.418C262.631 30.9081 262.555 31.3829 262.555 31.8424C262.555 32.9452 262.798 33.6038 263.285 33.8182C263.772 34.0326 264.153 34.1398 264.427 34.1398C265.157 34.1398 265.598 33.9101 265.75 33.4506C265.903 32.9911 265.979 32.6848 265.979 32.5316C265.979 31.8577 265.72 31.1685 265.203 30.4639L264.609 29.9125C265.218 28.9629 266.1 28.4881 267.257 28.4881C267.683 28.4881 268.109 28.5647 268.535 28.7179C268.961 28.871 269.478 29.2233 270.087 29.7747C270.696 30.2955 271 31.0459 271 32.0262C271 32.8839 270.757 33.6957 270.27 34.4615C269.813 35.2273 269.204 35.8093 268.444 36.2075C267.683 36.6057 266.755 36.8048 265.659 36.8048C264.29 36.8048 263.057 36.5904 261.962 36.1616C260.866 35.7327 259.649 34.7831 258.31 33.3127C256.971 31.8424 256.301 30.1423 256.301 28.2125C256.301 27.1709 256.499 26.0682 256.895 24.9042L257.579 23.25L257.716 23.0203L259.542 20.1255C259.907 19.5435 260.257 18.8696 260.592 18.1038C260.927 17.3073 261.094 16.6487 261.094 16.128C261.094 14.045 260.029 13.0035 257.899 13.0035C257.534 13.0035 257.016 13.0647 256.347 13.1873C255.677 13.2792 255.053 13.999 254.475 15.3468C253.897 16.6947 253.608 19.0534 253.608 22.4229V24.9501C253.608 27.6458 253.806 29.6062 254.201 30.8315C254.627 32.0568 255.403 33.2668 256.529 34.4615L255.982 36.2535L254.658 35.794C253.714 35.5183 252.847 35.3498 252.056 35.2885C251.265 35.1966 250.656 35.1354 250.23 35.1047C249.834 35.0435 249.363 35.0128 248.815 35.0128C247.719 35.0128 246.73 35.1201 245.848 35.3345C244.996 35.5183 244.113 35.8399 243.2 36.2994L242.378 34.2317C243.109 33.4353 243.657 32.5929 244.022 31.7045C244.417 30.7856 244.691 29.6062 244.843 28.1665L244.935 26.9259V24.169L244.889 21.9175L244.843 21.504L244.752 20.539Z" fill="#F8EBCB"/>
<path d="M10.818 84.4995L9.53983 82.3859C10.4224 81.7732 11.0767 80.9461 11.5027 79.9046C11.9592 78.8325 12.37 77.0099 12.7352 74.4368L12.8265 73.6097V73.4259L12.9178 70.8987L12.9635 69.8419L13.0548 68.1878L13.1004 66.0282V65.4768C13.1004 64.8948 13.0852 64.3434 13.0548 63.8226C13.0548 63.2712 13.0548 62.7352 13.0548 62.2144C13.0548 59.3656 12.7809 57.2367 12.2331 55.8276C11.7157 54.4185 10.8484 53.1779 9.63113 52.1057L11.1832 49.9002C11.6701 50.3597 12.2027 50.6966 12.7809 50.9111C13.3895 51.1255 14.1808 51.294 15.1546 51.4165C16.1284 51.539 16.7827 51.6003 17.1175 51.6003C17.8479 51.6003 19.1565 51.4778 21.0433 51.2327L22.3671 51.003L23.7822 50.7732L25.2886 50.4516C26.0494 50.329 26.5972 50.2525 26.9319 50.2218C27.2667 50.1912 27.6775 50.1759 28.1644 50.1759H29.3056C33.4444 50.1759 36.6703 50.8958 38.9831 52.3355C41.296 53.7752 42.6959 55.3987 43.1828 57.206C43.6697 59.0133 43.9132 60.4071 43.9132 61.3874C43.9132 63.0415 43.5328 64.5731 42.772 65.9822C42.0112 67.3913 41.0525 68.4788 39.8961 69.2446C38.7397 70.0104 37.4159 70.5464 35.9247 70.8528C34.4335 71.1591 33.0793 71.3429 31.862 71.4042C30.6447 71.4654 29.0013 71.496 26.9319 71.496L25.1516 71.4501L23.6909 71.4042V72.7367L23.9191 75.6774C24.1321 77.6378 24.406 78.9704 24.7408 79.6749C25.106 80.3794 25.8668 81.1299 27.0232 81.9264L27.4797 82.248L26.7037 84.4536L24.8321 83.9481C22.7018 83.4274 20.7085 83.167 18.8521 83.167C18.4565 83.167 18.0609 83.167 17.6653 83.167C17.3001 83.2283 17.0414 83.2589 16.8892 83.2589C15.7328 83.2589 14.6829 83.3661 13.7395 83.5805C12.8265 83.795 11.8527 84.1013 10.818 84.4995ZM23.5083 67.3607C23.9039 67.4526 24.406 67.5445 25.0147 67.6364C25.6233 67.7283 26.1102 67.7742 26.4754 67.7742C28.8187 67.7742 30.4621 67.1922 31.4055 66.0282C32.3489 64.8335 32.8206 62.6739 32.8206 59.5494C32.8206 57.7115 32.5619 56.3177 32.0446 55.3681C31.5272 54.3878 30.8729 53.7599 30.0817 53.4842C29.2904 53.1779 28.6666 53.0247 28.2101 53.0247C26.5363 53.0247 25.3799 53.6374 24.7408 54.8626C24.1321 56.0879 23.767 57.0069 23.6452 57.6196C23.5539 58.2322 23.5083 59.1512 23.5083 60.3765L23.3713 63.501V63.8686L23.5083 67.3607Z" fill="#F8EBCB"/>
<path d="M46.9545 60.3765C46.7415 57.8034 46.4372 55.9654 46.0415 54.8626C45.6763 53.7292 45.0068 52.6724 44.033 51.6922L44.9003 49.8083C45.7829 50.2065 46.5132 50.4822 47.0914 50.6354C47.6697 50.7885 48.4913 50.8651 49.5565 50.8651H50.9716C52.7367 50.8651 54.0148 50.8192 54.8061 50.7273C55.6277 50.6047 56.4646 50.3137 57.3167 49.8543L58.4123 51.5543C57.6515 52.2589 57.0733 53.0707 56.6776 53.9896C56.282 54.878 55.9929 55.9348 55.8103 57.1601C55.6582 58.3547 55.5669 59.6107 55.5364 60.9279C55.506 62.2144 55.4908 64.1749 55.4908 66.8093V69.3365C55.4908 71.1438 55.506 72.5529 55.5364 73.5637C55.5973 74.5746 55.719 75.7693 55.9016 77.1477C56.0842 78.4956 56.2668 79.5064 56.4494 80.1803C56.6624 80.8236 57.1341 81.5741 57.8645 82.4318L58.3666 83.0292L57.408 84.5914C56.0386 83.9788 54.4256 83.5805 52.5693 83.3967C51.4128 83.3967 50.2564 83.3967 49.1 83.3967C47.6088 83.458 46.3459 83.749 45.3112 84.2698L44.1699 82.7994C44.9916 82.1561 45.5698 81.4669 45.9046 80.7317C46.2393 79.9965 46.5132 78.955 46.7263 77.6072C46.9393 76.2288 47.0762 75.2638 47.1371 74.7124C47.198 74.1304 47.2284 73.5178 47.2284 72.8745V70.3014L47.1827 66.9012L47.1371 64.9713L46.9545 60.3765Z" fill="#F8EBCB"/>
<path d="M76.4513 68.831L77.1817 69.3824L77.136 66.6714V66.2579L77.0447 64.42L76.9534 62.7658C76.923 62.2451 76.7404 61.8162 76.4057 61.4792C76.0709 61.1423 75.6905 60.9738 75.2644 60.9738C75.0514 60.9738 74.7623 61.0657 74.3971 61.2495C74.0624 61.4027 73.7428 61.6171 73.4385 61.8928C73.1646 62.1378 72.5864 62.7658 71.7039 63.7767L71.0191 64.42C69.8323 65.3696 68.691 65.8444 67.5955 65.8444C67.3825 65.8137 67.2151 65.7984 67.0934 65.7984C65.7239 65.6759 64.6283 65.1705 63.8067 64.2821C63.0154 63.3631 62.6198 62.1838 62.6198 60.7441C62.6198 60.5296 62.6198 60.3305 62.6198 60.1467C62.6502 59.9323 62.7263 59.5341 62.848 58.9521L63.2589 57.7115C64.4762 58.9061 66.0739 59.5035 68.052 59.5035C68.4172 59.5035 68.828 59.4881 69.2845 59.4575C69.7714 59.3962 70.167 59.3503 70.4713 59.3197L71.7952 59.1359C72.5864 58.9827 73.332 58.8602 74.0319 58.7683C74.7623 58.6764 75.447 58.6304 76.0861 58.6304C79.5554 58.6304 81.99 59.5341 83.3899 61.3414C84.8202 63.1487 85.5354 66.0894 85.5354 70.1635L85.4897 71.5879C85.4897 72.8745 85.4593 73.962 85.3984 74.8503C85.3376 75.7386 85.3223 76.3206 85.3528 76.5963C85.3528 78.5262 85.5506 79.9353 85.9462 80.8236C86.3418 81.712 87.0265 82.4624 88.0004 83.0751L86.7222 84.8211C85.7788 84.331 84.7289 83.9788 83.5725 83.7643C82.416 83.5805 80.9553 83.4886 79.1902 83.4886L77.7295 83.5805L77.2273 83.6265L74.6254 83.9481L73.3016 84.086H72.3886C71.08 84.086 70.1518 84.0553 69.604 83.9941C69.0562 83.9634 68.0824 83.7643 66.6825 83.3967C65.3131 82.9985 64.1566 82.3552 63.2132 81.4669C62.2698 80.5786 61.5851 79.7974 61.159 79.1235C60.7634 78.419 60.4743 77.6532 60.2917 76.8261C60.1091 75.999 60.0178 75.2026 60.0178 74.4368C60.0178 71.4654 61.083 69.4896 63.2132 68.5094C65.3739 67.4985 66.8803 66.9625 67.7324 66.9012C68.615 66.8399 69.2084 66.794 69.5127 66.7633C69.817 66.7327 70.1062 66.7174 70.3801 66.7174C71.506 66.7174 72.5255 66.8859 73.4385 67.2228C74.3515 67.5292 75.3557 68.0652 76.4513 68.831ZM69.9236 77.6991C70.0757 79.0163 70.4409 80.0425 71.0191 80.7777C71.5973 81.5128 72.2821 81.8804 73.0733 81.8804C74.1384 81.8804 74.9601 81.375 75.5383 80.3641C76.1165 79.3533 76.4057 77.5613 76.4057 74.9881C76.4057 73.9466 76.2991 73.1196 76.0861 72.5069C75.9035 71.8943 75.5536 71.3429 75.0362 70.8528C74.5493 70.332 73.9102 70.0716 73.119 70.0716C72.1147 70.0716 71.3995 70.4546 70.9735 71.2204C70.5779 71.9555 70.304 72.5988 70.1518 73.1502C69.9996 73.6709 69.9236 74.4061 69.9236 75.3557C69.8931 75.6314 69.8779 75.8918 69.8779 76.1369C69.8779 76.3819 69.8779 76.5657 69.8779 76.6882C69.8779 77.1784 69.8931 77.5153 69.9236 77.6991Z" fill="#F8EBCB"/>
<path d="M92.8452 68.3256C92.0844 66.0588 91.4149 64.3893 90.8367 63.3172C90.2584 62.2144 89.5128 61.1729 88.5999 60.1927L89.6041 58.4466L91.3844 58.9061C92.8148 59.1818 94.2146 59.3197 95.5841 59.3197C97.3796 59.3197 99.1447 59.0593 100.879 58.5385L102.249 60.0548C101.701 60.545 101.275 61.127 100.971 61.8009C100.697 62.4442 100.56 63.2253 100.56 64.1443C100.56 65.5534 100.895 67.376 101.564 69.6122L102.112 71.4042L102.431 72.3691L102.568 72.8745L103.299 75.1719L103.573 75.999L104.166 77.8829C105.505 77.8829 106.677 77.3468 107.681 76.2747C108.716 75.1719 109.476 73.8088 109.963 72.1853C110.481 70.5618 110.739 69.413 110.739 68.7391C110.739 67.8814 110.557 67.2381 110.192 66.8093C109.826 66.3804 109.34 66.166 108.731 66.166C108.274 66.166 107.879 66.3345 107.544 66.6714C107.24 66.9778 107.088 67.3913 107.088 67.9121C105.079 67.2688 104.075 65.7218 104.075 63.2712C104.105 63.0262 104.12 62.8271 104.12 62.6739C104.12 61.2648 104.531 60.1774 105.353 59.4116C106.175 58.6458 107.301 58.2628 108.731 58.2628C109.187 58.2628 109.705 58.3241 110.283 58.4466C110.892 58.5385 111.485 58.7989 112.063 59.2278C112.672 59.626 113.25 60.208 113.798 60.9738C114.346 61.709 114.726 62.4901 114.939 63.3172C115.152 64.1136 115.259 65.0173 115.259 66.0282L115.213 66.9012L115.167 67.8661C115.015 69.2446 114.772 70.4392 114.437 71.4501C114.133 72.4303 113.494 73.7169 112.52 75.3098C111.546 76.9027 110.283 78.2811 108.731 79.4452C107.209 80.6092 105.094 81.712 102.386 82.7535L101.564 83.0292L101.199 83.121L99.0534 83.6724L98.2317 83.9481C96.5579 84.5301 95.4015 85.0356 94.7624 85.4644C94.1233 85.9239 93.7125 86.3987 93.5299 86.8888C93.3473 87.379 93.256 87.7312 93.256 87.9457C93.256 88.4051 93.4082 88.8187 93.7125 89.1863C94.0168 89.5539 94.4125 89.7376 94.8994 89.7376C95.1428 89.7683 95.3254 89.7836 95.4472 89.7836C95.9645 89.7836 96.4819 89.6304 96.9992 89.3241C97.5166 89.0484 98.2621 88.497 99.236 87.67L101.564 85.7401L101.884 85.4644C101.975 85.3725 102.112 85.25 102.294 85.0968C102.477 84.9743 103.01 84.6833 103.892 84.2238C104.775 83.7643 105.718 83.5346 106.722 83.5346C106.875 83.5346 107.042 83.5499 107.224 83.5805C107.437 83.6112 107.955 83.7337 108.777 83.9481C109.629 84.1626 110.344 84.6067 110.922 85.2806C111.5 85.9545 111.926 86.9042 112.2 88.1294C112.504 89.3547 112.657 90.3809 112.657 91.208C112.657 91.4224 112.641 91.6522 112.611 91.8972C112.611 92.1729 112.565 92.5405 112.474 93L111.789 92.3108C111.15 91.79 110.526 91.4071 109.918 91.1621C109.309 90.9476 108.563 90.8404 107.681 90.8404C106.677 90.8404 105.322 91.0548 103.618 91.4837L101.838 91.9432L101.108 92.1729L98.6426 92.5865L97.3644 92.6784H96.4971C95.7363 92.6784 94.8994 92.6018 93.9864 92.4486C93.1039 92.2955 92.2822 91.79 91.5214 90.9323C90.791 90.1052 90.4258 89.125 90.4258 87.9916C90.4258 86.9807 90.7454 85.8626 91.3844 84.6374C92.0539 83.4427 93.3778 82.3706 95.3559 81.4209L96.634 80.9155L96.3145 79.6749L95.9949 78.5262L95.2646 76.1828L94.3516 73.1961L93.5299 70.3933L92.8452 68.3256Z" fill="#F8EBCB"/>
<path d="M119.707 63.8686C119.707 60.4684 119.463 57.9106 118.976 56.1952C118.49 54.4797 117.698 52.9788 116.603 51.6922L117.607 50.038C119.342 50.5894 121.152 50.8651 123.039 50.8651C124.378 50.8651 125.809 50.7273 127.33 50.4516L129.11 50.038L130.48 51.6003C129.658 52.458 129.095 53.2851 128.791 54.0815C128.487 54.878 128.334 56.0879 128.334 57.7115L128.152 60.4684V60.9738L129.704 60.2386C130.982 59.6566 131.986 59.2737 132.717 59.0899C133.477 58.8755 134.284 58.7683 135.136 58.7683C136.962 58.7683 138.651 59.2431 140.203 60.1927C141.786 61.1423 142.835 62.1225 143.353 63.1334C143.901 64.1443 144.266 64.956 144.448 65.5687C144.631 66.1813 144.722 66.7633 144.722 67.3147C144.722 68.6013 144.266 69.9185 143.353 71.2663C142.44 72.6141 140.842 74.3142 138.56 76.3666L138.012 76.872C137.616 77.1784 137.297 77.6072 137.053 78.1586C136.84 78.6794 136.734 79.1082 136.734 79.4452C136.642 80.2722 136.764 80.9155 137.099 81.375C137.434 81.8345 137.845 82.0642 138.331 82.0642C138.544 82.0642 138.849 81.9723 139.244 81.7885C139.67 81.5741 139.883 81.084 139.883 80.3182C139.883 79.92 139.731 79.5371 139.427 79.1695C139.153 78.8019 138.757 78.5721 138.24 78.4802C138.544 77.2243 139.412 76.5963 140.842 76.5963C141.451 76.5963 142.272 76.8108 143.307 77.2396C144.372 77.6378 144.905 78.664 144.905 80.3182C144.905 81.084 144.661 82.0336 144.174 83.167C143.718 84.3004 142.349 84.8671 140.066 84.8671C139.336 84.8671 138.286 84.7139 136.916 84.4076C135.547 84.1319 134.223 83.0751 132.945 81.2372C131.667 79.3686 131.028 77.5306 131.028 75.7233C131.028 73.8241 131.667 71.7717 132.945 69.5662L133.401 68.6932C134.101 67.3147 134.527 66.4264 134.68 66.0282C134.832 65.6299 134.908 65.1705 134.908 64.6497C134.908 63.9452 134.68 63.3631 134.223 62.9037C133.767 62.4442 133.204 62.2144 132.534 62.2144C132.291 62.2144 131.849 62.3063 131.21 62.4901C130.602 62.6739 130.069 63.164 129.613 63.9605C129.156 64.7569 128.867 65.4002 128.745 65.8903C128.624 66.3498 128.563 67.0084 128.563 67.8661L128.471 69.5662L128.426 70.2554V71.4501C128.426 73.2574 128.517 74.9116 128.7 76.4126C128.882 77.9135 129.095 78.9857 129.339 79.629C129.582 80.2722 130.16 81.1606 131.073 82.294L131.621 82.9832L130.799 84.4076C129.947 84.0707 129.171 83.8256 128.471 83.6724C127.802 83.4886 127.117 83.3967 126.417 83.3967C124.287 83.3967 122.644 83.4274 121.487 83.4886C120.331 83.5499 119.144 83.8562 117.927 84.4076L117.105 82.7994C117.561 82.3399 117.927 81.8958 118.2 81.4669C118.505 81.0074 118.809 80.3948 119.113 79.629C119.418 78.8631 119.616 78.1586 119.707 77.5153C119.798 76.872 119.844 75.708 119.844 74.0232V67.8661L119.798 66.3498L119.707 63.8686Z" fill="#F8EBCB"/>
<path d="M150.988 79.8127C149.801 78.4037 148.979 77.0099 148.522 75.6314C148.096 74.253 147.883 72.6754 147.883 70.8987C147.883 69.6734 148.051 68.586 148.386 67.6364C148.72 66.6561 149.359 65.4002 150.303 63.8686C151.277 62.337 152.722 61.0504 154.639 60.0089C156.587 58.9674 158.778 58.4466 161.213 58.4466C162.491 58.4466 164.119 58.6917 166.097 59.1818C168.075 59.6413 169.81 60.6981 171.301 62.3523C172.792 63.9758 173.781 65.5534 174.268 67.085C174.786 68.586 175.044 70.3626 175.044 72.415C175.044 72.9664 174.968 73.579 174.816 74.253C174.664 74.8962 174.283 76.0143 173.675 77.6072C173.066 79.2001 171.727 80.7624 169.658 82.294C167.619 83.795 165.215 84.5455 162.445 84.5455C159.95 84.5455 157.789 84.1779 155.963 83.4427C154.137 82.7075 152.479 81.4975 150.988 79.8127ZM157.652 70.4852C157.652 71.1285 157.652 71.6645 157.652 72.0934C157.652 72.4916 157.713 73.4259 157.835 74.8962C157.987 76.3666 158.139 77.4694 158.291 78.2045C158.443 78.9397 158.748 79.7515 159.204 80.6398C159.691 81.4975 160.482 81.9264 161.578 81.9264C162.369 81.9264 163.008 81.666 163.495 81.1453C164.013 80.5939 164.393 79.9659 164.636 79.2614C164.91 78.5262 165.047 77.6532 165.047 76.6423L165.184 74.1611L165.23 73.0124V68.877L165.002 66.6714L164.865 65.6146C164.682 64.1136 164.439 63.0568 164.134 62.4442C163.83 61.8315 163.358 61.3873 162.719 61.1117C162.111 60.836 161.563 60.6981 161.076 60.6981C159.646 60.6981 158.778 61.3874 158.474 62.7658C158.2 64.1136 158.033 65.0632 157.972 65.6146C157.911 66.1354 157.88 66.794 157.88 67.5904L157.698 70.2554L157.652 70.4852Z" fill="#F8EBCB"/>
<path d="M179.531 63.7767C178.74 62.4901 178.345 61.2801 178.345 60.1467C178.345 59.4422 178.451 58.8602 178.664 58.4007C179.181 58.7376 179.638 58.9827 180.034 59.1359C180.429 59.2584 180.886 59.3197 181.403 59.3197C181.981 59.3197 183.046 59.1971 184.598 58.9521C185.116 58.9521 185.633 58.9368 186.15 58.9061C187.855 58.9061 189.255 59.5494 190.35 60.836C191.446 62.1225 191.993 63.8226 191.993 65.9363C191.993 66.9778 191.887 67.9733 191.674 68.9229C191.461 69.8725 191.065 70.96 190.487 72.1853C190.335 72.5835 190.137 73.0124 189.894 73.4718C189.681 73.9007 189.468 74.2989 189.255 74.6665L187.931 76.918L187.839 77.0558C187.687 77.4541 187.611 77.8829 187.611 78.3424C187.611 78.5262 187.687 79.1695 187.839 80.2722C187.992 81.375 188.828 81.9264 190.35 81.9264C190.654 81.9264 191.08 81.8192 191.628 81.6047C192.176 81.3597 192.633 80.9308 192.998 80.3182C193.393 79.7055 193.682 78.9704 193.865 78.1126C194.078 77.2243 194.215 76.4738 194.276 75.8612C194.367 75.2485 194.413 74.5133 194.413 73.6556V70.7149C194.413 69.796 194.398 68.7851 194.367 67.6823C194.367 66.5795 194.2 65.5074 193.865 64.4659C193.561 63.3938 193.256 62.5361 192.952 61.8928C192.648 61.2495 192.206 60.6062 191.628 59.9629L192.587 58.5385C193.469 58.9368 194.352 59.1818 195.234 59.2737C196.117 59.3656 197.639 59.4116 199.799 59.4116C200.773 59.4116 201.58 59.3503 202.219 59.2278C202.858 59.0746 203.664 58.8142 204.638 58.4466L205.414 59.8251C204.623 60.5296 204.06 61.3261 203.725 62.2144C203.421 63.1028 203.162 64.5884 202.949 66.6714L202.903 67.6364L202.858 68.004L202.812 70.7149C202.812 74.0232 202.934 76.3513 203.177 77.6991C203.451 79.0163 203.725 80.0578 203.999 80.8236C204.303 81.5588 204.729 82.2327 205.277 82.8454L204.182 84.4995C203.877 84.3157 203.573 84.1625 203.269 84.04C202.995 83.9175 202.508 83.7643 201.808 83.5805C201.138 83.3661 200.438 83.2589 199.708 83.2589C199.312 83.2589 198.765 83.3048 198.065 83.3967C197.395 83.4886 196.543 83.6112 195.508 83.7643L194.367 83.9481C191.841 84.2851 189.802 84.4536 188.25 84.4536C186.029 84.4536 184.248 84.1625 182.909 83.5805C181.57 82.9985 180.414 82.0183 179.44 80.6398C178.466 79.2307 177.979 77.7297 177.979 76.1369C177.979 75.3404 178.101 74.4827 178.345 73.5637C178.618 72.6141 179.06 71.7411 179.668 70.9447C180.307 70.1482 181.007 69.4437 181.768 68.831C182.559 68.2184 183.077 67.8202 183.32 67.6364C183.564 67.4526 183.777 67.2994 183.959 67.1769L185.283 66.0741C186.044 65.4308 186.592 64.8335 186.926 64.2821C187.292 63.7307 187.474 63.2253 187.474 62.7658C187.474 62.4595 187.368 62.1838 187.155 61.9387C186.972 61.6937 186.759 61.5711 186.516 61.5711C186.424 61.5711 186.242 61.6324 185.968 61.7549C185.694 61.8775 185.42 62.0766 185.146 62.3523L185.055 62.4442L184.142 63.7307C183.442 64.711 182.635 65.2011 181.723 65.2011C180.84 65.2011 180.11 64.7263 179.531 63.7767Z" fill="#F8EBCB"/>
<path d="M214.105 74.8962C215.444 75.08 216.677 75.5855 217.803 76.4126L217.209 76.872C217.057 77.0558 216.905 77.2549 216.753 77.4694C216.631 77.6838 216.509 77.9595 216.388 78.2964C216.296 78.6334 216.251 78.955 216.251 79.2614C216.251 80.0272 216.525 80.6705 217.072 81.1912C217.62 81.712 218.183 82.003 218.761 82.0642C219.34 82.1255 219.781 82.1561 220.085 82.1561C220.237 82.1561 220.679 82.1102 221.409 82.0183C222.17 81.8958 222.839 81.5128 223.417 80.8696C224.026 80.2263 224.33 79.4452 224.33 78.5262C224.33 77.7297 224.026 77.0865 223.417 76.5963C222.839 76.0756 221.759 75.5702 220.176 75.08L218.67 74.6665L216.661 74.1611L215.429 73.8394C212.964 73.0736 211.229 72.2619 210.225 71.4042C209.251 70.5464 208.643 69.6122 208.399 68.6013C208.186 67.5904 208.08 66.794 208.08 66.212C208.08 64.8641 208.49 63.5316 209.312 62.2144C210.164 60.8972 211.138 59.9629 212.234 59.4116C213.36 58.8602 214.957 58.5845 217.027 58.5845C217.97 58.5845 218.548 58.5998 218.761 58.6304C219.005 58.6304 219.766 58.7223 221.044 58.9061L223.92 59.2737C225.228 59.4881 226.187 59.5954 226.795 59.5954C227.343 59.5954 227.8 59.5188 228.165 59.3656C228.53 59.2125 228.804 59.0746 228.987 58.9521C229.2 58.7989 229.413 58.6457 229.626 58.4926L229.808 59.5494V60.3765C229.808 60.5909 229.793 60.836 229.763 61.1117C229.732 61.3567 229.717 61.5405 229.717 61.663C229.23 64.1443 227.815 65.3849 225.472 65.3849C225.046 65.3849 224.62 65.293 224.193 65.1092C223.767 64.9254 223.189 64.5578 222.459 64.0064L222.185 63.7767L220.496 62.3523C220.344 62.1991 220.055 61.9847 219.629 61.709C219.233 61.4333 218.853 61.2342 218.487 61.1117C218.153 60.9585 217.848 60.8819 217.574 60.8819C216.479 60.8819 215.825 61.4946 215.612 62.7199C215.49 63.6082 215.718 64.3281 216.296 64.8794C216.905 65.4308 218.107 65.9975 219.903 66.5795L220.724 66.8093L223.554 67.5445L224.696 67.8661C227.495 68.6625 229.504 69.6275 230.721 70.7609C231.939 71.8636 232.547 73.3034 232.547 75.08C232.547 75.3864 232.532 75.7386 232.502 76.1369C232.471 76.5044 232.319 77.3468 232.045 78.664C231.771 79.9812 230.584 81.2984 228.484 82.6156C226.385 83.9022 223.524 84.5455 219.903 84.5455C218.716 84.5455 217.453 84.4536 216.114 84.2698C214.805 84.1166 213.71 83.9175 212.827 83.6724C211.975 83.4274 211.26 83.167 210.682 82.8913C210.103 82.6156 209.586 82.2327 209.129 81.7426C208.703 81.2525 208.369 80.747 208.125 80.2263C207.882 79.7055 207.76 79.1848 207.76 78.664C207.76 77.6838 208.156 76.7955 208.947 75.999C209.769 75.1719 210.925 74.7584 212.416 74.7584C212.903 74.7584 213.466 74.8044 214.105 74.8962Z" fill="#F8EBCB"/>
<path d="M259.857 64.6957C260.344 65.4921 260.694 66.2732 260.907 67.039C261.15 67.8048 261.272 68.6472 261.272 69.5662L257.985 70.2554L254.744 70.9906L251.594 71.7258L249.403 72.2312L248.399 72.461L246.847 72.8286L245.021 73.2421V74.6206C245.021 77.2243 245.447 79.0929 246.299 80.2263C247.151 81.329 248.247 81.8804 249.586 81.8804C250.712 81.8804 251.61 81.4669 252.279 80.6398C252.949 79.8128 253.283 78.6947 253.283 77.2856C253.283 75.8152 252.857 74.6665 252.005 73.8394C252.918 73.0124 254.014 72.5988 255.292 72.5988C256.327 72.5988 257.62 72.9664 259.172 73.7016C260.724 74.4061 261.5 75.6467 261.5 77.4234C261.5 78.0973 261.333 78.8172 260.998 79.583C260.694 80.3182 260.207 81.0534 259.537 81.7885C258.868 82.4931 258 83.0598 256.935 83.4886C255.901 83.8869 254.851 84.1319 253.785 84.2238C252.72 84.3463 252.081 84.4076 251.868 84.4076C251.686 84.4076 251.549 84.4076 251.457 84.4076C251.123 84.4076 250.788 84.3923 250.453 84.3617C250.149 84.3617 249.829 84.3617 249.495 84.3617C245.264 84.3617 241.871 83.2436 239.315 81.0074C236.759 78.7406 235.48 75.9378 235.48 72.5988C235.48 70.2095 235.8 68.1571 236.439 66.4417C237.078 64.6956 238.372 62.9496 240.319 61.2036C242.267 59.4575 244.93 58.5845 248.308 58.5845C249.403 58.5845 250.757 58.7836 252.37 59.1818C253.983 59.5494 255.414 60.1774 256.661 61.0657C257.909 61.9234 258.974 63.1334 259.857 64.6957ZM244.93 70.4392L250.681 69.1067C251.716 68.8923 252.233 67.8967 252.233 66.1201C252.233 65.9363 252.218 65.7218 252.188 65.4768C252.157 65.2317 252.112 64.7875 252.051 64.1443C251.99 63.4704 251.701 62.7964 251.184 62.1225C250.697 61.418 250.073 61.0657 249.312 61.0657C248.46 61.0657 247.684 61.5099 246.984 62.3982C246.314 63.2866 245.827 64.6191 245.523 66.3958L245.204 68.4634L244.93 70.4392Z" fill="#F8EBCB"/>
</svg>
