<svg width="344" height="251" viewBox="0 0 344 251" fill="none" xmlns="http://www.w3.org/2000/svg">
<ellipse cx="172" cy="237" rx="172" ry="14" fill="#147995"/>
<rect x="25.9992" y="42" width="292" height="197" rx="17" fill="#ECBA5D" stroke="#E69600" stroke-width="6"/>
<path d="M23.488 140.05L103.81 221.754C107.57 225.579 112.708 227.733 118.072 227.733H225.927C231.291 227.733 236.429 225.579 240.189 221.754L320.511 140.05" stroke="#231F20" stroke-width="3" stroke-linecap="round"/>
<ellipse cx="85.4998" cy="85.3824" rx="85.1188" ry="85.0084" fill="#231F20"/>
<ellipse cx="258.5" cy="85.3824" rx="85.1188" ry="85.0084" fill="#231F20"/>
<ellipse cx="115.499" cy="211.219" rx="11.5" ry="11.4851" fill="#231F20"/>
<ellipse cx="115.499" cy="211.219" rx="5.5" ry="5.49287" fill="#E69600"/>
<ellipse cx="228.499" cy="211.219" rx="11.5" ry="11.4851" fill="#231F20"/>
<ellipse cx="228.499" cy="211.219" rx="5.5" ry="5.49287" fill="#E69600"/>
<path d="M26.9992 208H50.9992C59.8358 208 66.9992 215.163 66.9992 224V238H42.9992C34.1627 238 26.9992 230.837 26.9992 222V208Z" fill="#E69600" stroke="#E69600" stroke-width="8"/>
<path d="M276.999 224C276.999 215.163 284.163 208 292.999 208H316.999V222C316.999 230.837 309.836 238 300.999 238H276.999V224Z" fill="#E69600" stroke="#E69600" stroke-width="8"/>
<rect x="135.999" y="165" width="72" height="24" rx="12" fill="#231F20"/>
</svg>
