<svg width="578" height="578" viewBox="0 0 578 578" fill="none" xmlns="http://www.w3.org/2000/svg">
<mask id="path-1-outside-1_92_127" maskUnits="userSpaceOnUse" x="0" y="0" width="578" height="578" fill="black">
<rect fill="white" width="578" height="578"/>
<path fill-rule="evenodd" clip-rule="evenodd" d="M289 575C446.953 575 575 446.953 575 289C575 131.047 446.953 3 289 3C131.047 3 3 131.047 3 289C3 446.953 131.047 575 289 575ZM246.699 35L238 167H340L331.301 35H246.699ZM246.699 543L238 411H340L331.301 543H246.699ZM411 238L543 246.699V331.301L411 340V238ZM35 246.699L167 238V340L35 331.301L35 246.699Z"/>
</mask>
<path fill-rule="evenodd" clip-rule="evenodd" d="M289 575C446.953 575 575 446.953 575 289C575 131.047 446.953 3 289 3C131.047 3 3 131.047 3 289C3 446.953 131.047 575 289 575ZM246.699 35L238 167H340L331.301 35H246.699ZM246.699 543L238 411H340L331.301 543H246.699ZM411 238L543 246.699V331.301L411 340V238ZM35 246.699L167 238V340L35 331.301L35 246.699Z" fill="#F8EBCB"/>
<path d="M238 167L235.007 166.803L234.796 170H238V167ZM246.699 35V32H243.891L243.706 34.8027L246.699 35ZM340 167V170H343.204L342.993 166.803L340 167ZM331.301 35L334.294 34.8027L334.109 32H331.301V35ZM238 411V408H234.796L235.007 411.197L238 411ZM246.699 543L243.706 543.197L243.891 546H246.699V543ZM340 411L342.993 411.197L343.204 408H340V411ZM331.301 543V546H334.109L334.294 543.197L331.301 543ZM543 246.699H546V243.891L543.197 243.706L543 246.699ZM411 238L411.197 235.007L408 234.796V238H411ZM543 331.301L543.197 334.294L546 334.109V331.301H543ZM411 340H408V343.204L411.197 342.993L411 340ZM167 238H170V234.796L166.803 235.006L167 238ZM35 246.699L34.8027 243.706L32 243.891V246.699H35ZM167 340L166.803 342.993L170 343.204V340H167ZM35 331.301H32V334.109L34.8027 334.294L35 331.301ZM572 289C572 445.297 445.297 572 289 572V578C448.61 578 578 448.61 578 289H572ZM289 6C445.297 6 572 132.703 572 289H578C578 129.39 448.61 0 289 0V6ZM6 289C6 132.703 132.703 6 289 6V0C129.39 0 0 129.39 0 289H6ZM289 572C132.703 572 6 445.297 6 289H0C0 448.61 129.39 578 289 578V572ZM240.993 167.197L249.693 35.1973L243.706 34.8027L235.007 166.803L240.993 167.197ZM340 164H238V170H340V164ZM328.307 35.1973L337.007 167.197L342.993 166.803L334.294 34.8027L328.307 35.1973ZM246.699 38H331.301V32H246.699V38ZM235.007 411.197L243.706 543.197L249.693 542.803L240.993 410.803L235.007 411.197ZM340 408H238V414H340V408ZM334.294 543.197L342.993 411.197L337.007 410.803L328.307 542.803L334.294 543.197ZM246.699 546H331.301V540H246.699V546ZM543.197 243.706L411.197 235.007L410.803 240.993L542.803 249.693L543.197 243.706ZM546 331.301V246.699H540V331.301H546ZM411.197 342.993L543.197 334.294L542.803 328.307L410.803 337.007L411.197 342.993ZM408 238V340H414V238H408ZM166.803 235.006L34.8027 243.706L35.1973 249.693L167.197 240.993L166.803 235.006ZM170 340V238H164V340H170ZM34.8027 334.294L166.803 342.993L167.197 337.007L35.1973 328.307L34.8027 334.294ZM32 246.699L32 331.301H38L38 246.699H32Z" fill="#E69600" mask="url(#path-1-outside-1_92_127)"/>
<circle cx="289" cy="289" r="91" fill="#231F20"/>
<circle cx="289" cy="289" r="67" fill="#E69600"/>
<circle cx="289" cy="289" r="40" fill="#231F20"/>
</svg>
