<svg width="271" height="95" viewBox="0 0 271 95" fill="none" xmlns="http://www.w3.org/2000/svg">
<g clip-path="url(#clip0_68_3242)">
<path fill-rule="evenodd" clip-rule="evenodd" d="M236.222 63L230.355 62.9537L230.403 56.6463L209.619 56.5115V44.5706L223.834 32H233.964L210.757 50.7032V50.9707L230.455 51.0149L230.549 42.3193H236.268L236.222 51.0149H238.869V56.6399H236.222V63ZM26.2469 42.2751C25.1865 39.4067 22.8376 37.1575 17.2314 37.1575C12.7269 37.1575 7.96164 38.1768 7.96164 41.0831C7.96164 43.9893 12.8051 44.5243 17.8941 44.5243C24.9301 44.5243 33.6219 45.4046 33.4002 53.0345C33.1829 59.3398 28.5198 62.9537 17.5095 62.9537C6.49925 62.9537 1.41458 58.0615 0 52.7249L5.70613 51.0949C6.41234 53.7842 9.5544 57.4444 17.6855 57.4444C24.4933 57.4444 27.0748 56.1219 27.2095 53.5189C27.2095 50.6969 24.5281 49.8608 19.9302 49.7281L15.5061 49.6418C8.56137 49.507 1.68185 47.9212 1.68185 41.3505C1.68185 35.1316 7.94426 32.0442 17.2748 32.0442C25.369 32.0442 30.0495 34.822 32.5267 40.6008L26.2469 42.2856V42.2751ZM79.4491 32.2632L79.5404 47.0367C79.5404 52.5122 82.5955 57.2233 89.1208 57.2233C95.6462 57.2233 98.434 52.1521 98.434 47.163L98.5253 32.2569H104.392V47.2936C104.392 55.1868 99.6248 62.9473 89.0296 62.9473C78.4343 62.9473 73.3431 54.833 73.3431 46.8977V32.2632H79.4491ZM115.52 53.2114H131.028L134.722 62.6483H140.969L129.54 32.2632H117.091L105.616 62.6483H111.815L115.52 53.2114ZM129.072 47.6537H117.508L123.206 32.9266H123.423L129.072 47.6537ZM161.449 32.1769C167.751 32.1769 172.875 37.1175 172.875 43.0248C172.875 47.8685 169.496 51.9752 165.008 53.5168L173.52 62.5999H164.963L157.973 54.5761H150.128V62.6462H144.027V32.2632L161.449 32.1769ZM150.135 49.1974H160.43C163.948 49.1974 166.732 46.3312 166.732 43.0269C166.732 39.8953 163.952 37.2923 160.43 37.2923H150.135V49.1974ZM205.175 32.2632H177.964V62.6041H205.175V56.9601H183.796V49.7724H204.712V44.7012H183.796V37.9073H205.175V32.2632ZM269.094 32H242.75V37.4755L268.123 37.6082V37.7872L249.384 40.8451V47.7675C254.896 46.9756 265.161 46.0279 265.161 51.2844C265.161 53.5568 262.365 57.2528 255.429 57.2528C249.846 57.2528 247.115 54.1802 246.144 51.3287L240.11 52.7102C241.935 59.344 248.738 62.9958 255.929 62.9958C268.195 62.9958 271.011 55.8713 271.011 53.0219C271.011 48.3887 267.565 43.7366 254.303 45.8742L254.344 45.6636L269.146 43.0101L269.094 32ZM62.5632 56.92V38.08H42.7895V56.92H62.5632ZM68.8951 56.92H65.5271C67.7096 54.2366 68.896 50.919 68.8951 47.5021C68.8951 38.9792 61.6201 32.0442 52.6785 32.0442C43.7369 32.0442 36.4597 38.9771 36.4597 47.5021C36.4597 56.0271 43.7369 62.9579 52.6785 62.9579C56.2471 62.9636 59.7193 61.8355 62.5632 59.7463V62.9579H68.8951V56.92Z" fill="#F8EBCB"/>
</g>
<path d="M8.4 18L7.488 15.472H3.024L2.096 18H0.24L4.592 6.848H5.92L10.272 18H8.4ZM3.584 13.92H6.928L5.264 9.344L3.584 13.92ZM15.8128 9.968C17.5568 9.968 18.5168 11.056 18.5168 12.992V18H16.8688V13.408C16.8688 12.48 16.6928 11.408 15.3328 11.408C13.6368 11.408 13.3488 13.04 13.3488 14.72V18H11.7008V10.112H13.3488V11.088C13.8928 10.336 14.7888 9.968 15.8128 9.968ZM24.0101 18.144C21.6261 18.144 20.1061 16.304 20.1061 14.048C20.1061 11.776 21.6261 9.968 24.0101 9.968C26.3781 9.968 27.8981 11.776 27.8981 14.048C27.8981 16.304 26.3781 18.144 24.0101 18.144ZM24.0101 16.704C25.5461 16.704 26.2501 15.488 26.2501 14.048C26.2501 12.592 25.5301 11.408 24.0101 11.408C22.4741 11.408 21.7541 12.592 21.7541 14.048C21.7541 15.504 22.4741 16.704 24.0101 16.704ZM33.5106 16.576L33.5266 17.92C33.0626 18.064 32.5986 18.144 32.1666 18.144C30.9186 18.144 29.9266 17.488 29.9266 15.904V11.44H28.6306V10.112H29.9266V8.416L31.5746 7.184V10.112H33.5106V11.44H31.5746V15.76C31.5746 16.432 31.9426 16.752 32.5666 16.752C32.8386 16.752 33.1586 16.688 33.5106 16.576ZM39.2034 9.968C40.9634 9.968 41.9234 11.04 41.9234 12.992V18H40.2754V13.408C40.2754 12.032 39.7794 11.408 38.7234 11.408C37.3794 11.408 36.7554 12.448 36.7554 14.688V18H35.1074V6.848H36.7554V11.088C37.2674 10.368 38.1314 9.968 39.2034 9.968ZM50.7924 13.856C50.7924 14.096 50.7764 14.336 50.7444 14.576H45.2084C45.2724 15.84 46.0244 16.656 47.3684 16.656C48.1364 16.656 48.7924 16.432 49.3844 15.76L50.5364 16.752C49.6404 17.728 48.6484 18.144 47.3524 18.144C44.7444 18.144 43.5604 16.256 43.5604 14.096C43.5604 11.984 44.7124 9.968 47.2244 9.968C49.6724 9.968 50.7924 11.792 50.7924 13.856ZM45.2084 13.248H49.2084V13.216C49.1764 12.096 48.3924 11.344 47.2244 11.344C45.9604 11.344 45.3204 12.272 45.2084 13.248ZM56.4314 9.968C56.9434 9.968 57.4074 10.08 57.8874 10.368L57.0874 11.808C56.7834 11.632 56.4794 11.536 56.1114 11.536C54.9274 11.536 54.2394 12.32 54.2394 13.888V18H52.5914V10.112H54.2554V11.408C54.6554 10.416 55.5674 9.968 56.4314 9.968Z" fill="#FFF5E0"/>
<path d="M222.443 89V77.848H225.931C228.379 77.848 229.691 78.952 229.691 81.032C229.691 83.144 228.363 84.296 225.931 84.296H224.139V89H222.443ZM224.139 82.712H225.755C227.275 82.712 227.963 82.184 227.963 81.064C227.963 79.928 227.291 79.432 225.755 79.432H224.139V82.712ZM235.056 80.968C235.568 80.968 236.032 81.08 236.512 81.368L235.712 82.808C235.408 82.632 235.104 82.536 234.736 82.536C233.552 82.536 232.864 83.32 232.864 84.888V89H231.216V81.112H232.88V82.408C233.28 81.416 234.192 80.968 235.056 80.968ZM240.401 89.144C238.017 89.144 236.497 87.304 236.497 85.048C236.497 82.776 238.017 80.968 240.401 80.968C242.769 80.968 244.289 82.776 244.289 85.048C244.289 87.304 242.769 89.144 240.401 89.144ZM240.401 87.704C241.937 87.704 242.641 86.488 242.641 85.048C242.641 83.592 241.921 82.408 240.401 82.408C238.865 82.408 238.145 83.592 238.145 85.048C238.145 86.504 238.865 87.704 240.401 87.704ZM246.012 79.576V77.848H247.772V79.576H246.012ZM245.98 92.408C245.628 92.408 245.212 92.328 244.796 92.184V90.856C245.036 90.936 245.26 90.968 245.452 90.968C245.836 90.968 246.076 90.776 246.076 90.344V81.112H247.708V90.44C247.708 91.8 246.988 92.408 245.98 92.408ZM256.761 84.856C256.761 85.096 256.745 85.336 256.713 85.576H251.177C251.241 86.84 251.993 87.656 253.337 87.656C254.105 87.656 254.761 87.432 255.353 86.76L256.505 87.752C255.609 88.728 254.617 89.144 253.321 89.144C250.713 89.144 249.529 87.256 249.529 85.096C249.529 82.984 250.681 80.968 253.193 80.968C255.641 80.968 256.761 82.792 256.761 84.856ZM251.177 84.248H255.177V84.216C255.145 83.096 254.361 82.344 253.193 82.344C251.929 82.344 251.289 83.272 251.177 84.248ZM261.616 89.144C259.136 89.144 257.888 87.192 257.888 85.08C257.888 83 259.088 80.968 261.6 80.968C263.12 80.968 264.336 81.704 264.944 83.24L263.376 83.848C263.12 82.968 262.464 82.408 261.6 82.408C260.16 82.408 259.568 83.704 259.568 85.08C259.568 86.456 260.144 87.704 261.616 87.704C262.448 87.704 263.12 87.16 263.36 86.28L264.864 86.856C264.336 88.328 263.136 89.144 261.616 89.144ZM270.433 87.576L270.449 88.92C269.985 89.064 269.521 89.144 269.089 89.144C267.841 89.144 266.849 88.488 266.849 86.904V82.44H265.553V81.112H266.849V79.416L268.497 78.184V81.112H270.433V82.44H268.497V86.76C268.497 87.432 268.865 87.752 269.489 87.752C269.761 87.752 270.081 87.688 270.433 87.576Z" fill="#FFF5E0"/>
<defs>
<clipPath id="clip0_68_3242">
<rect width="271" height="31" fill="white" transform="translate(0 32)"/>
</clipPath>
</defs>
</svg>
