<svg width="253" height="791" viewBox="0 0 253 791" fill="none" xmlns="http://www.w3.org/2000/svg">
<path d="M250.482 36.1866C234.132 15.3946 174.092 0 126.268 0C78.4443 0 18.4043 15.3946 2.06423 36.1866C1.34213 37.0966 0.819456 38.1482 0.53013 39.2732C0.240804 40.3982 0.191301 41.5715 0.384821 42.7169C0.578341 43.8622 1.01056 44.9541 1.65343 45.9217C2.29631 46.8892 3.13548 47.7108 4.11647 48.3331C7.84161 50.6768 12.695 55.3156 17.2663 64.496C18.9897 67.7984 21.0776 70.8973 23.4911 73.7347C24.5869 74.8175 25.6698 75.9844 26.7397 77.2357C29.8132 80.1532 33.0617 82.2052 35.9115 82.2149C46.6103 82.2149 51.6582 85.1324 47.2523 87.0774C42.7809 89.3543 38.1936 91.396 33.5091 93.1944C32.8605 93.4494 32.2733 93.8389 31.7863 94.3374C31.2992 94.8358 30.9234 95.4318 30.6835 96.0861C30.4437 96.7403 30.3452 97.438 30.3947 98.1331C30.4442 98.8282 30.6405 99.5049 30.9706 100.119C31.7058 101.25 32.147 102.547 32.2544 103.892C32.0599 107.869 29.2296 112.304 34.6179 117.692C36.2325 119.306 39.9479 121.766 41.2901 124.305C42.6323 126.843 41.2901 129.799 36.6896 130.82C32.0891 131.841 35.717 134.798 35.6586 136.12C35.6002 137.443 33.1979 139.33 33.1979 139.33C33.1979 139.33 38.1972 142.169 34.4234 145.165C32.5365 146.682 40.8524 158.488 29.4144 160.851C21.0207 162.592 17.3247 167.367 16.7703 170.683C16.2159 173.999 21.7793 174.573 23.5786 176.917C24.1158 177.635 24.4363 178.492 24.5026 179.387C24.5726 180.436 24.8625 181.459 25.3534 182.389C25.8444 183.318 26.5255 184.135 27.3524 184.784C38.0513 192.856 71.1204 220.864 75.8376 260.727C81.508 308.379 72.8128 352.939 75.8376 370.327C78.8625 387.715 89.4543 418.329 87.1784 425.506C85.8848 429.591 81.2843 429.027 77.5689 427.782C77.1385 427.641 76.6772 427.624 76.2376 427.733C75.7981 427.843 75.3982 428.073 75.0836 428.399C74.7691 428.725 74.5525 429.132 74.4588 429.575C74.3651 430.018 74.398 430.479 74.5538 430.904C76.003 434.891 77.7051 440.298 77.919 444.217C78.1525 448.642 73.0559 452.085 69.3308 454.02C68.1586 454.624 67.1626 455.52 66.4399 456.623C65.7172 457.726 65.2924 458.997 65.2069 460.312C63.0695 488.588 56.5837 516.364 45.9781 542.663C27.4497 587.641 18.132 645.962 46.5422 680.048C47.4468 681.137 44.597 688.295 32.8186 695.52C32.0094 696.025 31.3186 696.698 30.7934 697.494C30.2681 698.29 29.9207 699.19 29.7749 700.133C29.629 701.075 29.6881 702.038 29.9482 702.956C30.2082 703.873 30.6631 704.724 31.2818 705.449C35.9698 710.954 43.0797 714.756 56.356 716.021C74.4565 717.742 75.6334 716.147 76.7811 721.855C77.8218 727.039 74.5441 727.185 46.9216 733.525C38.168 735.558 34.1899 736.676 18.2778 737.872C8.01668 738.641 3.1633 750.418 5.80883 755.825C16.1964 777.084 77.7829 791 126.297 791C174.812 791 236.398 777.084 246.786 755.825C249.431 750.418 244.578 738.641 234.317 737.872C218.405 736.676 214.456 735.558 205.673 733.525C178.051 727.146 174.773 727 175.813 721.855C176.951 716.186 178.128 717.781 196.239 716.021C209.515 714.756 216.664 710.954 221.313 705.449C221.931 704.724 222.386 703.873 222.646 702.956C222.906 702.038 222.966 701.075 222.82 700.133C222.674 699.19 222.326 698.29 221.801 697.494C221.276 696.698 220.585 696.025 219.776 695.52C208.036 688.295 205.187 681.137 206.052 680.048C234.463 645.962 225.145 587.661 206.616 542.663C196.001 516.389 189.499 488.635 187.339 460.38C187.254 459.065 186.829 457.794 186.106 456.691C185.383 455.588 184.387 454.692 183.215 454.088C179.461 452.143 174.393 448.71 174.627 444.285C174.841 440.395 176.572 434.959 177.992 430.972C178.148 430.547 178.181 430.086 178.087 429.643C177.993 429.2 177.777 428.793 177.462 428.467C177.148 428.141 176.748 427.911 176.308 427.802C175.869 427.692 175.407 427.709 174.977 427.85C171.262 429.095 166.661 429.659 165.368 425.574C163.101 418.397 173.683 387.783 176.708 370.395C179.733 353.007 171.038 308.408 176.708 260.795C181.455 220.922 214.534 192.924 225.194 184.852C226.022 184.204 226.705 183.389 227.196 182.458C227.687 181.528 227.976 180.505 228.043 179.455C228.114 178.561 228.434 177.705 228.967 176.985C230.767 174.622 236.34 174.067 235.776 170.751C235.212 167.435 231.506 162.66 223.132 160.919C211.693 158.556 220.009 146.75 218.123 145.233C214.358 142.218 219.348 139.398 219.348 139.398C219.348 139.398 216.985 137.511 216.887 136.188C216.79 134.866 220.525 131.929 215.856 130.888C211.188 129.848 209.884 126.998 211.256 124.373C212.627 121.747 216.313 119.374 217.928 117.76C223.316 112.372 220.486 107.937 220.292 103.96C220.399 102.615 220.84 101.318 221.575 100.187C221.906 99.573 222.102 98.8962 222.151 98.2012C222.201 97.5061 222.102 96.8084 221.862 96.1541C221.623 95.4999 221.247 94.9039 220.76 94.4054C220.273 93.907 219.685 93.5175 219.037 93.2625C214.352 91.4641 209.765 89.4223 205.294 87.1455C200.888 85.2005 205.955 82.283 216.634 82.283C219.494 82.283 222.733 80.2407 225.806 77.3038C226.876 76.046 227.959 74.879 229.055 73.8028C231.468 70.9653 233.556 67.8664 235.28 64.5641C239.861 55.3156 244.724 50.6768 248.42 48.3331C249.4 47.7106 250.239 46.8891 250.882 45.9219C251.525 44.9547 251.958 43.8633 252.152 42.7183C252.346 41.5733 252.298 40.4003 252.01 39.2752C251.723 38.15 251.202 37.0978 250.482 36.1866Z" fill="#20A4CA"/>
</svg>
