<svg width="218" height="844" viewBox="0 0 218 844" fill="none" xmlns="http://www.w3.org/2000/svg">
<path d="M108.863 843.996C172.955 843.996 200.235 826.823 200.235 825.12C200.235 823.417 197.751 823.02 192.219 815.395C186.688 807.77 198.109 807.004 203.474 804.335C221.001 795.572 214.537 790.032 207.101 782.976C195.744 772.182 181.731 772.299 184.209 763.718C190.958 740.367 186.496 709.945 184.592 701.555C182.688 693.164 182.3 683.817 183.257 668.37C184.214 652.924 185.544 602.395 185.711 588.283C185.878 574.172 187.998 537.366 186.285 528.598C184.572 519.83 185.137 518.108 186.472 512.578C190.678 495.164 184.185 489.124 172.356 480.924C160.527 472.725 166.638 460.522 168.351 451.941C170.064 443.359 169.755 432.863 167.207 432.108C151.187 427.338 152.33 419.522 153.283 414.502C154.235 409.483 156.272 402.295 159.325 388.315C162.377 374.336 171.404 305.426 172.42 293.479C173.436 281.531 181.961 262.076 181.961 262.076C179.669 254.828 178.908 245.04 183.61 224.446C188.313 203.853 202.306 187.455 211.337 176.012C220.368 164.57 220.108 145.63 208.598 140.164C197.088 134.698 175.664 137.112 174.52 133.785C173.377 130.458 168.223 126.351 165.048 125.139C161.872 123.927 164.218 119.04 164.218 119.04C158.181 117.961 158.328 115.355 159.707 114.134C161.087 112.912 161.042 109.875 158.181 109.497C155.405 109.093 152.656 108.529 149.945 107.809C147.751 107.24 148.325 101.71 149.454 97.3233C152.968 83.8593 142.97 80.1498 140.128 76.2539C137.287 72.3579 139.937 65.8271 136.948 64.3649C133.959 62.9027 123.975 55.5917 128.746 42.6282C133.517 29.6647 146.612 26.544 146.612 26.544C146.612 26.544 144.649 25.6559 145.405 17.712C146.161 9.76802 155.388 8.38923 153.096 6.4609C146.789 1.22544 108.863 0.577759 108.863 0.577759C108.863 0.577759 70.9323 1.22544 64.6105 6.51487C62.3232 8.41867 71.5409 9.81708 72.3017 17.7659C73.0624 25.7148 71.0943 26.598 71.0943 26.598C71.0943 26.598 84.1943 29.7138 88.9602 42.6822C93.7261 55.6506 83.7476 62.942 80.7585 64.414C77.7694 65.886 80.4395 72.4217 77.5829 76.3029C74.7263 80.1841 64.7234 83.9083 68.2573 97.3723C69.4009 101.759 69.9752 107.289 67.7665 107.858C65.0573 108.578 62.3091 109.141 59.5354 109.546C56.6739 109.924 56.5904 112.981 58.0089 114.183C59.4274 115.385 59.5354 118 53.4933 119.089C53.4933 119.089 55.8444 123.996 52.6639 125.188C49.4833 126.381 44.3199 130.532 43.191 133.834C42.0621 137.136 20.6131 134.727 9.11317 140.213C-2.38681 145.698 -2.66658 164.619 6.37928 176.061C15.4251 187.504 29.3939 203.902 34.1009 224.495C38.8079 245.089 38.0275 254.878 35.755 262.125C35.755 262.125 44.2708 281.575 45.2917 293.528C46.3126 305.48 55.3389 374.38 58.3869 388.364C61.4349 402.349 63.4767 409.527 64.4289 414.552C65.3811 419.576 66.5247 427.387 50.5042 432.157C47.9569 432.912 47.6427 443.408 49.3606 451.99C51.0785 460.572 57.1794 472.774 45.3555 480.974C33.5316 489.173 27.0331 495.203 31.2395 512.627C32.5745 518.157 33.1438 519.874 31.4309 528.647C29.7179 537.42 31.8088 574.221 32.0002 588.332C32.1917 602.444 33.5267 652.978 34.4543 668.419C35.382 683.861 35.0286 693.213 33.1193 701.604C31.21 709.994 26.7386 740.416 33.5021 763.767C35.9563 772.348 21.9727 772.255 10.6151 783.025C3.17421 790.081 -3.28992 795.621 14.2374 804.384C19.5775 807.054 31.0235 807.819 25.4919 815.444C19.9603 823.069 17.4817 823.452 17.4817 825.169C17.4817 826.886 44.7714 843.996 108.863 843.996Z" fill="#171717"/>
</svg>
