<svg width="204" height="791" viewBox="0 0 204 791" fill="none" xmlns="http://www.w3.org/2000/svg">
<path d="M197.73 735.952C196.357 735.65 195.042 735.31 193.862 734.931C192.412 734.464 192.093 725.498 192.083 718.059C192.079 717.178 191.9 716.306 191.556 715.495C191.211 714.684 190.709 713.951 190.078 713.339C189.447 712.727 188.7 712.249 187.882 711.932C187.063 711.615 186.19 711.467 185.314 711.495C183.09 711.567 180.808 711.606 178.468 711.612C174.464 711.612 178.97 705.068 176.717 689.947C174.464 674.826 160.704 611.094 180.759 546.681C190.748 514.591 190.487 461.624 186.233 454.885C184.357 451.91 176.302 450.383 175.712 445.822C174.638 437.508 181.175 415.746 185.536 386.729C186.525 380.265 184.994 373.667 181.262 368.311C178.835 364.84 176.64 361.32 174.658 357.829C163.397 337.801 157.204 315.298 156.623 292.298C155.917 268.59 155.821 226.913 162.087 197.867C162.773 190.437 164.678 183.281 168.691 177.67C171.413 173.811 175.14 170.783 179.464 168.918C185.266 166.399 189.23 167.946 189.733 161.858C190.236 155.771 191.986 154.079 193.243 152.795C194.5 151.512 194.491 150.53 190.99 148.76C187.49 146.99 175.953 145.988 169.939 127.6C168.946 124.569 168.177 121.468 167.637 118.323C167.4 116.877 166.653 115.565 165.533 114.627C164.412 113.689 162.993 113.189 161.536 113.218C154.438 113.374 150.019 112.469 147.243 110.554C141.383 106.538 162.116 102.133 165.964 96.9399C169.813 91.7472 166.931 62.779 170.741 57.421C172.675 54.7663 192.441 49.7681 200.718 47.7747C201.785 47.5125 202.713 46.8497 203.309 45.9222C203.906 44.9946 204.128 43.8727 203.929 42.7862C199.355 18.4759 155.076 0 101.998 0C48.9192 0 4.65007 18.4759 0.0761768 42.7862C-0.130933 43.8784 0.0879948 45.0089 0.687548 45.9431C1.2871 46.8774 2.22127 47.5437 3.29627 47.8038C11.5834 49.7487 31.3392 54.7955 33.2731 57.4502C37.1411 62.8082 34.2401 91.8056 38.0501 96.9691C41.8601 102.133 62.6408 106.547 56.7808 110.583C53.9959 112.528 49.5864 113.403 42.4886 113.247C41.0295 113.216 39.6082 113.715 38.4855 114.653C37.3629 115.591 36.6143 116.904 36.3772 118.352C35.8376 121.497 35.0684 124.598 34.0758 127.629C28.0417 146.008 16.5441 147.019 13.0339 148.779C9.52373 150.539 9.52373 151.551 10.7808 152.815C12.0379 154.079 13.7882 155.839 14.2813 161.878C14.7745 167.916 18.7972 166.419 24.5605 168.937C28.8795 170.805 32.6033 173.833 35.3232 177.689C39.3265 183.319 41.2315 190.457 41.9181 197.886C48.1842 226.932 48.0875 268.61 47.3816 292.317C46.8104 315.315 40.6272 337.818 29.3762 357.848C27.3938 361.339 25.1891 364.859 22.7619 368.331C19.0346 373.689 17.5038 380.285 18.4878 386.748C22.8586 415.765 29.3858 437.528 28.3125 445.842C27.7226 450.402 19.6675 451.929 17.7915 454.905C13.5464 461.644 13.2853 514.621 23.2744 546.701C43.3202 611.094 29.5696 674.855 27.3165 689.947C25.0634 705.039 29.5696 711.641 25.5565 711.612C23.2164 711.612 20.9343 711.573 18.7102 711.495C17.8336 711.466 16.9599 711.613 16.1411 711.929C15.3223 712.245 14.5749 712.724 13.9436 713.336C13.3122 713.948 12.8096 714.682 12.4656 715.493C12.1216 716.305 11.9433 717.177 11.9412 718.059C11.9412 725.498 11.6028 734.464 10.1523 734.931C8.93386 735.31 7.61875 735.65 6.28429 735.952C4.65422 736.283 3.1873 737.168 2.13053 738.459C1.07376 739.75 0.491685 741.368 0.482315 743.041V743.177C0.482315 769.587 45.9311 791 102.017 791C158.103 791 203.551 769.607 203.551 743.177V743.041C203.541 741.366 202.956 739.746 201.896 738.454C200.835 737.162 199.364 736.279 197.73 735.952Z" fill="#D62400"/>
</svg>
