<svg width="367" height="868" viewBox="0 0 367 868" fill="none" xmlns="http://www.w3.org/2000/svg">
<path d="M183.023 867.015C229.077 867.015 255.233 855.577 260.003 850.234C264.774 844.89 264.391 839.174 257.333 833.644C250.275 828.114 253.898 813.036 258.86 807.904C263.822 802.771 264.961 801.608 256.568 795.701C243.423 786.437 245.313 772.242 246.26 760.421C247.208 748.601 254.079 725.525 254.271 705.123C254.462 684.721 242.761 666.792 242.761 666.792C246.324 659.8 249.755 652.175 249.632 631.326C249.51 610.477 244.292 592.676 243.531 589.879C242.771 587.082 239.335 585.811 234.5 583.01C229.666 580.208 229.033 577.671 234.01 568.01C238.986 558.349 239.227 542.333 239.355 532.034C239.482 521.735 235.536 498.6 232.866 470.249C230.196 441.898 233.887 413.424 234.392 401.854C234.898 390.284 236.046 384.681 227.143 374.907C215.702 362.321 215.191 355.456 214.809 345.54C214.426 335.624 218.622 306.257 222.568 284.137C226.515 262.018 239.86 213.137 242.201 204.619C244.543 196.101 247.159 194.134 261.78 185.042C276.402 175.95 274.542 175.317 286.39 165.209C298.239 155.101 311.059 155.93 314.681 154.414C318.303 152.898 317.229 149.267 314.809 146.342C312.389 143.418 313.601 137.128 313.601 137.128C313.601 137.128 310.789 134.488 310.215 130.72C309.64 126.951 314.269 123.286 314.269 123.286C312.751 121.348 311.5 119.216 310.548 116.946C308.786 112.893 312.315 110.077 314.411 109.174C316.507 108.271 322.996 107.315 325.288 100.592C327.58 93.8702 315.962 87.6239 315.653 87.2903C315.344 86.9566 314.843 81.942 315.108 79.1991C317.209 59.1552 340.67 48.4341 340.67 48.4341C341.161 44.7491 343.213 38.7728 349.063 36.4863C354.914 34.1997 376.913 26.6728 359.371 18.5621C322.431 1.42785 218.735 0 183.023 0C147.311 0 43.6145 1.42785 6.66539 18.5621C-10.8864 26.6974 11.1122 34.1948 16.9727 36.4863C22.8331 38.7777 24.8504 44.7491 25.3559 48.4341C25.3559 48.4341 48.8172 59.1552 50.918 79.1991C51.2026 81.9322 50.7265 86.937 50.3928 87.2707C50.059 87.6043 38.4707 93.8505 40.7383 100.587C43.0059 107.324 49.5142 108.262 51.6149 109.169C53.7156 110.077 57.2397 112.889 55.4777 116.941C54.526 119.211 53.2747 121.343 51.7573 123.281C51.7573 123.281 56.3808 126.951 55.8115 130.715C55.2421 134.478 52.4248 137.123 52.4248 137.123C52.4248 137.123 53.6322 143.413 51.2174 146.338C48.8025 149.262 47.7178 152.883 51.345 154.409C54.9721 155.935 67.8121 155.111 79.636 165.204C91.4599 175.297 89.6193 175.95 104.246 185.037C118.872 194.124 121.474 196.096 123.83 204.615C126.186 213.133 139.536 262.023 143.463 284.133C147.389 306.242 151.635 335.619 151.252 345.53C150.869 355.442 150.359 362.311 138.918 374.897C130.014 384.71 131.158 390.279 131.668 401.844C132.179 413.409 135.865 441.893 133.195 470.239C130.524 498.585 126.583 521.725 126.706 532.024C126.829 542.323 127.089 558.339 132.051 568C137.013 577.661 136.375 580.203 131.56 583C126.745 585.797 123.295 587.068 122.529 589.869C121.763 592.671 116.556 610.477 116.428 631.316C116.3 652.155 119.731 659.775 123.3 666.782C123.3 666.782 111.598 684.706 111.79 705.113C111.981 725.52 118.848 748.586 119.8 760.412C120.752 772.237 122.652 786.417 109.493 795.691C101.1 801.579 102.243 802.747 107.201 807.894C112.158 813.041 115.785 828.105 108.727 833.634C101.669 839.164 101.291 844.885 106.057 850.224C110.823 855.562 136.969 867.015 183.023 867.015Z" fill="#171717"/>
</svg>
