<svg width="105" height="164" viewBox="0 0 105 164" fill="none" xmlns="http://www.w3.org/2000/svg">
<path d="M85.216 42.4656L86.7702 42.655C86.7735 42.6278 86.7761 42.6005 86.778 42.5732L85.216 42.4656ZM102.596 1.87499L103.858 2.80191C104.207 2.32624 104.259 1.69447 103.993 1.16787C103.726 0.641268 103.186 0.309335 102.596 0.309335V1.87499ZM84.998 48.7908L86.5634 48.7636L84.998 48.7908ZM78.5645 65.2307L77.4315 64.1502L78.5645 65.2307ZM69.966 73.252L68.9386 72.0706L69.966 73.252ZM62.6867 83.7005L61.2151 84.2351L62.6867 83.7005ZM67.8904 88.6472L68.709 87.3126L68.7089 87.3126L67.8904 88.6472ZM72.5567 93.7945L74.1206 93.7201L72.5567 93.7945ZM71.3236 98.8566L69.9339 98.1356L71.3236 98.8566ZM70.411 102.17L68.8493 102.282L70.411 102.17ZM75.5606 107.325L75.7611 108.877C76.4595 108.787 77.0117 108.242 77.1107 107.545C77.2097 106.848 76.831 106.17 76.1854 105.889L75.5606 107.325ZM71.4839 115.271L70.0123 115.806C70.0328 115.862 70.0564 115.917 70.0832 115.971L71.4839 115.271ZM72.818 116.524L71.9799 117.847H71.9799L72.818 116.524ZM75.1315 125.15L73.5763 124.969L75.1315 125.15ZM80.9247 143.405L81.675 142.031H81.675L80.9247 143.405ZM99.8065 161.875V163.441C100.671 163.441 101.372 162.74 101.372 161.875H99.8065ZM52.6023 161.875L52.6022 163.441H52.6023V161.875ZM52.3875 161.875L52.3877 160.309H52.3875V161.875ZM5.18339 161.875H3.61774C3.61774 162.29 3.78269 162.688 4.07631 162.982C4.36992 163.276 4.76815 163.441 5.18339 163.441L5.18339 161.875ZM29.8584 125.15L28.3032 125.331L29.8584 125.15ZM32.1719 116.524L33.0099 117.847H33.0099L32.1719 116.524ZM33.506 115.271L34.9066 115.971C34.9334 115.917 34.9571 115.862 34.9776 115.806L33.506 115.271ZM29.4293 107.325L28.8045 105.889C28.1588 106.17 27.7802 106.848 27.8792 107.545C27.9781 108.242 28.5304 108.787 29.2287 108.877L29.4293 107.325ZM34.5788 102.17L33.0172 102.059L34.5788 102.17ZM33.6663 98.8566L32.2765 99.5776L33.6663 98.8566ZM32.4332 93.7945L33.9971 93.8689L32.4332 93.7945ZM37.0994 88.6472L36.2809 87.3126L37.0994 88.6472ZM42.3032 83.7005L43.7747 84.2351L42.3032 83.7005ZM35.0239 73.252L36.0513 72.0706L35.0239 73.252ZM26.4254 65.2307L25.2923 66.3112L26.4254 65.2307ZM19.9919 48.7908L18.4265 48.7636L19.9919 48.7908ZM19.7738 42.4656L18.2119 42.5732C18.2138 42.6005 18.2164 42.6278 18.2197 42.655L19.7738 42.4656ZM2.39404 1.875L2.39404 0.309344C1.80381 0.309344 1.26374 0.641277 0.997168 1.16788C0.730594 1.69448 0.782823 2.32625 1.13226 2.80192L2.39404 1.875ZM52.3875 1.87499V0.309335V1.87499ZM86.778 42.5732C87.2728 35.3912 90.1789 27.2797 93.6913 19.9822C97.193 12.7073 101.23 6.37915 103.858 2.80191L101.334 0.948071C98.5978 4.67285 94.4596 11.1662 90.8699 18.6241C87.291 26.0596 84.1892 34.5923 83.6541 42.358L86.778 42.5732ZM86.5634 48.7636C86.5299 46.8405 86.4977 44.8913 86.7702 42.655L83.6619 42.2762C83.36 44.7543 83.3992 46.9038 83.4326 48.8181L86.5634 48.7636ZM79.6975 66.3112C83.1116 62.7313 84.9011 59.729 85.787 56.8436C86.6653 53.983 86.6087 51.3616 86.5634 48.7636L83.4326 48.8181C83.4788 51.4688 83.505 53.6074 82.7936 55.9245C82.0898 58.2168 80.6168 60.8101 77.4315 64.1502L79.6975 66.3112ZM70.9933 74.4335C73.5548 72.2062 76.5992 69.5601 79.6975 66.3112L77.4315 64.1502C74.4467 67.28 71.5057 69.8384 68.9386 72.0706L70.9933 74.4335ZM64.1582 83.1659C63.8693 82.3707 64.0277 81.4378 65.2371 79.919C66.4598 78.3836 68.4328 76.6599 70.9933 74.4335L68.9386 72.0706C66.4657 74.2208 64.2305 76.1563 62.7876 77.9684C61.3314 79.7971 60.3669 81.9002 61.2151 84.2351L64.1582 83.1659ZM68.7089 87.3126C67.6178 86.6434 66.6292 86.0333 65.8068 85.335C64.9978 84.6481 64.4436 83.9513 64.1582 83.1659L61.2151 84.2351C61.7503 85.7083 62.7276 86.8284 63.7801 87.722C64.8192 88.6042 66.0223 89.3382 67.0719 89.9819L68.7089 87.3126ZM74.1206 93.7201C74.0389 92.004 73.1729 90.7203 72.1337 89.7379C71.1318 88.7908 69.8407 88.0067 68.709 87.3126L67.0719 89.9819C68.2778 90.7215 69.2638 91.3339 69.9826 92.0134C70.6642 92.6577 70.9624 93.2307 70.9928 93.8689L74.1206 93.7201ZM72.7133 99.5776C73.389 98.2754 74.2576 96.5998 74.1206 93.7201L70.9928 93.8689C71.0899 95.9089 70.533 96.9808 69.9339 98.1356L72.7133 99.5776ZM71.9727 102.059C71.9097 101.176 72.179 100.608 72.7133 99.5776L69.9339 98.1356C69.4058 99.1534 68.7173 100.431 68.8493 102.282L71.9727 102.059ZM76.1854 105.889C75.4726 105.579 74.3662 104.967 73.4455 104.187C72.4672 103.358 72.0119 102.607 71.9727 102.059L68.8493 102.282C68.9819 104.139 70.2788 105.608 71.4212 106.576C72.621 107.592 74.0036 108.355 74.9358 108.76L76.1854 105.889ZM72.9554 114.736C72.0686 112.295 72.5554 110.985 73.1381 110.261C73.8094 109.426 74.9166 108.986 75.7611 108.877L75.3601 105.772C73.9874 105.949 72.0264 106.648 70.6986 108.297C69.2823 110.057 68.8393 112.577 70.0123 115.806L72.9554 114.736ZM73.656 115.202C73.0702 114.831 72.9601 114.723 72.8845 114.571L70.0832 115.971C70.6038 117.013 71.4874 117.535 71.9799 117.847L73.656 115.202ZM76.6867 125.331C77.0849 121.903 76.8895 119.651 76.238 118.072C75.5403 116.381 74.3982 115.672 73.656 115.202L71.9799 117.847C72.6391 118.264 73.041 118.534 73.3435 119.267C73.6921 120.111 73.9528 121.728 73.5763 124.969L76.6867 125.331ZM81.675 142.031C78.454 140.272 77.071 138.351 76.4936 135.928C75.872 133.32 76.1431 130.01 76.6867 125.331L73.5763 124.969C73.047 129.525 72.6744 133.41 73.4475 136.654C74.2648 140.083 76.3148 142.672 80.1745 144.779L81.675 142.031ZM101.372 161.875C101.372 159.979 100.398 158.035 99.1228 156.263C97.8156 154.446 96.0299 152.59 94.0656 150.83C90.1361 147.309 85.3159 144.019 81.675 142.031L80.1745 144.779C83.6142 146.657 88.2349 149.81 91.9761 153.162C93.8472 154.838 95.4543 156.525 96.5811 158.091C97.74 159.702 98.2408 160.979 98.2408 161.875H101.372ZM52.6023 163.441L99.8065 163.441V160.309L52.6023 160.309V163.441ZM52.6024 160.309L52.3877 160.309L52.3874 163.441L52.6022 163.441L52.6024 160.309ZM52.3875 160.309L5.18339 160.309L5.18339 163.441L52.3875 163.441V160.309ZM6.74905 161.875C6.74905 160.979 7.24987 159.702 8.40879 158.091C9.53562 156.526 11.1427 154.838 13.0138 153.162C16.755 149.81 21.3757 146.657 24.8154 144.779L23.3149 142.031C19.674 144.019 14.8538 147.309 10.9243 150.83C8.95998 152.59 7.17426 154.446 5.8671 156.263C4.59205 158.035 3.61774 159.979 3.61774 161.875H6.74905ZM24.8154 144.779C28.6751 142.672 30.7251 140.083 31.5423 136.654C32.3154 133.41 31.9428 129.525 31.4136 124.97L28.3032 125.331C28.8468 130.01 29.1179 133.32 28.4963 135.928C27.9189 138.351 26.5359 140.272 23.3149 142.031L24.8154 144.779ZM31.4136 124.97C31.0371 121.728 31.2978 120.111 31.6464 119.267C31.9489 118.534 32.3508 118.264 33.0099 117.847L31.3338 115.202C30.5917 115.672 29.4495 116.381 28.7519 118.072C28.1004 119.651 27.905 121.903 28.3032 125.331L31.4136 124.97ZM33.0099 117.847C33.5025 117.535 34.3861 117.013 34.9066 115.971L32.1054 114.571C32.0298 114.723 31.9196 114.831 31.3338 115.202L33.0099 117.847ZM34.9776 115.806C36.1506 112.577 35.7076 110.057 34.2913 108.297C32.9635 106.648 31.0024 105.949 29.6298 105.772L29.2287 108.877C30.0733 108.987 31.1805 109.426 31.8518 110.261C32.4345 110.985 32.9213 112.295 32.0345 114.736L34.9776 115.806ZM30.054 108.76C30.9863 108.355 32.3689 107.592 33.5687 106.576C34.7111 105.608 36.008 104.139 36.1405 102.282L33.0172 102.059C32.978 102.607 32.5227 103.358 31.5444 104.187C30.6237 104.967 29.5173 105.579 28.8045 105.889L30.054 108.76ZM36.1405 102.282C36.2726 100.431 35.5841 99.1534 35.056 98.1356L32.2765 99.5776C32.8109 100.608 33.0802 101.176 33.0172 102.059L36.1405 102.282ZM35.056 98.1356C34.4569 96.9808 33.9 95.9089 33.9971 93.8689L30.8693 93.7201C30.7323 96.5998 31.6009 98.2754 32.2765 99.5776L35.056 98.1356ZM33.9971 93.8689C34.0274 93.2308 34.3257 92.6577 35.0072 92.0134C35.726 91.3339 36.7121 90.7215 37.918 89.9819L36.2809 87.3126C35.1492 88.0067 33.8581 88.7908 32.8561 89.7379C31.817 90.7203 30.9509 92.004 30.8693 93.7201L33.9971 93.8689ZM37.918 89.9819C38.9676 89.3382 40.1707 88.6042 41.2098 87.722C42.2623 86.8284 43.2396 85.7083 43.7747 84.2351L40.8316 83.1659C40.5463 83.9513 39.9921 84.6481 39.1831 85.335C38.3606 86.0333 37.3721 86.6434 36.2809 87.3126L37.918 89.9819ZM43.7747 84.2351C44.623 81.9002 43.6585 79.7971 42.2023 77.9684C40.7594 76.1563 38.5242 74.2208 36.0513 72.0706L33.9966 74.4335C36.5571 76.6599 38.5301 78.3836 39.7527 79.919C40.9622 81.4378 41.1206 82.3707 40.8316 83.1659L43.7747 84.2351ZM36.0513 72.0706C33.4842 69.8384 30.5432 67.28 27.5584 64.1502L25.2923 66.3112C28.3907 69.5601 31.435 72.2062 33.9966 74.4335L36.0513 72.0706ZM27.5584 64.1502C24.3731 60.8101 22.9001 58.2168 22.1963 55.9245C21.4848 53.6074 21.5111 51.4688 21.5573 48.8181L18.4265 48.7636C18.3812 51.3616 18.3246 53.983 19.2029 56.8436C20.0888 59.729 21.8783 62.7313 25.2923 66.3112L27.5584 64.1502ZM21.5573 48.8181C21.5907 46.9038 21.6299 44.7543 21.328 42.2763L18.2197 42.655C18.4921 44.8913 18.46 46.8405 18.4265 48.7636L21.5573 48.8181ZM21.3358 42.358C20.8007 34.5923 17.6989 26.0596 14.12 18.6242C10.5303 11.1662 6.39209 4.67286 3.65583 0.94808L1.13226 2.80192C3.76013 6.37916 7.79688 12.7073 11.2985 19.9822C14.811 27.2797 17.717 35.3912 18.2119 42.5732L21.3358 42.358ZM2.39404 3.44066L52.3875 3.44065V0.309335L2.39404 0.309344L2.39404 3.44066ZM102.596 0.309335H52.3875V3.44065H102.596V0.309335Z" fill="#CF4F24"/>
</svg>
