<svg width="104" height="164" viewBox="0 0 104 164" fill="none" xmlns="http://www.w3.org/2000/svg">
<path d="M84.4181 42.4656L85.9722 42.655C85.9755 42.6278 85.9781 42.6005 85.98 42.5732L84.4181 42.4656ZM101.798 1.87499L103.06 2.80191C103.409 2.32624 103.461 1.69447 103.195 1.16787C102.928 0.641268 102.388 0.309335 101.798 0.309335V1.87499ZM84.2 48.7908L85.7654 48.7636L84.2 48.7908ZM77.7665 65.2307L76.6335 64.1502L77.7665 65.2307ZM69.168 73.252L68.1406 72.0706L69.168 73.252ZM61.8887 83.7005L60.4171 84.2351L61.8887 83.7005ZM67.0924 88.6472L67.911 87.3126L67.911 87.3126L67.0924 88.6472ZM71.7587 93.7945L73.3226 93.7201L71.7587 93.7945ZM70.5256 98.8566L69.1359 98.1356L70.5256 98.8566ZM69.613 102.17L68.0514 102.282L69.613 102.17ZM74.7626 107.325L74.9632 108.877C75.6615 108.787 76.2138 108.242 76.3127 107.545C76.4117 106.848 76.0331 106.17 75.3874 105.889L74.7626 107.325ZM70.6859 115.271L69.2143 115.806C69.2348 115.862 69.2585 115.917 69.2852 115.971L70.6859 115.271ZM72.02 116.524L71.1819 117.847H71.1819L72.02 116.524ZM74.3335 125.15L72.7783 124.969L74.3335 125.15ZM80.1267 143.405L80.877 142.031H80.877L80.1267 143.405ZM99.0085 161.875V163.441C99.8732 163.441 100.574 162.74 100.574 161.875H99.0085ZM51.8042 161.875L51.8041 163.441H51.8042V161.875ZM51.5896 161.875L51.5897 160.309H51.5896V161.875ZM4.3853 161.875H2.81964C2.81964 162.29 2.98459 162.688 3.27821 162.982C3.57183 163.276 3.97006 163.441 4.3853 163.441L4.3853 161.875ZM29.0603 125.15L27.5051 125.331L29.0603 125.15ZM31.3738 116.524L32.2118 117.847H32.2119L31.3738 116.524ZM32.7079 115.271L34.1085 115.971C34.1353 115.917 34.159 115.862 34.1795 115.806L32.7079 115.271ZM28.6312 107.325L28.0064 105.889C27.3607 106.17 26.9821 106.848 27.0811 107.545C27.18 108.242 27.7323 108.787 28.4306 108.877L28.6312 107.325ZM33.7807 102.17L32.2191 102.059L33.7807 102.17ZM32.8682 98.8566L31.4784 99.5776L32.8682 98.8566ZM31.6351 93.7945L33.199 93.8689L31.6351 93.7945ZM36.3014 88.6472L35.4828 87.3126L36.3014 88.6472ZM41.5051 83.7005L42.9767 84.2351L41.5051 83.7005ZM34.2258 73.252L35.2532 72.0706L34.2258 73.252ZM25.6273 65.2307L24.4942 66.3112L25.6273 65.2307ZM19.1938 48.7908L17.6284 48.7636L19.1938 48.7908ZM18.9757 42.4656L17.4138 42.5732C17.4157 42.6005 17.4183 42.6278 17.4216 42.655L18.9757 42.4656ZM1.59595 1.875L1.59595 0.309344C1.00572 0.309344 0.465647 0.641277 0.199073 1.16788C-0.0675019 1.69448 -0.0152723 2.32625 0.334163 2.80192L1.59595 1.875ZM51.5896 1.87499V0.309335V1.87499ZM85.98 42.5732C86.4749 35.3912 89.3809 27.2797 92.8934 19.9822C96.395 12.7073 100.432 6.37915 103.06 2.80191L100.536 0.948071C97.7998 4.67285 93.6616 11.1662 90.0719 18.6241C86.493 26.0596 83.3912 34.5923 82.8561 42.358L85.98 42.5732ZM85.7654 48.7636C85.7319 46.8405 85.6998 44.8913 85.9722 42.655L82.8639 42.2762C82.562 44.7543 82.6012 46.9038 82.6346 48.8181L85.7654 48.7636ZM78.8996 66.3112C82.3136 62.7313 84.1031 59.729 84.989 56.8436C85.8673 53.983 85.8107 51.3616 85.7654 48.7636L82.6346 48.8181C82.6808 51.4688 82.7071 53.6074 81.9956 55.9245C81.2918 58.2168 79.8188 60.8101 76.6335 64.1502L78.8996 66.3112ZM70.1953 74.4335C72.7569 72.2062 75.8012 69.5601 78.8996 66.3112L76.6335 64.1502C73.6487 67.28 70.7077 69.8384 68.1406 72.0706L70.1953 74.4335ZM63.3602 83.1659C63.0713 82.3707 63.2297 81.4378 64.4391 79.919C65.6618 78.3836 67.6348 76.6599 70.1953 74.4335L68.1406 72.0706C65.6677 74.2208 63.4325 76.1563 61.9896 77.9684C60.5334 79.7971 59.5689 81.9002 60.4171 84.2351L63.3602 83.1659ZM67.911 87.3126C66.8198 86.6434 65.8313 86.0333 65.0088 85.335C64.1998 84.6481 63.6456 83.9513 63.3602 83.1659L60.4171 84.2351C60.9523 85.7083 61.9296 86.8284 62.9821 87.722C64.0212 88.6042 65.2243 89.3382 66.2739 89.9819L67.911 87.3126ZM73.3226 93.7201C73.2409 92.004 72.3749 90.7203 71.3358 89.7379C70.3338 88.7908 69.0427 88.0067 67.911 87.3126L66.2739 89.9819C67.4798 90.7215 68.4659 91.3339 69.1846 92.0134C69.8662 92.6577 70.1645 93.2307 70.1948 93.8689L73.3226 93.7201ZM71.9154 99.5776C72.591 98.2754 73.4596 96.5998 73.3226 93.7201L70.1948 93.8689C70.2919 95.9089 69.735 96.9808 69.1359 98.1356L71.9154 99.5776ZM71.1747 102.059C71.1117 101.176 71.381 100.608 71.9154 99.5776L69.1359 98.1356C68.6078 99.1534 67.9193 100.431 68.0514 102.282L71.1747 102.059ZM75.3874 105.889C74.6746 105.579 73.5682 104.967 72.6475 104.187C71.6692 103.358 71.2139 102.607 71.1747 102.059L68.0514 102.282C68.1839 104.139 69.4808 105.608 70.6232 106.576C71.823 107.592 73.2056 108.355 74.1379 108.76L75.3874 105.889ZM72.1574 114.736C71.2706 112.295 71.7574 110.985 72.3401 110.261C73.0114 109.426 74.1186 108.986 74.9632 108.877L74.5621 105.772C73.1895 105.949 71.2284 106.648 69.9006 108.297C68.4843 110.057 68.0413 112.577 69.2143 115.806L72.1574 114.736ZM72.858 115.202C72.2722 114.831 72.1621 114.723 72.0865 114.571L69.2852 115.971C69.8058 117.013 70.6894 117.535 71.1819 117.847L72.858 115.202ZM75.8887 125.331C76.2869 121.903 76.0915 119.651 75.44 118.072C74.7423 116.381 73.6002 115.672 72.858 115.202L71.1819 117.847C71.8411 118.264 72.243 118.534 72.5455 119.267C72.8941 120.111 73.1548 121.728 72.7783 124.969L75.8887 125.331ZM80.877 142.031C77.656 140.272 76.273 138.351 75.6956 135.928C75.074 133.32 75.3451 130.01 75.8887 125.331L72.7783 124.969C72.2491 129.525 71.8765 133.41 72.6496 136.654C73.4668 140.083 75.5168 142.672 79.3765 144.779L80.877 142.031ZM100.574 161.875C100.574 159.979 99.5998 158.035 98.3248 156.263C97.0176 154.446 95.2319 152.59 93.2676 150.83C89.3381 147.309 84.5179 144.019 80.877 142.031L79.3765 144.779C82.8162 146.657 87.4369 149.81 91.1781 153.162C93.0492 154.838 94.6563 156.525 95.7831 158.091C96.942 159.702 97.4428 160.979 97.4428 161.875H100.574ZM51.8042 163.441L99.0085 163.441V160.309L51.8042 160.309V163.441ZM51.8043 160.309L51.5897 160.309L51.5894 163.441L51.8041 163.441L51.8043 160.309ZM51.5896 160.309L4.3853 160.309L4.3853 163.441L51.5896 163.441V160.309ZM5.95095 161.875C5.95095 160.979 6.45177 159.702 7.6107 158.091C8.73752 156.526 10.3446 154.838 12.2157 153.162C15.9569 149.81 20.5776 146.657 24.0173 144.779L22.5168 142.031C18.8759 144.019 14.0557 147.309 10.1262 150.83C8.16188 152.59 6.37616 154.446 5.06901 156.263C3.79396 158.035 2.81964 159.979 2.81964 161.875H5.95095ZM24.0173 144.779C27.877 142.672 29.927 140.083 30.7442 136.654C31.5173 133.41 31.1447 129.525 30.6155 124.97L27.5051 125.331C28.0487 130.01 28.3198 133.32 27.6982 135.928C27.1208 138.351 25.7378 140.272 22.5168 142.031L24.0173 144.779ZM30.6155 124.97C30.239 121.728 30.4997 120.111 30.8483 119.267C31.1508 118.534 31.5527 118.264 32.2118 117.847L30.5357 115.202C29.7936 115.672 28.6514 116.381 27.9538 118.072C27.3023 119.651 27.1069 121.903 27.5051 125.331L30.6155 124.97ZM32.2119 117.847C32.7044 117.535 33.588 117.013 34.1085 115.971L31.3073 114.571C31.2317 114.723 31.1215 114.831 30.5357 115.202L32.2119 117.847ZM34.1795 115.806C35.3525 112.577 34.9095 110.057 33.4932 108.297C32.1654 106.648 30.2043 105.949 28.8317 105.772L28.4306 108.877C29.2752 108.987 30.3824 109.426 31.0537 110.261C31.6364 110.985 32.1232 112.295 31.2364 114.736L34.1795 115.806ZM29.2559 108.76C30.1882 108.355 31.5708 107.592 32.7706 106.576C33.913 105.608 35.2099 104.139 35.3424 102.282L32.2191 102.059C32.1799 102.607 31.7246 103.358 30.7463 104.187C29.8256 104.967 28.7192 105.579 28.0064 105.889L29.2559 108.76ZM35.3424 102.282C35.4745 100.431 34.786 99.1534 34.2579 98.1356L31.4784 99.5776C32.0128 100.608 32.2821 101.176 32.2191 102.059L35.3424 102.282ZM34.2579 98.1356C33.6588 96.9808 33.1019 95.9089 33.199 93.8689L30.0712 93.7201C29.9342 96.5998 30.8028 98.2754 31.4784 99.5776L34.2579 98.1356ZM33.199 93.8689C33.2293 93.2308 33.5276 92.6577 34.2091 92.0134C34.9279 91.3339 35.914 90.7215 37.1199 89.9819L35.4828 87.3126C34.3511 88.0067 33.06 88.7908 32.058 89.7379C31.0189 90.7203 30.1528 92.004 30.0712 93.7201L33.199 93.8689ZM37.1199 89.9819C38.1695 89.3382 39.3726 88.6042 40.4117 87.722C41.4642 86.8284 42.4415 85.7083 42.9767 84.2351L40.0335 83.1659C39.7482 83.9513 39.194 84.6481 38.385 85.335C37.5625 86.0333 36.574 86.6434 35.4828 87.3126L37.1199 89.9819ZM42.9767 84.2351C43.8249 81.9002 42.8604 79.7971 41.4042 77.9684C39.9613 76.1563 37.7261 74.2208 35.2532 72.0706L33.1985 74.4335C35.759 76.6599 37.732 78.3836 38.9546 79.919C40.1641 81.4378 40.3225 82.3707 40.0335 83.1659L42.9767 84.2351ZM35.2532 72.0706C32.6861 69.8384 29.7451 67.28 26.7603 64.1502L24.4942 66.3112C27.5926 69.5601 30.6369 72.2062 33.1985 74.4335L35.2532 72.0706ZM26.7603 64.1502C23.575 60.8101 22.102 58.2168 21.3982 55.9245C20.6867 53.6074 20.713 51.4688 20.7592 48.8181L17.6284 48.7636C17.5831 51.3616 17.5265 53.983 18.4048 56.8436C19.2907 59.729 21.0802 62.7313 24.4942 66.3112L26.7603 64.1502ZM20.7592 48.8181C20.7926 46.9038 20.8318 44.7543 20.5299 42.2763L17.4216 42.655C17.694 44.8913 17.6619 46.8405 17.6284 48.7636L20.7592 48.8181ZM20.5377 42.358C20.0026 34.5923 16.9008 26.0596 13.3219 18.6242C9.73218 11.1662 5.59399 4.67286 2.85773 0.94808L0.334163 2.80192C2.96204 6.37916 6.99878 12.7073 10.5004 19.9822C14.0129 27.2797 16.9189 35.3912 17.4138 42.5732L20.5377 42.358ZM1.59595 3.44066L51.5896 3.44065V0.309335L1.59595 0.309344L1.59595 3.44066ZM101.798 0.309335H51.5896V3.44065H101.798V0.309335Z" fill="#20A4CA"/>
</svg>
