<svg width="578" height="359" viewBox="0 0 578 359" fill="none" xmlns="http://www.w3.org/2000/svg">
<path fill-rule="evenodd" clip-rule="evenodd" d="M117.5 343C117.65 343 117.8 343 117.95 342.999C122.369 342.987 125.96 346.56 125.972 350.978C125.984 355.396 122.412 358.987 117.993 358.999C117.829 359 117.665 359 117.5 359L117.055 359C112.637 359 109.055 355.418 109.055 351C109.055 346.582 112.637 343 117.055 343L117.5 343ZM89.4451 351C89.4451 355.418 85.8634 359 81.4451 359L80.5548 359C76.1366 359 72.5548 355.418 72.5548 351C72.5548 346.582 76.1366 343 80.5548 343L81.4451 343C85.8634 343 89.4451 346.582 89.4451 351ZM52.9451 351C52.9451 355.418 49.3633 359 44.9451 359L44.0548 359C39.6365 359 36.0548 355.418 36.0548 351C36.0548 346.582 39.6365 343 44.0548 343L44.9451 343C49.3633 343 52.9451 346.582 52.9451 351ZM16.4451 351C16.4451 355.418 12.8633 359 8.44507 359L7.99994 359C3.58167 359 -6.06805e-05 355.418 -6.0243e-05 351C-5.98055e-05 346.582 3.58167 343 7.99994 343L8.44507 343C12.8633 343 16.4451 346.582 16.4451 351ZM147.416 348.59C146.448 344.279 149.158 340 153.47 339.032C153.761 338.967 154.052 338.901 154.342 338.834C158.648 337.843 162.942 340.529 163.933 344.835C164.925 349.141 162.238 353.435 157.932 354.426C157.613 354.5 157.293 354.572 156.974 354.644C152.663 355.612 148.383 352.901 147.416 348.59ZM184.289 337.712C182.38 333.728 184.062 328.95 188.047 327.041C188.316 326.912 188.585 326.782 188.853 326.652C192.827 324.721 197.614 326.378 199.545 330.352C201.476 334.326 199.819 339.113 195.845 341.044C195.55 341.187 195.255 341.329 194.96 341.471C190.975 343.38 186.197 341.697 184.289 337.712ZM217.799 318.857C215.052 315.397 215.629 310.365 219.089 307.617C219.323 307.432 219.556 307.246 219.789 307.059C223.234 304.292 228.269 304.843 231.036 308.288C233.802 311.733 233.252 316.768 229.807 319.535C229.551 319.74 229.296 319.944 229.039 320.147C225.579 322.895 220.547 322.317 217.799 318.857ZM246.288 293.036C242.843 290.269 242.292 285.234 245.059 281.789C245.246 281.556 245.432 281.323 245.617 281.089C248.365 277.629 253.397 277.052 256.857 279.799C260.317 282.547 260.895 287.579 258.147 291.039C257.944 291.296 257.74 291.551 257.535 291.807C254.768 295.252 249.733 295.802 246.288 293.036ZM268.352 261.545C264.378 259.614 262.721 254.827 264.652 250.853C264.782 250.585 264.912 250.316 265.041 250.047C266.95 246.063 271.728 244.38 275.712 246.289C279.697 248.198 281.38 252.975 279.471 256.96C279.329 257.255 279.187 257.55 279.044 257.845C277.113 261.819 272.326 263.476 268.352 261.545ZM282.835 225.933C278.529 224.942 275.843 220.648 276.834 216.342C276.901 216.052 276.967 215.761 277.032 215.47C278 211.159 282.279 208.448 286.59 209.416C290.901 210.383 293.612 214.663 292.644 218.974C292.604 219.15 292.564 219.327 292.524 219.503C292.492 219.646 292.459 219.789 292.426 219.932C291.435 224.238 287.141 226.925 282.835 225.933ZM288.978 187.972C284.56 187.96 280.987 184.369 280.999 179.95C281 179.8 281 179.65 281 179.5C281 179.335 281 179.171 281.001 179.007C281.013 174.588 284.604 171.016 289.022 171.028C293.44 171.04 297.012 174.631 297.001 179.05C297 179.2 297 179.35 297 179.5C297 179.665 297 179.829 296.999 179.993C296.987 184.412 293.396 187.984 288.978 187.972ZM291.41 149.584C287.099 148.617 284.388 144.337 285.356 140.026C285.428 139.707 285.5 139.387 285.574 139.068C286.565 134.762 290.859 132.075 295.165 133.067C299.471 134.058 302.157 138.352 301.166 142.658C301.099 142.948 301.033 143.239 300.968 143.53C300 147.842 295.721 150.552 291.41 149.584ZM302.288 112.711C298.303 110.802 296.62 106.025 298.529 102.04C298.671 101.745 298.813 101.45 298.956 101.155C300.887 97.1809 305.674 95.5244 309.648 97.4552C313.622 99.3859 315.279 104.173 313.348 108.147C313.287 108.272 313.227 108.396 313.167 108.521C313.097 108.665 313.028 108.809 312.959 108.953C311.05 112.938 306.272 114.62 302.288 112.711ZM321.143 79.2008C317.683 76.4533 317.105 71.421 319.853 67.9609C320.056 67.7045 320.26 67.4486 320.465 67.1934C323.232 63.7483 328.267 63.198 331.712 65.9644C335.157 68.7307 335.708 73.7661 332.941 77.2111C332.754 77.4438 332.568 77.6769 332.383 77.9106C329.635 81.3706 324.603 81.9483 321.143 79.2008ZM346.964 50.7122C344.198 47.2672 344.748 42.2318 348.193 39.4655C348.449 39.2605 348.704 39.0562 348.961 38.8526C352.421 36.1051 357.453 36.6828 360.201 40.1429C362.948 43.603 362.371 48.6352 358.911 51.3828C358.677 51.5683 358.444 51.7545 358.211 51.9412C354.766 54.7076 349.731 54.1573 346.964 50.7122ZM378.455 28.6481C376.524 24.6741 378.181 19.8872 382.155 17.9565C382.45 17.8133 382.745 17.6709 383.04 17.5294C387.025 15.6205 391.802 17.3032 393.711 21.2879C395.62 25.2725 393.937 30.0502 389.953 31.959C389.684 32.0879 389.415 32.2176 389.147 32.3479C385.173 34.2787 380.386 32.6222 378.455 28.6481ZM414.067 14.1651C413.075 9.85942 415.762 5.56539 420.068 4.57402C420.387 4.50051 420.707 4.42784 421.026 4.35604C425.337 3.38845 429.617 6.0988 430.584 10.4098C431.552 14.7209 428.841 19 424.53 19.9676C424.239 20.033 423.948 20.0992 423.658 20.1661C419.352 21.1574 415.058 18.4707 414.067 14.1651ZM452.028 8.02224C452.016 3.60399 455.588 0.0126247 460.007 0.000723202C460.171 0.000295969 460.335 5.18411e-05 460.5 5.1854e-05L460.945 5.18887e-05C465.363 5.2234e-05 468.945 3.58178 468.945 8.00005C468.945 12.4183 465.363 16.0001 460.945 16.0001L460.5 16.0001C460.35 16.0001 460.2 16.0003 460.05 16.0007C455.631 16.0126 452.04 12.4405 452.028 8.02224ZM578 8.00006C578 12.4183 574.418 16.0001 570 16.0001L569.555 16.0001C565.137 16.0001 561.555 12.4183 561.555 8.00006C561.555 3.58179 565.137 6.003e-05 569.555 6.03753e-05L570 6.04101e-05C574.418 6.07553e-05 578 3.58179 578 8.00006ZM541.945 8.00006C541.945 12.4183 538.363 16.0001 533.945 16.0001L533.055 16.0001C528.637 16.0001 525.055 12.4183 525.055 8.00006C525.055 3.58178 528.637 5.7178e-05 533.055 5.75232e-05L533.945 5.75928e-05C538.363 5.7938e-05 541.945 3.58178 541.945 8.00006ZM505.445 8.00006C505.445 12.4183 501.863 16.0001 497.445 16.0001L496.555 16.0001C492.137 16.0001 488.555 12.4183 488.555 8.00005C488.555 3.58178 492.137 5.4326e-05 496.555 5.46712e-05L497.445 5.47408e-05C501.863 5.5086e-05 505.445 3.58178 505.445 8.00006Z" fill="#20A4CA"/>
<path fill-rule="evenodd" clip-rule="evenodd" d="M460.5 343C460.35 343 460.2 343 460.05 342.999C455.631 342.988 452.04 346.56 452.028 350.978C452.016 355.396 455.588 358.987 460.007 358.999C460.171 359 460.335 359 460.5 359L460.945 359C465.363 359 468.945 355.418 468.945 351C468.945 346.582 465.363 343 460.945 343L460.5 343ZM488.555 351C488.555 355.418 492.137 359 496.555 359L497.445 359C501.863 359 505.445 355.418 505.445 351C505.445 346.582 501.863 343 497.445 343L496.555 343C492.137 343 488.555 346.582 488.555 351ZM525.055 351C525.055 355.418 528.637 359 533.055 359L533.945 359C538.363 359 541.945 355.418 541.945 351C541.945 346.582 538.363 343 533.945 343L533.055 343C528.637 343 525.055 346.582 525.055 351ZM561.555 351C561.555 355.418 565.137 359 569.555 359L570 359C574.418 359 578 355.418 578 351C578 346.582 574.418 343 570 343L569.555 343C565.137 343 561.555 346.582 561.555 351ZM430.584 348.59C431.552 344.279 428.841 340 424.53 339.032C424.239 338.967 423.948 338.901 423.658 338.834C419.352 337.843 415.058 340.529 414.067 344.835C413.075 349.141 415.762 353.435 420.068 354.426C420.387 354.5 420.706 354.572 421.026 354.644C425.337 355.612 429.617 352.901 430.584 348.59ZM393.711 337.712C395.62 333.728 393.937 328.95 389.953 327.041C389.684 326.912 389.415 326.783 389.147 326.652C385.173 324.721 380.386 326.378 378.455 330.352C376.524 334.326 378.181 339.113 382.155 341.044C382.45 341.187 382.745 341.329 383.04 341.471C387.025 343.38 391.802 341.697 393.711 337.712ZM360.201 318.857C362.948 315.397 362.371 310.365 358.91 307.617C358.677 307.432 358.444 307.246 358.211 307.059C354.766 304.292 349.731 304.843 346.964 308.288C344.198 311.733 344.748 316.768 348.193 319.535C348.449 319.74 348.704 319.944 348.961 320.147C352.421 322.895 357.453 322.317 360.201 318.857ZM331.712 293.036C335.157 290.269 335.707 285.234 332.941 281.789C332.754 281.556 332.568 281.323 332.383 281.089C329.635 277.629 324.603 277.052 321.143 279.799C317.683 282.547 317.105 287.579 319.853 291.039C320.056 291.296 320.26 291.551 320.465 291.807C323.232 295.252 328.267 295.802 331.712 293.036ZM309.648 261.545C313.622 259.614 315.279 254.827 313.348 250.853C313.217 250.585 313.088 250.316 312.959 250.047C311.05 246.063 306.272 244.38 302.288 246.289C298.303 248.198 296.62 252.975 298.529 256.96C298.671 257.255 298.813 257.55 298.956 257.845C300.887 261.819 305.674 263.476 309.648 261.545ZM295.165 225.933C299.471 224.942 302.157 220.648 301.166 216.342C301.099 216.052 301.033 215.761 300.968 215.47C300 211.159 295.721 208.448 291.41 209.416C287.099 210.383 284.388 214.663 285.356 218.974C285.428 219.293 285.5 219.613 285.574 219.932C286.565 224.238 290.859 226.925 295.165 225.933ZM289.022 187.972C293.44 187.96 297.013 184.369 297.001 179.95C297 179.8 297 179.65 297 179.5C297 179.335 297 179.171 296.999 179.007C296.987 174.588 293.396 171.016 288.978 171.028C284.56 171.04 280.987 174.631 280.999 179.05C281 179.2 281 179.35 281 179.5C281 179.665 281 179.829 281.001 179.993C281.013 184.412 284.604 187.984 289.022 187.972ZM286.59 149.584C290.901 148.617 293.612 144.337 292.644 140.026C292.572 139.707 292.5 139.387 292.426 139.068C291.435 134.762 287.141 132.075 282.835 133.067C278.529 134.058 275.843 138.352 276.834 142.658C276.901 142.948 276.967 143.239 277.032 143.53C278 147.841 282.279 150.552 286.59 149.584ZM275.712 112.711C279.697 110.802 281.38 106.025 279.471 102.04C279.329 101.745 279.187 101.45 279.044 101.155C277.113 97.1808 272.326 95.5244 268.352 97.4552C264.378 99.3859 262.721 104.173 264.652 108.147C264.782 108.415 264.912 108.684 265.041 108.953C266.95 112.937 271.728 114.62 275.712 112.711ZM256.857 79.2008C260.317 76.4532 260.895 71.4209 258.147 67.9609C258.022 67.8028 257.896 67.6449 257.77 67.4872C257.692 67.3892 257.613 67.2912 257.535 67.1933C254.768 63.7482 249.733 63.198 246.288 65.9643C242.843 68.7307 242.292 73.766 245.059 77.2111C245.246 77.4437 245.432 77.6768 245.617 77.9105C248.365 81.3706 253.397 81.9483 256.857 79.2008ZM231.036 50.7122C233.802 47.2671 233.252 42.2318 229.807 39.4654C229.716 39.3927 229.626 39.3201 229.535 39.2476C229.37 39.1156 229.205 38.984 229.039 38.8526C225.579 36.1051 220.547 36.6827 217.799 40.1428C215.052 43.6029 215.629 48.6352 219.089 51.3827C219.323 51.5683 219.556 51.7544 219.789 51.9412C223.234 54.7075 228.269 54.1573 231.036 50.7122ZM199.545 28.6481C201.476 24.674 199.819 19.8872 195.845 17.9564C195.55 17.8132 195.255 17.6709 194.96 17.5293C190.975 15.6204 186.198 17.3031 184.289 21.2878C182.38 25.2724 184.062 30.0501 188.047 31.959C188.316 32.0879 188.585 32.2175 188.853 32.3478C192.827 34.2786 197.614 32.6221 199.545 28.6481ZM163.933 14.165C164.925 9.85936 162.238 5.56529 157.932 4.57395C157.613 4.50044 157.293 4.42778 156.974 4.35597C152.663 3.38835 148.383 6.09873 147.416 10.4098C146.448 14.7208 149.159 18.9999 153.47 19.9676C153.761 20.0329 154.052 20.0991 154.342 20.166C158.648 21.1573 162.942 18.4706 163.933 14.165ZM125.972 8.02216C125.984 3.60389 122.412 0.0125508 117.993 0.00064864C117.829 0.000190865 117.665 -2.27689e-05 117.5 -2.27797e-05L117.055 -2.2809e-05C112.637 -2.31e-05 109.055 3.5817 109.055 7.99998C109.055 12.4183 112.637 16 117.055 16L117.5 16C117.65 16 117.8 16.0002 117.95 16.0006C122.369 16.0125 125.96 12.4404 125.972 8.02216ZM4.4066e-05 7.99997C4.35113e-05 12.4182 3.58176 16 8.00004 16L8.44516 16C12.8634 16 16.4452 12.4182 16.4452 7.99997C16.4452 3.5817 12.8634 -2.96705e-05 8.44517 -2.99614e-05L8.00005 -2.99907e-05C3.58177 -3.02817e-05 4.46207e-05 3.5817 4.4066e-05 7.99997ZM36.0549 7.99997C36.0549 12.4182 39.6366 16 44.0549 16L44.9451 16C49.3634 16 52.9451 12.4182 52.9451 7.99997C52.9451 3.5817 49.3634 -2.72668e-05 44.9451 -2.75577e-05L44.0549 -2.76164e-05C39.6366 -2.79073e-05 36.0549 3.5817 36.0549 7.99997ZM72.5549 7.99997C72.5549 12.4182 76.1366 16 80.5549 16L81.4451 16C85.8634 16 89.4451 12.4182 89.4451 7.99998C89.4451 3.5817 85.8634 -2.48631e-05 81.4451 -2.51541e-05L80.5549 -2.52127e-05C76.1366 -2.55037e-05 72.5549 3.5817 72.5549 7.99997Z" fill="#EB7114"/>
</svg>
