<svg width="270" height="436" viewBox="0 0 270 436" fill="none" xmlns="http://www.w3.org/2000/svg">
<g clip-path="url(#clip0_135_5009)">
<path fill-rule="evenodd" clip-rule="evenodd" d="M12.0335 88.6333C12.0335 88.7464 12.0335 88.8595 12.0342 88.9727C12.0433 92.3061 9.35604 95.0148 6.03332 95.0239C2.7106 95.0329 0.00985314 92.3385 0.000820084 89.0051C5.715e-05 88.8814 5.71554e-05 88.7577 5.71609e-05 88.6333L5.71755e-05 88.2976C5.73212e-05 84.965 2.69406 82.263 6.01678 82.263C9.3395 82.263 12.0335 84.965 12.0335 88.2976L12.0335 88.6333ZM6.01678 67.4707C2.69406 67.4707 5.8204e-05 64.769 5.83497e-05 61.4361L5.83791e-05 60.7646C5.85247e-05 57.4318 2.69406 54.73 6.01678 54.73C9.33951 54.73 12.0335 57.4318 12.0335 60.7646L12.0335 61.4361C12.0335 64.769 9.33951 67.4707 6.01678 67.4707ZM6.01678 39.9379C2.69406 39.9379 5.94075e-05 37.236 5.95532e-05 33.9033L5.95826e-05 33.2317C5.97282e-05 29.8988 2.69406 27.1971 6.01678 27.1971C9.33951 27.1971 12.0335 29.8988 12.0335 33.2317L12.0335 33.9033C12.0335 37.236 9.33951 39.9379 6.01678 39.9379ZM6.01678 12.405C2.69406 12.405 6.0611e-05 9.70315 6.07567e-05 6.37036L6.07714e-05 6.03459C6.09171e-05 2.70178 2.69406 -1.20143e-05 6.01678 -1.15391e-05C9.33951 -1.10638e-05 12.0335 2.70178 12.0335 6.03459L12.0335 6.37036C12.0335 9.70315 9.33951 12.405 6.01678 12.405ZM7.82931 111.2C11.0716 110.469 14.2897 112.514 15.0178 115.766C15.0666 115.986 15.1163 116.205 15.1667 116.424C15.912 119.672 13.8919 122.911 10.6534 123.659C7.41491 124.407 4.18545 122.38 3.44012 119.132C3.38446 118.892 3.33029 118.65 3.27615 118.409C2.54812 115.158 4.58706 111.929 7.82931 111.2ZM16.0105 139.014C19.0068 137.574 22.6004 138.843 24.0361 141.849C24.1331 142.052 24.2309 142.254 24.3286 142.457C25.7809 145.454 24.5347 149.065 21.5459 150.522C18.5571 151.978 14.9569 150.729 13.5046 147.731C13.397 147.508 13.2902 147.286 13.1834 147.063C11.7477 144.057 13.0135 140.453 16.0105 139.014ZM30.1912 164.291C32.7934 162.219 36.5779 162.654 38.6446 165.264C38.7838 165.441 38.9237 165.617 39.0643 165.792C41.1453 168.391 40.7309 172.189 38.14 174.276C35.549 176.363 31.7623 175.948 29.6813 173.349C29.5271 173.156 29.3736 172.964 29.221 172.77C27.1542 170.16 27.589 166.364 30.1912 164.291ZM49.6108 185.781C51.6919 183.183 55.4787 182.767 58.0696 184.854C58.2448 184.995 58.4201 185.136 58.5961 185.275C61.1983 187.348 61.6322 191.144 59.5663 193.754C57.4995 196.364 53.715 196.8 51.1128 194.727C50.9195 194.574 50.7277 194.42 50.5352 194.265C47.9442 192.178 47.5306 188.38 49.6108 185.781ZM73.2949 202.425C74.7472 199.427 78.3474 198.177 81.3362 199.634C81.5378 199.732 81.7401 199.83 81.9424 199.927C84.9387 201.367 86.2045 204.971 84.7688 207.977C83.333 210.983 79.7403 212.252 76.7432 210.812C76.5214 210.705 76.2995 210.598 76.0776 210.49C73.0888 209.033 71.8426 205.422 73.2949 202.425ZM100.078 213.35C100.824 210.101 104.053 208.075 107.292 208.823C107.51 208.873 107.729 208.923 107.947 208.972C111.19 209.702 113.229 212.93 112.501 216.182C111.773 219.434 108.554 221.479 105.312 220.749C105.18 220.719 105.047 220.688 104.914 220.658C104.807 220.634 104.699 220.609 104.592 220.584C101.353 219.837 99.3322 216.598 100.078 213.35ZM128.628 217.983C128.637 214.651 131.338 211.956 134.662 211.965C134.774 211.965 134.887 211.965 135 211.965C135.124 211.965 135.247 211.965 135.371 211.966C138.694 211.975 141.381 214.684 141.372 218.017C141.363 221.349 138.662 224.044 135.338 224.035C135.226 224.035 135.113 224.035 135 224.035C134.876 224.035 134.753 224.035 134.629 224.034C131.306 224.025 128.619 221.316 128.628 217.983ZM157.5 219.818C158.227 216.566 161.446 214.521 164.688 215.251C164.928 215.306 165.169 215.36 165.409 215.416C168.647 216.163 170.668 219.402 169.922 222.65C169.176 225.899 165.947 227.925 162.708 227.177C162.49 227.127 162.272 227.077 162.053 227.028C158.81 226.298 156.772 223.07 157.5 219.818ZM185.231 228.024C186.667 225.018 190.26 223.748 193.257 225.188C193.479 225.295 193.701 225.402 193.922 225.51C196.911 226.967 198.157 230.578 196.705 233.575C195.253 236.573 191.653 237.823 188.664 236.366C188.57 236.32 188.477 236.275 188.383 236.23C188.274 236.177 188.166 236.125 188.058 236.073C185.061 234.633 183.796 231.029 185.231 228.024ZM210.434 242.246C212.5 239.636 216.285 239.2 218.887 241.273C219.08 241.426 219.273 241.58 219.465 241.735C222.056 243.822 222.47 247.62 220.389 250.219C218.308 252.817 214.521 253.233 211.93 251.146C211.755 251.005 211.58 250.864 211.404 250.725C208.802 248.652 208.368 244.856 210.434 242.246ZM231.86 261.724C234.451 259.637 238.238 260.052 240.318 262.651C240.473 262.844 240.626 263.036 240.779 263.23C242.846 265.84 242.411 269.636 239.809 271.709C237.207 273.781 233.422 273.346 231.356 270.736C231.216 270.559 231.076 270.383 230.936 270.208C228.855 267.609 229.269 263.811 231.86 261.724ZM248.454 285.478C251.443 284.022 255.043 285.272 256.495 288.269C256.603 288.492 256.71 288.714 256.816 288.937C258.252 291.943 256.986 295.546 253.99 296.986C250.993 298.426 247.4 297.157 245.964 294.151C245.867 293.949 245.77 293.746 245.672 293.543C244.219 290.546 245.465 286.935 248.454 285.478ZM259.347 312.341C262.585 311.593 265.814 313.62 266.56 316.868C266.615 317.109 266.67 317.35 266.724 317.591C267.452 320.842 265.413 324.071 262.171 324.8C258.929 325.531 255.71 323.486 254.983 320.234C254.933 320.014 254.884 319.795 254.833 319.576C254.088 316.328 256.108 313.089 259.347 312.341ZM263.967 340.976C267.29 340.967 269.991 343.662 269.999 346.995C270 347.119 270 347.242 270 347.367L270 347.703C270 351.035 267.306 353.737 263.983 353.737C260.66 353.737 257.967 351.035 257.967 347.703L257.967 347.367C257.967 347.254 257.966 347.141 257.966 347.027C257.957 343.694 260.644 340.985 263.967 340.976ZM263.983 436C260.66 436 257.967 433.298 257.967 429.965L257.967 429.63C257.967 426.297 260.66 423.595 263.983 423.595C267.306 423.595 270 426.297 270 429.63L270 429.965C270 433.298 267.306 436 263.983 436ZM263.983 408.803C260.66 408.803 257.967 406.101 257.967 402.768L257.967 402.097C257.967 398.764 260.66 396.062 263.983 396.062C267.306 396.062 270 398.764 270 402.097L270 402.768C270 406.101 267.306 408.803 263.983 408.803ZM263.983 381.27C260.66 381.27 257.967 378.568 257.967 375.235L257.967 374.564C257.967 371.231 260.66 368.529 263.983 368.529C267.306 368.529 270 371.231 270 374.564L270 375.235C270 378.568 267.306 381.27 263.983 381.27Z" fill="#20A4CA"/>
<path fill-rule="evenodd" clip-rule="evenodd" d="M12.0334 347.367C12.0334 347.254 12.0334 347.14 12.0342 347.027C12.0424 343.694 9.35597 340.985 6.03325 340.976C2.71053 340.967 0.0097506 343.661 0.000747772 346.995C-1.5173e-05 347.119 -1.51784e-05 347.242 -1.51839e-05 347.367L-1.51986e-05 347.702C-1.53442e-05 351.035 2.69395 353.737 6.01671 353.737C9.33943 353.737 12.0334 351.035 12.0334 347.702L12.0334 347.367ZM6.01671 368.529C2.69395 368.529 -1.6227e-05 371.231 -1.63727e-05 374.564L-1.64021e-05 375.235C-1.65477e-05 378.568 2.69395 381.27 6.01671 381.27C9.33943 381.27 12.0334 378.568 12.0334 375.235L12.0334 374.564C12.0334 371.231 9.33943 368.529 6.01671 368.529ZM6.01671 396.062C2.69395 396.062 -1.74305e-05 398.764 -1.75762e-05 402.097L-1.76056e-05 402.768C-1.77512e-05 406.101 2.69395 408.803 6.01671 408.803C9.33943 408.803 12.0334 406.101 12.0334 402.768L12.0334 402.097C12.0334 398.764 9.33943 396.062 6.01671 396.062ZM6.01671 423.595C2.69395 423.595 -1.8634e-05 426.297 -1.87797e-05 429.63L-1.87944e-05 429.965C-1.89401e-05 433.298 2.69395 436 6.0167 436C9.33943 436 12.0334 433.298 12.0334 429.965L12.0334 429.63C12.0334 426.297 9.33943 423.595 6.01671 423.595ZM7.82924 324.8C11.0715 325.531 14.2897 323.486 15.0177 320.234C15.0666 320.014 15.1162 319.795 15.1666 319.576C15.9119 316.328 13.8918 313.089 10.6533 312.341C7.41484 311.593 4.18535 313.62 3.44005 316.868C3.38439 317.108 3.33022 317.349 3.27608 317.591C2.54805 320.842 4.58696 324.071 7.82924 324.8ZM16.0105 296.986C19.0068 298.426 22.6003 297.157 24.036 294.151C24.133 293.948 24.23 293.746 24.3286 293.543C25.7808 290.546 24.5346 286.935 21.5458 285.478C18.557 284.022 14.9568 285.271 13.5045 288.269C13.3969 288.492 13.2901 288.714 13.1833 288.937C11.7476 291.943 13.0134 295.546 16.0105 296.986ZM30.1911 271.709C32.7933 273.781 36.5778 273.346 38.6446 270.735C38.7837 270.559 38.9236 270.383 39.0643 270.208C41.1453 267.609 40.7309 263.811 38.1399 261.724C35.549 259.637 31.7622 260.052 29.6812 262.651C29.527 262.844 29.3736 263.036 29.2209 263.23C27.1542 265.84 27.5889 269.636 30.1911 271.709ZM49.6108 250.219C51.6918 252.817 55.4786 253.232 58.0695 251.146C58.2448 251.005 58.42 250.864 58.596 250.725C61.1982 248.652 61.6322 244.856 59.5662 242.246C57.4994 239.636 53.7149 239.2 51.1127 241.273C50.9194 241.426 50.7276 241.58 50.5351 241.735C47.9442 243.822 47.5305 247.62 49.6108 250.219ZM73.2948 233.575C74.7471 236.573 78.3474 237.823 81.3362 236.366C81.5377 236.267 81.74 236.17 81.9424 236.073C84.9387 234.633 86.2044 231.029 84.7687 228.023C83.333 225.017 79.7402 223.748 76.7432 225.188C76.5213 225.295 76.2994 225.402 76.0776 225.51C73.0888 226.967 71.8425 230.578 73.2948 233.575ZM100.078 222.65C100.824 225.899 104.053 227.925 107.292 227.177C107.51 227.127 107.728 227.077 107.947 227.028C111.19 226.298 113.229 223.07 112.5 219.818C111.773 216.566 108.554 214.521 105.312 215.251C105.072 215.306 104.831 215.36 104.592 215.416C101.353 216.163 99.3322 219.402 100.078 222.65ZM128.628 218.017C128.637 221.349 131.338 224.044 134.662 224.035C134.774 224.035 134.887 224.035 135 224.035C135.124 224.035 135.247 224.035 135.371 224.034C138.694 224.025 141.381 221.316 141.372 217.983C141.363 214.651 138.662 211.956 135.338 211.965C135.226 211.965 135.113 211.965 135 211.965C134.876 211.965 134.753 211.965 134.629 211.966C131.306 211.975 128.619 214.684 128.628 218.017ZM157.499 216.182C158.227 219.434 161.446 221.479 164.688 220.749C164.928 220.694 165.169 220.64 165.408 220.584C168.647 219.837 170.668 216.598 169.922 213.35C169.176 210.101 165.947 208.075 162.708 208.823C162.49 208.873 162.271 208.923 162.053 208.972C158.81 209.702 156.771 212.93 157.499 216.182ZM185.231 207.976C186.667 210.982 190.26 212.252 193.257 210.812C193.479 210.705 193.701 210.598 193.922 210.49C196.911 209.033 198.157 205.422 196.705 202.425C195.253 199.427 191.653 198.177 188.664 199.634C188.462 199.732 188.26 199.83 188.058 199.927C185.061 201.367 183.796 204.971 185.231 207.976ZM210.434 193.754C212.5 196.364 216.285 196.8 218.887 194.727C219.006 194.632 219.125 194.537 219.244 194.442C219.317 194.384 219.391 194.324 219.465 194.265C222.056 192.178 222.469 188.38 220.389 185.781C218.308 183.183 214.521 182.767 211.93 184.854C211.755 184.995 211.58 185.136 211.404 185.275C208.802 187.348 208.368 191.144 210.434 193.754ZM231.86 174.276C234.451 176.363 238.238 175.948 240.318 173.349C240.373 173.281 240.428 173.213 240.482 173.144C240.582 173.02 240.681 172.895 240.779 172.77C242.846 170.16 242.411 166.364 239.809 164.291C237.207 162.219 233.422 162.654 231.356 165.264C231.216 165.441 231.076 165.617 230.936 165.792C228.855 168.391 229.269 172.189 231.86 174.276ZM248.454 150.522C251.443 151.978 255.043 150.728 256.495 147.731C256.603 147.508 256.71 147.286 256.816 147.063C258.252 144.057 256.986 140.454 253.99 139.014C250.993 137.574 247.4 138.843 245.964 141.849C245.867 142.051 245.77 142.254 245.672 142.457C244.219 145.454 245.465 149.065 248.454 150.522ZM259.347 123.659C262.585 124.407 265.814 122.38 266.56 119.132C266.615 118.891 266.67 118.65 266.724 118.409C267.452 115.158 265.413 111.929 262.171 111.2C258.929 110.469 255.71 112.514 254.983 115.766C254.933 115.986 254.884 116.205 254.833 116.424C254.088 119.672 256.108 122.911 259.347 123.659ZM263.967 95.0238C267.29 95.0329 269.991 92.3384 269.999 89.0051C270 88.8813 270 88.7576 270 88.6332L270 88.2975C270 84.9649 267.306 82.2629 263.983 82.2629C260.66 82.2629 257.967 84.9649 257.967 88.2975L257.967 88.6332C257.967 88.7463 257.966 88.8595 257.966 88.9726C257.957 92.306 260.644 95.0148 263.967 95.0238ZM263.983 -2.62999e-07C260.66 -8.26672e-07 257.967 2.70178 257.967 6.0346L257.967 6.37036C257.967 9.70315 260.66 12.405 263.983 12.405C267.306 12.405 270 9.70315 270 6.37037L270 6.03461C270 2.70179 267.306 3.00675e-07 263.983 -2.62999e-07ZM263.983 27.1971C260.66 27.1971 257.967 29.8989 257.967 33.2317L257.967 33.9032C257.967 37.236 260.66 39.9378 263.983 39.9378C267.306 39.9378 270 37.236 270 33.9032L270 33.2317C270 29.8989 267.306 27.1971 263.983 27.1971ZM263.983 54.73C260.66 54.73 257.967 57.4317 257.967 60.7646L257.967 61.4361C257.967 64.7689 260.66 67.4707 263.983 67.4707C267.306 67.4707 270 64.7689 270 61.4361L270 60.7646C270 57.4317 267.306 54.73 263.983 54.73Z" fill="#EB7114"/>
</g>
<defs>
<clipPath id="clip0_135_5009">
<rect width="436" height="270" fill="white" transform="translate(270) rotate(90)"/>
</clipPath>
</defs>
</svg>
