<svg width="17" height="42" viewBox="0 0 17 42" fill="none" xmlns="http://www.w3.org/2000/svg">
<path d="M13.0321 0C11.9798 0 10.9706 0.414729 10.2264 1.15295C9.48232 1.89117 9.06428 2.89242 9.06428 3.93642C9.06428 4.98043 9.48232 5.98168 10.2264 6.7199C10.9706 7.45812 11.9798 7.87285 13.0321 7.87285C14.0845 7.87285 15.0937 7.45812 15.8378 6.7199C16.582 5.98168 17 4.98043 17 3.93642C17 2.89242 16.582 1.89117 15.8378 1.15295C15.0937 0.414729 14.0845 0 13.0321 0ZM12.0799 12.5178C8.93202 12.7803 0.334993 19.5772 0.334993 19.5772C-0.194055 19.9708 -0.0353392 19.9446 0.387899 20.6794C0.811137 21.3879 0.758232 21.4404 1.26083 21.0992C1.78988 20.7581 2.6628 20.207 4.11769 19.3147C9.72559 15.7457 5.01707 23.986 2.6099 37.8684C1.65761 44.744 7.90038 41.2012 9.51397 40.1515C11.1011 39.1281 15.36 36.2151 15.7832 35.9264C16.3651 35.5328 15.9419 35.2179 15.4922 34.5618C15.1748 34.1157 14.8574 34.4306 14.8574 34.4306C13.1379 35.559 9.99012 37.9209 9.56688 36.425C9.06428 34.9292 12.2915 24.6683 14.0638 17.6089C14.3548 15.9294 15.1483 12.2554 12.0799 12.5178Z" fill="#CF4F24"/>
</svg>
