<svg width="512" height="512" viewBox="0 0 512 512" fill="none" xmlns="http://www.w3.org/2000/svg">
<g clip-path="url(#clip0_472_616)">
<circle cx="256" cy="256" r="256" fill="#F8EBCB"/>
<path d="M256 201.6C242.112 201.6 228.793 207.331 218.973 217.533C209.153 227.735 203.636 241.572 203.636 256C203.636 270.428 209.153 284.265 218.973 294.467C228.793 304.669 242.112 310.4 256 310.4C269.888 310.4 283.207 304.669 293.027 294.467C302.847 284.265 308.364 270.428 308.364 256C308.364 241.572 302.847 227.735 293.027 217.533C283.207 207.331 269.888 201.6 256 201.6ZM256 346.667C232.854 346.667 210.656 337.114 194.289 320.111C177.922 303.108 168.727 280.046 168.727 256C168.727 231.954 177.922 208.892 194.289 191.889C210.656 174.886 232.854 165.333 256 165.333C279.146 165.333 301.344 174.886 317.711 191.889C334.078 208.892 343.273 231.954 343.273 256C343.273 280.046 334.078 303.108 317.711 320.111C301.344 337.114 279.146 346.667 256 346.667ZM256 120C168.727 120 94.1964 176.395 64 256C94.1964 335.605 168.727 392 256 392C343.273 392 417.804 335.605 448 256C417.804 176.395 343.273 120 256 120Z" fill="#20A4CA"/>
</g>
<defs>
<clipPath id="clip0_472_616">
<rect width="512" height="512" fill="white"/>
</clipPath>
</defs>
</svg>
