<svg width="226" height="25" viewBox="0 0 226 25" fill="none" xmlns="http://www.w3.org/2000/svg">
<path fill-rule="evenodd" clip-rule="evenodd" d="M196.989 25L192.097 24.9626L192.137 19.876L174.804 19.7673V10.1376L186.659 0H195.106L175.754 15.0832V15.2989L192.18 15.3346L192.258 8.32201H197.027L196.989 15.3346H199.196V19.8709H196.989V25ZM21.8877 8.28635C21.0034 5.97317 19.0446 4.15931 14.3695 4.15931C10.6131 4.15931 6.63933 4.98132 6.63933 7.32507C6.63933 9.66882 10.6784 10.1002 14.9222 10.1002C20.7896 10.1002 28.0378 10.8101 27.8529 16.9633C27.6717 22.0482 23.7831 24.9626 14.6015 24.9626C5.41983 24.9626 1.17964 21.0173 0 16.7137L4.75843 15.3991C5.34734 17.5679 7.96756 20.5197 14.7482 20.5197C20.4254 20.5197 22.5781 19.4531 22.6904 17.3539C22.6904 15.0781 20.4544 14.4039 16.6201 14.2969L12.9307 14.2272C7.13946 14.1185 1.40252 12.8397 1.40252 7.54076C1.40252 2.52548 6.62484 0.0356658 14.4058 0.0356658C21.1556 0.0356658 25.0588 2.27582 27.1245 6.93614L21.8877 8.29484V8.28635ZM66.2538 0.212296L66.3299 12.1264C66.3299 16.5421 68.8776 20.3414 74.3192 20.3414C79.7608 20.3414 82.0856 16.2517 82.0856 12.2283L82.1617 0.207201H87.0542V12.3336C87.0542 18.699 83.0786 24.9575 74.2431 24.9575C65.4076 24.9575 61.1619 18.4137 61.1619 12.0143V0.212296H66.2538ZM96.3337 17.106H109.266L112.347 24.7164H117.556L108.025 0.212296H97.6438L88.0744 24.7164H93.2442L96.3337 17.106ZM107.635 12.624H97.9918L102.743 0.747283H102.924L107.635 12.624ZM134.635 0.142663C139.89 0.142663 144.163 4.12704 144.163 8.89096C144.163 12.7972 141.345 16.109 137.603 17.3522L144.701 24.6773H137.565L131.736 18.2065H125.194V24.7147H120.106V0.212296L134.635 0.142663ZM125.2 13.8689H133.785C136.719 13.8689 139.04 11.5574 139.04 8.89266C139.04 6.36719 136.722 4.268 133.785 4.268H125.2V13.8689ZM171.099 0.212296H148.406V24.6807H171.099V20.1291H153.27V14.3325H170.713V10.2429H153.27V4.76393H171.099V0.212296ZM224.402 0H202.433V4.41576L223.592 4.52276V4.66712L207.965 7.13315V12.7157C212.562 12.0771 221.122 11.3128 221.122 15.552C221.122 17.3845 218.79 20.3652 213.006 20.3652C208.351 20.3652 206.073 17.8872 205.263 15.5876L200.231 16.7018C201.753 22.0516 207.427 24.9966 213.423 24.9966C223.652 24.9966 226 19.251 226 16.9531C226 13.2167 223.126 9.46501 212.067 11.1889L212.102 11.019L224.445 8.87908L224.402 0ZM52.1724 20.0968V4.90319H35.6828V20.0968H52.1724ZM57.4527 20.0968H54.644C56.464 17.9327 57.4534 15.2572 57.4527 12.5017C57.4527 5.6284 51.386 0.0356658 43.9294 0.0356658C36.4728 0.0356658 30.4043 5.6267 30.4043 12.5017C30.4043 19.3767 36.4728 24.966 43.9294 24.966C46.9053 24.9707 49.8008 24.0609 52.1724 22.376V24.966H57.4527V20.0968Z" fill="#F8EBCB"/>
</svg>
