<svg width="94" height="325" viewBox="0 0 94 325" fill="none" xmlns="http://www.w3.org/2000/svg">
<path d="M71.2244 186.004C69.0499 186.004 66.9645 185.14 65.4269 183.601C63.8893 182.063 63.0255 179.976 63.0255 177.8L63.0255 -1.5302e-05L21.3133 -1.89462e-05L21.3133 177.78C21.3133 179.956 20.4495 182.042 18.9119 183.581C17.3743 185.119 15.2888 185.984 13.1143 185.984L0.262507 185.984L0.262496 312.53C0.262493 314.169 0.585538 315.792 1.21311 317.307C1.84069 318.821 2.76049 320.197 3.91991 321.355C5.07932 322.513 6.45559 323.431 7.96996 324.057C9.48434 324.682 11.1071 325.003 12.7454 325L81.3296 325C84.6367 325 87.8087 323.687 90.1491 321.349C92.4895 319.011 93.8071 315.839 93.8125 312.53L93.8125 186.004L71.2244 186.004Z" fill="#F8EBCB"/>
</svg>
