<svg width="95" height="325" viewBox="0 0 95 325" fill="none" xmlns="http://www.w3.org/2000/svg">
<path d="M71.8689 186.004C69.6939 186.004 67.608 185.14 66.0701 183.601C64.5321 182.063 63.6681 179.976 63.6681 177.8L63.6682 1.59949e-05L13.3565 1.15993e-05C10.0487 0.00544505 6.87821 1.32383 4.54113 3.66567C2.20405 6.00751 0.891422 9.18142 0.891427 12.4906L0.8914 312.53C0.8914 315.837 2.20469 319.009 4.54236 321.348C6.88002 323.686 10.0506 325 13.3565 325L81.9558 325C85.2636 325 88.4363 323.687 90.7772 321.349C93.1182 319.011 94.436 315.839 94.4414 312.53L94.4414 186.004L71.8689 186.004Z" fill="#F8EBCB"/>
</svg>
