<svg width="95" height="325" viewBox="0 0 95 325" fill="none" xmlns="http://www.w3.org/2000/svg">
<path d="M81.3691 186.004C79.1937 186.004 77.1073 185.14 75.569 183.601C74.0308 182.063 73.1666 179.976 73.1666 177.8L73.1666 1.68435e-05L13.1445 1.15995e-05C9.83589 0.00544505 6.66468 1.32383 4.32709 3.66567C1.9895 6.00751 0.676579 9.18142 0.676583 12.4906L0.676557 312.53C0.676552 315.834 1.98731 319.002 4.32105 321.34C6.6548 323.678 9.8208 324.995 13.1239 325L81.7382 325C85.0468 325 88.2201 323.687 90.5616 321.349C92.903 319.011 94.2211 315.839 94.2266 312.53L94.2266 186.004L81.3691 186.004Z" fill="#EB7114"/>
</svg>
