<svg width="95" height="325" viewBox="0 0 95 325" fill="none" xmlns="http://www.w3.org/2000/svg">
<path d="M81.3652 186.004C79.1898 186.004 77.1034 185.14 75.5651 183.601C74.0268 182.063 73.1627 179.976 73.1627 177.8L73.1627 1.68435e-05L13.1405 1.15995e-05C9.83198 0.00544505 6.66077 1.32383 4.32318 3.66567C1.98559 6.00751 0.672673 9.18142 0.672677 12.4906L0.672651 312.53C0.672646 315.834 1.9834 319.002 4.31715 321.34C6.65089 323.678 9.8169 324.995 13.12 325L81.7343 325C85.0429 325 88.2162 323.687 90.5577 321.349C92.8991 319.011 94.2172 315.839 94.2227 312.53L94.2227 186.004L81.3652 186.004Z" fill="#F8EBCB"/>
</svg>
