<svg width="94" height="325" viewBox="0 0 94 325" fill="none" xmlns="http://www.w3.org/2000/svg">
<path d="M71.0124 186.004C68.8369 186.004 66.7506 185.14 65.2123 183.601C63.674 182.063 62.8098 179.976 62.8098 177.8L62.8098 1.59943e-05L30.7994 1.31976e-05L30.7994 177.78C30.7994 179.956 29.9352 182.042 28.3969 183.581C26.8587 185.12 24.7723 185.984 22.5968 185.984L0.0398553 185.984L0.0398442 312.53C0.0452473 315.832 1.35777 318.998 3.69035 321.334C6.02292 323.671 9.18576 324.989 12.4872 325L81.122 325C84.427 324.995 87.5951 323.679 89.9321 321.342C92.2691 319.004 93.5844 315.836 93.5898 312.53L93.5899 186.004L71.0124 186.004Z" fill="#ECBA5D"/>
</svg>
