<svg width="94" height="325" viewBox="0 0 94 325" fill="none" xmlns="http://www.w3.org/2000/svg">
<path d="M71.1228 186.004C68.9483 186.004 66.8629 185.14 65.3253 183.601C63.7877 182.063 62.9239 179.976 62.9239 177.8L62.9239 -1.5302e-05L21.2117 -1.89462e-05L21.2117 177.78C21.2117 179.956 20.3479 182.042 18.8103 183.581C17.2727 185.119 15.1873 185.984 13.0128 185.984L0.160944 185.984L0.160933 312.53C0.160931 314.169 0.483976 315.792 1.11155 317.307C1.73913 318.821 2.65893 320.197 3.81834 321.355C4.97776 322.513 6.35403 323.431 7.8684 324.057C9.38278 324.682 11.0055 325.003 12.6438 325L81.228 325C84.5351 325 87.7071 323.687 90.0476 321.349C92.388 319.011 93.7055 315.839 93.7109 312.53L93.7109 186.004L71.1228 186.004Z" fill="#ECBA5D"/>
</svg>
