<svg width="94" height="325" viewBox="0 0 94 325" fill="none" xmlns="http://www.w3.org/2000/svg">
<path d="M71.1823 186.004C70.1054 186.004 69.039 185.792 68.044 185.38C67.0491 184.968 66.145 184.363 65.3835 183.601C64.622 182.84 64.018 181.935 63.6058 180.94C63.1937 179.945 62.9816 178.878 62.9816 177.8L62.9816 1.59967e-05L21.2603 1.23516e-05L21.2603 177.78C21.2603 179.956 20.3963 182.042 18.8584 183.581C17.3204 185.12 15.2345 185.984 13.0595 185.984L0.18438 185.984L0.184369 312.53C0.184368 315.837 1.49766 319.009 3.83532 321.348C6.17299 323.686 9.34355 325 12.6495 325L81.2692 325C84.5752 325 87.7458 323.686 90.0834 321.348C92.4211 319.009 93.7344 315.837 93.7344 312.53L93.7344 186.004L71.1823 186.004Z" fill="#F8EBCB"/>
</svg>
