<svg width="94" height="325" viewBox="0 0 94 325" fill="none" xmlns="http://www.w3.org/2000/svg">
<path d="M71.28 186.004C70.2031 186.004 69.1367 185.792 68.1417 185.38C67.1467 184.968 66.2427 184.363 65.4812 183.601C64.7197 182.84 64.1156 181.935 63.7035 180.94C63.2914 179.945 63.0792 178.878 63.0792 177.8L63.0793 1.59967e-05L21.358 1.23516e-05L21.358 177.78C21.358 179.956 20.494 182.042 18.956 183.581C17.4181 185.12 15.3322 185.984 13.1572 185.984L0.282036 185.984L0.282025 312.53C0.282025 315.837 1.59531 319.009 3.93298 321.348C6.27065 323.686 9.4412 325 12.7472 325L81.3669 325C84.6729 325 87.8434 323.686 90.1811 321.348C92.5187 319.009 93.832 315.837 93.832 312.53L93.832 186.004L71.28 186.004Z" fill="#F8EBCB"/>
</svg>
