<svg width="94" height="325" viewBox="0 0 94 325" fill="none" xmlns="http://www.w3.org/2000/svg">
<path d="M81.5349 7.24678e-05L21.5054 6.72231e-05L21.5054 177.789C21.5054 179.965 20.6414 182.051 19.1035 183.59C17.5655 185.128 15.4796 185.993 13.3047 185.993L0.450005 185.993L0.449994 312.531C0.449993 315.838 1.76328 319.009 4.10095 321.348C6.43861 323.686 9.60917 325 12.9151 325L81.5349 325C84.8408 325 88.0114 323.686 90.349 321.348C92.6867 319.009 94 315.838 94 312.531L94 12.4898C94 9.18087 92.6874 6.00716 90.3503 3.66547C88.0132 1.32378 84.8427 0.00550615 81.5349 7.24678e-05Z" fill="#F8EBCB"/>
</svg>
