<svg width="95" height="325" viewBox="0 0 95 325" fill="none" xmlns="http://www.w3.org/2000/svg">
<path d="M81.5896 9.88045e-06L21.5806 4.63762e-06L21.5806 177.789C21.5806 179.965 20.7166 182.051 19.1787 183.59C17.6407 185.128 15.5548 185.993 13.3799 185.993L0.504695 185.993L0.504684 312.531C0.504675 314.172 0.828456 315.796 1.45745 317.312C2.08644 318.827 3.00828 320.204 4.17012 321.362C5.33196 322.521 6.71097 323.438 8.22804 324.063C9.74512 324.687 11.3704 325.005 13.0108 325L81.5896 325C84.8955 325 88.0661 323.686 90.4037 321.348C92.7414 319.009 94.0547 315.838 94.0547 312.531L94.0547 12.4897C94.0547 9.18081 92.7421 6.0071 90.405 3.66541C88.0679 1.32371 84.8974 0.00544356 81.5896 9.88045e-06Z" fill="#F8EBCB"/>
</svg>
