<svg width="94" height="325" viewBox="0 0 94 325" fill="none" xmlns="http://www.w3.org/2000/svg">
<path d="M71.1189 186.004C68.9444 186.004 66.859 185.14 65.3214 183.601C63.7838 182.063 62.92 179.976 62.92 177.8L62.92 -1.5302e-05L21.2078 -1.89462e-05L21.2078 177.78C21.2078 179.956 20.344 182.042 18.8064 183.581C17.2688 185.119 15.1834 185.984 13.0089 185.984L0.157038 185.984L0.157027 312.53C0.157025 314.169 0.480069 315.792 1.10764 317.307C1.73522 318.821 2.65503 320.197 3.81444 321.355C4.97385 322.513 6.35012 323.431 7.8645 324.057C9.37887 324.682 11.0016 325.003 12.6399 325L81.2241 325C84.5312 325 87.7032 323.687 90.0436 321.349C92.3841 319.011 93.7016 315.839 93.707 312.53L93.707 186.004L71.1189 186.004Z" fill="#F8EBCB"/>
</svg>
