<svg width="94" height="325" viewBox="0 0 94 325" fill="none" xmlns="http://www.w3.org/2000/svg">
<path d="M70.9744 186.004C68.7994 186.004 66.7135 185.14 65.1756 183.601C63.6376 182.063 62.7736 179.976 62.7736 177.8L62.7736 1.28596e-06L12.462 -3.10964e-06C9.15417 0.00543034 5.98369 1.32381 3.64661 3.66565C1.30953 6.00749 -0.00310467 9.18139 -0.0031005 12.4905L-0.00312675 312.53C-0.00312704 315.837 1.31016 319.009 3.64783 321.348C5.98549 323.686 9.15602 325 12.462 325L81.0612 325C84.3691 325 87.5418 323.687 89.8827 321.349C92.2236 319.011 93.5414 315.839 93.5469 312.53L93.5469 186.004L70.9744 186.004Z" fill="#F8EBCB"/>
</svg>
