<svg width="94" height="325" viewBox="0 0 94 325" fill="none" xmlns="http://www.w3.org/2000/svg">
<path d="M70.9783 186.004C68.8033 186.004 66.7174 185.14 65.1795 183.601C63.6415 182.063 62.7775 179.976 62.7775 177.8L62.7775 1.28596e-06L12.4659 -3.10964e-06C9.15807 0.00543034 5.98759 1.32381 3.65051 3.66565C1.31343 6.00749 0.000801575 9.18139 0.000805745 12.4905L0.000779498 312.53C0.000779209 315.837 1.31407 319.009 3.65173 321.348C5.9894 323.686 9.15993 325 12.4659 325L81.0651 325C84.373 325 87.5457 323.687 89.8866 321.349C92.2275 319.011 93.5454 315.839 93.5508 312.53L93.5508 186.004L70.9783 186.004Z" fill="#ECBA5D"/>
</svg>
