<svg width="95" height="325" viewBox="0 0 95 325" fill="none" xmlns="http://www.w3.org/2000/svg">
<path d="M71.9108 186.004C69.7354 186.004 67.649 185.14 66.1107 183.601C64.5725 182.063 63.7083 179.976 63.7083 177.8L63.7083 1.59943e-05L31.6978 1.31976e-05L31.6978 177.78C31.6978 179.956 30.8336 182.042 29.2954 183.581C27.7571 185.12 25.6707 185.984 23.4953 185.984L0.938293 185.984L0.938282 312.53C0.943685 315.832 2.25621 318.998 4.58879 321.334C6.92136 323.671 10.0842 324.989 13.3857 325L82.0204 325C85.3254 324.995 88.4935 323.679 90.8305 321.342C93.1676 319.004 94.4829 315.836 94.4883 312.53L94.4883 186.004L71.9108 186.004Z" fill="#F8EBCB"/>
</svg>
