<svg width="94" height="325" viewBox="0 0 94 325" fill="none" xmlns="http://www.w3.org/2000/svg">
<path d="M71.0085 186.004C68.833 186.004 66.7467 185.14 65.2084 183.601C63.6701 182.063 62.8059 179.976 62.8059 177.8L62.8059 1.59943e-05L30.7955 1.31976e-05L30.7955 177.78C30.7955 179.956 29.9313 182.042 28.393 183.581C26.8547 185.12 24.7684 185.984 22.5929 185.984L0.035949 185.984L0.035938 312.53C0.041341 315.832 1.35387 318.998 3.68644 321.334C6.01902 323.671 9.18185 324.989 12.4833 325L81.1181 325C84.4231 324.995 87.5912 323.679 89.9282 321.342C92.2652 319.004 93.5805 315.836 93.5859 312.53L93.5859 186.004L71.0085 186.004Z" fill="#F8EBCB"/>
</svg>
