<svg width="95" height="325" viewBox="0 0 95 325" fill="none" xmlns="http://www.w3.org/2000/svg">
<path d="M81.5935 9.88045e-06L21.5845 4.63762e-06L21.5845 177.789C21.5845 179.965 20.7205 182.051 19.1826 183.59C17.6446 185.128 15.5587 185.993 13.3838 185.993L0.508602 185.993L0.50859 312.531C0.508581 314.172 0.832362 315.796 1.46136 317.312C2.09035 318.827 3.01219 320.204 4.17403 321.362C5.33587 322.521 6.71487 323.438 8.23195 324.063C9.74903 324.687 11.3743 325.005 13.0147 325L81.5935 325C84.8994 325 88.07 323.686 90.4076 321.348C92.7453 319.009 94.0586 315.838 94.0586 312.531L94.0586 12.4897C94.0586 9.18081 92.746 6.0071 90.4089 3.66541C88.0718 1.32371 84.9013 0.00544356 81.5935 9.88045e-06Z" fill="#EB7114"/>
</svg>
