<svg width="95" height="325" viewBox="0 0 95 325" fill="none" xmlns="http://www.w3.org/2000/svg">
<path d="M81.6326 7.24678e-05L21.6031 6.72231e-05L21.6031 177.789C21.6031 179.965 20.7391 182.051 19.2011 183.59C17.6632 185.128 15.5773 185.993 13.4023 185.993L0.547661 185.993L0.54765 312.531C0.54765 315.838 1.86094 319.009 4.19861 321.348C6.53627 323.686 9.70683 325 13.0128 325L81.6325 325C84.9385 325 88.109 323.686 90.4467 321.348C92.7844 319.009 94.0977 315.838 94.0977 312.531L94.0977 12.4898C94.0977 9.18087 92.7851 6.00716 90.448 3.66547C88.1109 1.32378 84.9404 0.00550615 81.6326 7.24678e-05Z" fill="#F8EBCB"/>
</svg>
