<svg width="94" height="325" viewBox="0 0 94 325" fill="none" xmlns="http://www.w3.org/2000/svg">
<path d="M71.1862 186.004C70.1093 186.004 69.0429 185.792 68.048 185.38C67.053 184.968 66.149 184.363 65.3874 183.601C64.6259 182.84 64.0219 181.935 63.6097 180.94C63.1976 179.945 62.9855 178.878 62.9855 177.8L62.9855 1.59967e-05L21.2642 1.23516e-05L21.2642 177.78C21.2642 179.956 20.4002 182.042 18.8623 183.581C17.3243 185.12 15.2384 185.984 13.0635 185.984L0.188286 185.984L0.188275 312.53C0.188275 315.837 1.50156 319.009 3.83923 321.348C6.1769 323.686 9.34745 325 12.6534 325L81.2731 325C84.5791 325 87.7497 323.686 90.0873 321.348C92.425 319.009 93.7383 315.837 93.7383 312.53L93.7383 186.004L71.1862 186.004Z" fill="#ECBA5D"/>
</svg>
