<svg width="95" height="325" viewBox="0 0 95 325" fill="none" xmlns="http://www.w3.org/2000/svg">
<path d="M81.6365 7.24678e-05L21.607 6.72231e-05L21.607 177.789C21.607 179.965 20.743 182.051 19.205 183.59C17.6671 185.128 15.5812 185.993 13.4062 185.993L0.551567 185.993L0.551556 312.531C0.551556 315.838 1.86485 319.009 4.20251 321.348C6.54018 323.686 9.71073 325 13.0167 325L81.6364 325C84.9424 325 88.1129 323.686 90.4506 321.348C92.7883 319.009 94.1016 315.838 94.1016 312.531L94.1016 12.4898C94.1016 9.18087 92.789 6.00716 90.4519 3.66547C88.1148 1.32378 84.9443 0.00550615 81.6365 7.24678e-05Z" fill="#EB7114"/>
</svg>
