<svg width="94" height="325" viewBox="0 0 94 325" fill="none" xmlns="http://www.w3.org/2000/svg">
<path d="M81.488 9.88045e-06L21.4791 4.63762e-06L21.479 177.789C21.479 179.965 20.615 182.051 19.0771 183.59C17.5392 185.128 15.4533 185.993 13.2783 185.993L0.403133 185.993L0.403122 312.531C0.403113 314.172 0.726893 315.796 1.35589 317.312C1.98488 318.827 2.90672 320.204 4.06856 321.362C5.2304 322.521 6.60941 323.438 8.12648 324.063C9.64356 324.687 11.2689 325.005 12.9093 325L81.488 325C84.7939 325 87.9645 323.686 90.3022 321.348C92.6398 319.009 93.9531 315.838 93.9531 312.531L93.9532 12.4897C93.9532 9.18081 92.6405 6.0071 90.3034 3.66541C87.9664 1.32371 84.7959 0.00544356 81.488 9.88045e-06Z" fill="#F8EBCB"/>
</svg>
