<svg width="95" height="325" viewBox="0 0 95 325" fill="none" xmlns="http://www.w3.org/2000/svg">
<path d="M81.4629 186.004C79.2874 186.004 77.2011 185.14 75.6628 183.601C74.1245 182.063 73.2603 179.976 73.2603 177.8L73.2603 1.68435e-05L13.2382 1.15995e-05C9.92964 0.00544505 6.75843 1.32383 4.42084 3.66567C2.08325 6.00751 0.770329 9.18142 0.770333 12.4906L0.770307 312.53C0.770302 315.834 2.08106 319.002 4.4148 321.34C6.74855 323.678 9.91455 324.995 13.2177 325L81.8319 325C85.1405 325 88.3139 323.687 90.6553 321.349C92.9968 319.011 94.3149 315.839 94.3203 312.53L94.3203 186.004L81.4629 186.004Z" fill="#F8EBCB"/>
</svg>
