<svg width="156" height="350" viewBox="0 0 156 350" fill="none" xmlns="http://www.w3.org/2000/svg">
<path d="M52.589 206.775C79.7501 206.775 101.755 228.671 101.755 255.664C101.755 282.657 79.7501 304.553 52.589 304.553C25.4279 304.553 3.42283 282.657 3.42283 255.664C3.42282 228.671 25.4279 206.775 52.589 206.775Z" stroke="#231F20" stroke-width="2.84553"/>
<path d="M77.8836 250.799C105.045 250.799 127.05 272.695 127.05 299.688C127.05 326.682 105.045 348.577 77.8836 348.577C50.7225 348.577 28.7174 326.682 28.7174 299.688C28.7174 272.695 50.7225 250.799 77.8836 250.799Z" stroke="#147995" stroke-width="2.84553"/>
<path d="M103.173 206.775C130.334 206.775 152.339 228.671 152.339 255.664C152.339 282.657 130.334 304.553 103.173 304.553C76.0117 304.553 54.0066 282.657 54.0066 255.664C54.0066 228.671 76.0116 206.775 103.173 206.775Z" stroke="#F8EBCB" stroke-width="2.84553"/>
<path d="M2.00003 175L153.762 175" stroke="#147995" stroke-width="2.84553" stroke-linecap="round"/>
<path d="M52.589 143.225C79.7501 143.225 101.755 121.329 101.755 94.3361C101.755 67.3428 79.7501 45.4472 52.589 45.4472C25.4279 45.4472 3.42286 67.3428 3.42286 94.3361C3.42286 121.329 25.4279 143.225 52.589 143.225Z" stroke="#231F20" stroke-width="2.84553"/>
<path d="M77.8836 99.2005C105.045 99.2005 127.05 77.3049 127.05 50.3116C127.05 23.3184 105.045 1.42276 77.8836 1.42276C50.7225 1.42277 28.7175 23.3184 28.7175 50.3116C28.7175 77.3049 50.7225 99.2005 77.8836 99.2005Z" stroke="#147995" stroke-width="2.84553"/>
<path d="M103.173 143.225C130.334 143.225 152.339 121.329 152.339 94.3361C152.339 67.3428 130.334 45.4472 103.173 45.4472C76.0117 45.4472 54.0067 67.3428 54.0067 94.3361C54.0067 121.329 76.0117 143.225 103.173 143.225Z" stroke="#F8EBCB" stroke-width="2.84553"/>
</svg>
