<svg width="120" height="120" viewBox="0 0 120 120" fill="none" xmlns="http://www.w3.org/2000/svg">
<mask id="path-1-inside-1_62_1719" fill="white">
<path fill-rule="evenodd" clip-rule="evenodd" d="M60 120C93.1371 120 120 93.1371 120 60C120 26.8629 93.1371 0 60 0C26.8629 0 0 26.8629 0 60C0 93.1371 26.8629 120 60 120ZM60.0001 64.0001C62.2092 64.0001 64.0001 62.2092 64.0001 60.0001C64.0001 57.7909 62.2092 56.0001 60.0001 56.0001C57.7909 56.0001 56.0001 57.7909 56.0001 60.0001C56.0001 62.2092 57.7909 64.0001 60.0001 64.0001Z"/>
</mask>
<path fill-rule="evenodd" clip-rule="evenodd" d="M60 120C93.1371 120 120 93.1371 120 60C120 26.8629 93.1371 0 60 0C26.8629 0 0 26.8629 0 60C0 93.1371 26.8629 120 60 120ZM60.0001 64.0001C62.2092 64.0001 64.0001 62.2092 64.0001 60.0001C64.0001 57.7909 62.2092 56.0001 60.0001 56.0001C57.7909 56.0001 56.0001 57.7909 56.0001 60.0001C56.0001 62.2092 57.7909 64.0001 60.0001 64.0001Z" fill="#231F20"/>
<path d="M119 60C119 92.5848 92.5848 119 60 119V121C93.6894 121 121 93.6894 121 60H119ZM60 1C92.5848 1 119 27.4152 119 60H121C121 26.3106 93.6894 -1 60 -1V1ZM1 60C1 27.4152 27.4152 1 60 1V-1C26.3106 -1 -1 26.3106 -1 60H1ZM60 119C27.4152 119 1 92.5848 1 60H-1C-1 93.6894 26.3106 121 60 121V119ZM63.0001 60.0001C63.0001 61.6569 61.6569 63.0001 60.0001 63.0001V65.0001C62.7615 65.0001 65.0001 62.7615 65.0001 60.0001H63.0001ZM60.0001 57.0001C61.6569 57.0001 63.0001 58.3432 63.0001 60.0001H65.0001C65.0001 57.2386 62.7615 55.0001 60.0001 55.0001V57.0001ZM57.0001 60.0001C57.0001 58.3432 58.3432 57.0001 60.0001 57.0001V55.0001C57.2386 55.0001 55.0001 57.2386 55.0001 60.0001H57.0001ZM60.0001 63.0001C58.3432 63.0001 57.0001 61.6569 57.0001 60.0001H55.0001C55.0001 62.7615 57.2386 65.0001 60.0001 65.0001V63.0001Z" fill="#F8EBCB" fill-opacity="0.4" mask="url(#path-1-inside-1_62_1719)"/>
<circle cx="59.9997" cy="60" r="54.1667" stroke="#F8EBCB" stroke-opacity="0.4"/>
<circle cx="59.9998" cy="60" r="48.8333" stroke="#F8EBCB" stroke-opacity="0.4"/>
<circle cx="60" cy="60.0001" r="43.5" stroke="#F8EBCB" stroke-opacity="0.4"/>
<circle cx="59.9997" cy="60" r="38.1667" stroke="#F8EBCB" stroke-opacity="0.4"/>
<circle cx="59.9998" cy="60.0001" r="32.8333" stroke="#F8EBCB" stroke-opacity="0.4"/>
<circle cx="60" cy="60" r="27.5" stroke="#F8EBCB" stroke-opacity="0.4"/>
<path fill-rule="evenodd" clip-rule="evenodd" d="M59.9997 78.6666C70.309 78.6666 78.6663 70.3093 78.6663 60C78.6663 49.6907 70.309 41.3333 59.9997 41.3333C49.6904 41.3333 41.333 49.6907 41.333 60C41.333 70.3093 49.6904 78.6666 59.9997 78.6666ZM59.9998 64.0001C62.209 64.0001 63.9998 62.2093 63.9998 60.0001C63.9998 57.791 62.209 56.0001 59.9998 56.0001C57.7907 56.0001 55.9998 57.791 55.9998 60.0001C55.9998 62.2093 57.7907 64.0001 59.9998 64.0001Z" fill="#ECBA5D"/>
</svg>
