<svg width="273" height="240" viewBox="0 0 273 240" fill="none" xmlns="http://www.w3.org/2000/svg">
<mask id="path-1-inside-1_62_2017" fill="white">
<path fill-rule="evenodd" clip-rule="evenodd" d="M112.212 99.7403C120.038 89.3216 124.675 76.3712 124.675 62.3377C124.675 27.9095 96.7658 0 62.3377 0C27.9095 0 0 27.9095 0 62.3377C0 94.928 25.0093 121.677 56.8831 124.44V240H197.143V194.416L272.727 232.208V107.532L197.143 145.325V124.503C229.387 122.112 254.805 95.1931 254.805 62.3377C254.805 27.9095 226.896 0 192.468 0C158.039 0 130.13 27.9095 130.13 62.3377C130.13 76.3712 134.767 89.3216 142.593 99.7403H112.212Z"/>
</mask>
<path d="M112.212 99.7403L109.814 97.9385L106.207 102.74H112.212V99.7403ZM56.8831 124.44H59.8831V121.689L57.1422 121.451L56.8831 124.44ZM56.8831 240H53.8831V243H56.8831V240ZM197.143 240V243H200.143V240H197.143ZM197.143 194.416L198.484 191.732L194.143 189.561V194.416H197.143ZM272.727 232.208L271.386 234.891L275.727 237.062V232.208H272.727ZM272.727 107.532H275.727V102.678L271.386 104.849L272.727 107.532ZM197.143 145.325H194.143V150.179L198.484 148.008L197.143 145.325ZM197.143 124.503L196.921 121.511L194.143 121.717V124.503H197.143ZM142.593 99.7403V102.74H148.598L144.992 97.9385L142.593 99.7403ZM121.675 62.3377C121.675 75.6993 117.263 88.0216 109.814 97.9385L114.611 101.542C122.814 90.6217 127.675 77.0431 127.675 62.3377H121.675ZM62.3377 3C95.1089 3 121.675 29.5664 121.675 62.3377H127.675C127.675 26.2527 98.4227 -3 62.3377 -3V3ZM3 62.3377C3 29.5664 29.5664 3 62.3377 3V-3C26.2527 -3 -3 26.2527 -3 62.3377H3ZM57.1422 121.451C26.8055 118.821 3 93.358 3 62.3377H-3C-3 96.4979 23.2132 124.533 56.624 127.429L57.1422 121.451ZM59.8831 240V124.44H53.8831V240H59.8831ZM197.143 237H56.8831V243H197.143V237ZM194.143 194.416V240H200.143V194.416H194.143ZM195.801 197.099L271.386 234.891L274.069 229.525L198.484 191.732L195.801 197.099ZM275.727 232.208V107.532H269.727V232.208H275.727ZM271.386 104.849L195.801 142.641L198.484 148.008L274.069 110.216L271.386 104.849ZM194.143 124.503V145.325H200.143V124.503H194.143ZM251.805 62.3377C251.805 93.6106 227.611 119.235 196.921 121.511L197.365 127.494C231.164 124.988 257.805 96.7756 257.805 62.3377H251.805ZM192.468 3C225.239 3 251.805 29.5664 251.805 62.3377H257.805C257.805 26.2527 228.553 -3 192.468 -3V3ZM133.13 62.3377C133.13 29.5664 159.696 3 192.468 3V-3C156.383 -3 127.13 26.2527 127.13 62.3377H133.13ZM144.992 97.9385C137.543 88.0216 133.13 75.6993 133.13 62.3377H127.13C127.13 77.0431 131.992 90.6217 140.194 101.542L144.992 97.9385ZM112.212 102.74H142.593V96.7403H112.212V102.74Z" fill="#F8EBCB" mask="url(#path-1-inside-1_62_2017)"/>
</svg>
