<svg width="94" height="142" viewBox="0 0 94 142" fill="none" xmlns="http://www.w3.org/2000/svg">
<path fill-rule="evenodd" clip-rule="evenodd" d="M21.0223 0.624085L21.0191 0.624119C14.6418 0.692517 9.67567 2.47697 6.19432 5.63283C2.72017 8.78216 1.15971 12.9052 0.857296 16.816C0.559161 20.6715 1.4567 24.5416 3.16912 27.5596C4.78989 30.416 7.77562 33.4807 12.0188 33.4807C14.6956 33.4807 17.076 32.8548 18.9747 31.5117C20.899 30.1506 22.0119 28.2728 22.4759 26.3785C22.9244 24.5475 22.7781 22.6802 22.2129 21.104C21.708 19.696 20.5318 17.6756 18.2071 16.8768C18.0859 16.8351 17.7534 16.6414 17.4461 16.1734C17.1416 15.7097 17.0738 15.2975 17.0868 15.1055C17.0873 15.0984 17.0874 15.0918 17.0876 15.0854C17.0892 15.0329 17.0902 14.998 17.2457 14.8866C17.5366 14.6781 18.4896 14.1988 20.7438 14.1988C22.6406 14.1988 23.8652 14.721 24.7722 15.4235C25.7519 16.1821 26.6208 17.3581 27.3975 19.0158C28.1759 20.6775 28.7627 22.6044 29.3016 24.6777C29.459 25.2833 29.6207 25.9387 29.7858 26.6083L29.786 26.6092C30.1366 28.031 30.5031 29.5169 30.8788 30.7269C30.9973 31.1084 31.224 32.377 31.4874 34.7446C31.7345 36.9654 31.9818 39.8221 32.2241 43.1113C32.7082 49.683 33.1628 57.8491 33.5542 65.8356C33.9453 73.8164 34.272 81.5924 34.501 87.3749C34.6154 90.2657 34.7054 92.6571 34.7668 94.3253C34.7975 95.1593 34.821 95.8125 34.8369 96.2569L34.8597 96.9026C34.9974 104.009 37.145 114.78 42.3862 123.919C47.6918 133.171 56.5563 141.305 70.046 141.305C79.683 141.305 85.781 137.049 89.2873 131.743C92.6176 126.704 93.4294 121.028 93.4294 117.917C93.4294 114.665 92.5508 111.065 90.2943 108.177C87.926 105.146 84.2969 103.247 79.6691 103.247C75.7832 103.247 72.1457 104.105 69.6238 106.849C67.1728 109.516 66.6305 113.061 66.6305 116.296C66.6305 121.372 70.0355 124.22 72.1038 125.709C72.5353 126.02 72.9754 126.317 73.3369 126.561L73.3374 126.562L73.3419 126.565C73.4199 126.617 73.4942 126.667 73.5639 126.715C73.8602 126.916 74.0835 127.071 74.259 127.2L74.4436 127.587C74.4452 127.591 74.447 127.595 74.4491 127.601C74.4515 127.607 74.4542 127.614 74.4572 127.622C74.4842 127.695 74.524 127.814 74.5567 127.957C74.5924 128.113 74.6053 128.23 74.6091 128.311L74.5938 128.319C74.2093 128.514 73.0862 128.886 70.5808 128.778L70.5748 128.778C65.8843 128.582 62.4969 126.541 59.8425 123.112C57.0671 119.526 55.0866 114.38 53.7502 108.221C51.2594 96.7414 51.2794 83.1857 51.2942 73.1576C51.2953 72.4088 51.2964 71.6797 51.2964 70.9726C51.2964 60.8158 50.4179 43.8146 46.5968 29.2488C44.6924 21.9893 41.9702 14.9856 37.9976 9.72598C33.946 4.36167 28.3561 0.55083 21.0223 0.624085Z" fill="#ECBA5D"/>
</svg>
