<svg width="193" height="193" viewBox="0 0 193 193" fill="none" xmlns="http://www.w3.org/2000/svg">
<path d="M0.539062 0L0.539063 17.4677C13.3698 18.5273 28.7828 21.4975 33.2736 30.9538C38.0851 41.2129 35.2142 58.2471 27.5158 65.8089C24.6449 68.6346 23.4741 79.1345 26.2487 81.7835C30.2713 85.5765 32.7554 90.7212 33.2255 96.2329C34.1236 105.24 34.9576 114.279 35.118 123.317C35.2944 132.677 34.7491 132.95 25.7676 134.556C25.6232 134.556 25.5109 134.7 25.0137 135.005C25.0137 136.37 25.0137 137.976 25.0137 139.581C25.4521 157.274 25.8905 174.966 26.3289 192.658L193.001 192.658L193.001 20C193.001 8.95429 184.046 0 173.001 0L0.539062 0Z" fill="#ECBA5D"/>
</svg>
