<svg width="193" height="193" viewBox="0 0 193 193" fill="none" xmlns="http://www.w3.org/2000/svg">
<path d="M167.987 139.581C167.987 137.976 167.987 136.37 167.987 135.005C167.49 134.7 167.377 134.572 167.233 134.556C158.251 132.95 157.706 132.742 157.883 123.317C158.043 114.279 158.877 105.24 159.775 96.2329C160.245 90.7212 162.729 85.5765 166.752 81.7835C169.527 79.1345 168.356 68.6346 165.485 65.8089C157.786 58.2792 154.851 41.2129 159.727 30.9538C164.218 21.4975 179.631 18.5273 192.462 17.4677V0L20 0C8.95432 0 0 8.95431 0 20L0 192.658L166.672 192.658C167.121 174.966 167.559 157.274 167.987 139.581Z" fill="#ECBA5D"/>
</svg>
