<svg width="192" height="193" viewBox="0 0 192 193" fill="none" xmlns="http://www.w3.org/2000/svg">
<path d="M25.6615 192.209C30.4744 178.144 37.251 164.831 45.7898 152.666C47.2976 150.476 48.0809 147.869 48.0291 145.21C47.9773 142.551 47.0931 139.976 45.5011 137.847C40.2565 130.928 41.6519 117.923 48.7088 112.962C54.6207 109.011 60.7997 105.476 67.2012 102.382C93.5524 89.0243 124.587 62.598 120.321 33.4584C118.717 22.5731 92.2532 13.4701 80.8018 11.5595C72.2693 10.1306 72.0448 10.1627 70.6815 1.60549C70.6013 1.09173 70.5211 0.577976 70.457 0L0 0L0 192.658H25.4851C25.5493 192.546 25.6615 192.37 25.6615 192.209Z" fill="#ECBA5D"/>
</svg>
