<svg width="94" height="142" viewBox="0 0 94 142" fill="none" xmlns="http://www.w3.org/2000/svg">
<path fill-rule="evenodd" clip-rule="evenodd" d="M75.7178 16.8818L75.7095 16.8847L75.7012 16.8876C73.3692 17.7086 72.2275 19.7661 71.7489 21.1502C71.2068 22.7178 71.0749 24.571 71.5234 26.387C71.9869 28.2639 73.0863 30.1374 74.9968 31.5015C76.8859 32.8503 79.255 33.4814 81.9184 33.4814C86.148 33.4814 89.1209 30.4069 90.7314 27.5703C92.439 24.5629 93.3447 20.7029 93.0567 16.8515C92.7645 12.9444 91.2166 8.82112 87.7486 5.66584C84.2747 2.5051 79.3118 0.711529 72.9301 0.624955C65.5934 0.525426 59.9997 4.32942 55.9471 9.69183C51.9744 14.9485 49.2516 21.9557 47.3464 29.2195C43.5234 43.7949 42.6408 60.8158 42.6408 70.9732C42.6408 71.6804 42.6419 72.4095 42.643 73.1583C42.6578 83.1859 42.6778 96.7378 40.1871 108.215C38.8507 114.373 36.8702 119.519 34.0945 123.106C31.4396 126.537 28.0511 128.58 23.3597 128.778L23.3564 128.779C20.851 128.886 19.728 128.515 19.3435 128.319L19.3281 128.312C19.332 128.231 19.3448 128.113 19.3805 127.958C19.4133 127.815 19.453 127.695 19.4801 127.623L19.4908 127.595L19.4937 127.587L19.6761 127.205C19.8513 127.077 20.074 126.922 20.3698 126.722C20.4398 126.675 20.5145 126.624 20.5928 126.572L20.594 126.571C20.9563 126.326 21.3978 126.029 21.831 125.717C23.905 124.226 27.3068 121.379 27.3068 116.296C27.3068 113.055 26.7579 109.512 24.3053 106.847C21.7831 104.107 18.1492 103.247 14.2682 103.247C9.64578 103.247 6.0189 105.148 3.65064 108.176C1.393 111.062 0.507813 114.661 0.507813 117.918C0.507813 121.029 1.31964 126.705 4.6499 131.744C8.15622 137.05 14.2543 141.306 23.8912 141.306C37.4051 141.306 46.2703 133.164 51.5706 123.905C56.8054 114.761 58.9396 103.992 59.0775 96.9048L59.1008 96.2582C59.117 95.8125 59.141 95.1572 59.1723 94.3207C59.2349 92.6475 59.3266 90.2492 59.4429 87.3508C59.6757 81.553 60.0069 73.7586 60.401 65.7654C60.7954 57.7664 61.2515 49.5934 61.7335 43.0297C61.9747 39.7444 62.22 36.8953 62.464 34.6867C62.7249 32.3243 62.9471 31.0839 63.0563 30.7343C63.4254 29.5528 63.7878 28.0828 64.1356 26.6723L64.1358 26.6714C64.2992 26.0091 64.4593 25.3599 64.6153 24.7598C65.1517 22.6967 65.7404 20.7611 66.5236 19.0847C67.3059 17.4102 68.1835 16.2131 69.1731 15.4397C70.0882 14.7245 71.3119 14.1994 73.1935 14.1994C75.449 14.1994 76.4028 14.6784 76.6938 14.8867C76.8478 14.9968 76.8486 15.0304 76.8497 15.0802C76.8498 15.0866 76.85 15.0932 76.8505 15.1004C76.8633 15.2904 76.7961 15.7025 76.4904 16.1684C76.1821 16.6383 75.846 16.8373 75.7178 16.8818ZM19.2991 127.507C19.3079 127.499 19.3178 127.49 19.329 127.48C19.3169 127.494 19.3057 127.507 19.2958 127.517C19.2854 127.528 19.2764 127.538 19.269 127.545L19.2632 127.542C19.2717 127.533 19.2836 127.521 19.2991 127.507ZM19.2615 127.544L19.2672 127.546C19.2552 127.558 19.2477 127.564 19.2459 127.564C19.2439 127.564 19.2486 127.557 19.2615 127.544ZM23.8912 137.071C23.8306 137.071 23.7702 137.071 23.7099 137.071L23.7131 137.071C23.7723 137.071 23.8317 137.071 23.8912 137.071ZM46.8769 73.216C46.8756 72.443 46.8743 71.6945 46.8743 70.9732C46.8743 71.6927 46.8756 72.4392 46.8769 73.2099L46.8769 73.216Z" fill="#ECBA5D"/>
</svg>
