<svg width="192" height="193" viewBox="0 0 192 193" fill="none" xmlns="http://www.w3.org/2000/svg">
<path d="M121.26 0C121.26 0.529811 121.115 1.04357 121.035 1.60549C119.672 10.1627 119.431 10.1306 110.915 11.5595C99.4633 13.4701 72.9998 22.5731 71.396 33.4584C67.1298 62.5979 98.1642 89.0243 124.515 102.382C130.917 105.476 137.096 109.011 143.008 112.962C150.129 117.923 151.524 130.928 146.215 137.847C144.623 139.976 143.739 142.551 143.687 145.21C143.636 147.869 144.419 150.476 145.927 152.666C154.501 164.809 161.315 178.106 166.167 192.161C166.167 192.321 166.264 192.498 166.328 192.658H191.829L191.829 0L121.26 0Z" fill="#ECBA5D"/>
</svg>
